<svg width="43" height="42" fill="none" xmlns="http://www.w3.org/2000/svg"><path d="M21 20h-6q-5 3-6 9l1 2 3 1q3-1 8-6 4-7 3-11l-1-3q-4-3-10-2-4 3-6 8-2 7 0 12t9 6 11 1 7-4q1-4-1-11-2-4-7-7-4-3-8-2-3 2-4 6l1 10q1 6 5 7 3 3 8 1 6-1 9-5l1-9q-2-6-7-10-7-4-15-4l-4 2q-5 9 0 21 2 4 7 4 5 1 9-2t5-8-4-11c-4-7-13-7-18-7q-4 1-7 7v11q2 4 6 7 5 3 12 2 7 0 12-5 4-4 1-14-1-5-10-11-7-5-13-4T3 9 1 23q2 7 6 10 5 3 15 4 6 0 15-6 5-5 4-11-1-4-6-9-5-3-13-3-7-1-13 6-5 6-6 14 0 6 5 10t13 2q8-1 12-5 3-5 2-10c-1-7-12-13-21-15q-3-1-6 1-4 3-7 11 0 3 2 8 2 4 9 4 4-1 9-5 4-3 4-8 0-6-5-10-4-4-6-4l-2 2-2 8q1 6 6 9 5 2 11 2l9-6q2-4 1-10-2-6-6-9l-4-2q-2 0-3 2-2 3-2 11 1 5 4 10l5 2q5-1 7-9v-2l-8-2q-6 0-12 5-4 4-4 9v2q2 3 5 3l8-1 2-2v-5q-3-6-17-7l-4 1-2 1 1 6 9 7 7 3" stroke="#da2bb1" stroke-width="2" stroke-linecap="round"/></svg>