<svg xmlns="http://www.w3.org/2000/svg" width="101" height="106" fill="rgba(0,0,0,0)">
    <g stroke="#DA2BB1" stroke-width="4" stroke-linecap="round" stroke-linejoin="round" fill="rgba(0,0,0,0)">
        <path d="M43 4v4c0 5-1 14 1 18 1 4 4 4 7 4h14c2 0 6 1 7-2 2-2 2-6 2-11L71 2l-9 1H46" />
        <path d="M57 29v25c-1 4-1 4-4 4H20c-3 1-3 1-3 3l-1 14 1 2v2" />
        <path d="M7 81h22v9l1 11 1 2-8 1H10l-7-1c-3 0 1-7 2-14l-1-4v-2" />
        <path d="M57 58h14l6-1h8v23c-1 3-8 2-13 2v18l1 1h9l16-1 1-15v-4l-1-2a95 95 0 0 0-18 2" />
        <path d="m73 92 5-4 6-4 6-6" />
        <path d="m79 97 7-7 4-4 3-2" />
        <path d="M90 97s0 0 0 0l3-1" />
        <path d="M54 33v12l1 9-4 1H23l-8 1-2 1v9l-1 9-1 4v1l1 1" />
        <path d="m56 55 6 1 15-1 8-1 2 8v15" />
    </g>
</svg>