<?xml version="1.0" encoding="UTF-8" standalone="no"?>
<!DOCTYPE svg PUBLIC "-//W3C//DTD SVG 1.1//EN" "http://www.w3.org/Graphics/SVG/1.1/DTD/svg11.dtd">
<svg width="100%" height="100%" viewBox="0 0 1920 360" version="1.1" xmlns="http://www.w3.org/2000/svg" xmlns:xlink="http://www.w3.org/1999/xlink" xml:space="preserve" xmlns:serif="http://www.serif.com/" style="fill-rule:evenodd;clip-rule:evenodd;stroke-linecap:round;stroke-linejoin:round;stroke-miterlimit:1.5;">
    <g>
        <path d="M848.875,178.555C881.517,196.017 887.012,204.425 915.711,224.637" style="fill:none;stroke:rgb(218,43,177);stroke-width:4px;"/>
        <path d="M786.706,272.935C759.086,268.122 775.521,291.612 776.69,292.306C792.67,301.799 801.591,302.875 790.458,318.19C788.332,321.115 782.321,309.05 749.789,337.915C757.697,336.475 765.604,335.034 773.512,333.593C771.866,337.631 770.221,341.668 768.575,345.705C777.665,340.358 777.48,340.802 787.56,337.171C787.019,341.036 786.478,344.9 785.937,348.764C797.724,337.569 798.044,338.517 811.881,330.533C817.263,327.427 807.251,305.495 806.333,303.485C803.239,296.707 807.81,298.194 815.161,293.973" style="fill:none;stroke:rgb(218,43,177);stroke-width:4px;"/>
        <path d="M844.688,227.112C827.261,267.614 841.323,304.573 872.191,285.436C871.454,317.112 877.207,318.919 859.251,345.295C869.397,341.85 868.916,342.197 878.982,338.333C881.758,341.264 884.534,344.196 887.31,347.128C888.45,343.436 889.59,339.744 890.731,336.052C901.928,343.778 900.635,345.235 916.119,350.644C900.292,321.386 899.416,321.287 900.483,288.32C900.88,276.057 893.433,281.902 892.156,280.739" style="fill:none;stroke:rgb(218,43,177);stroke-width:4px;"/>
        <path d="M877.813,220.102C888.735,242.643 895.125,243.61 884.07,265.719" style="fill:none;stroke:rgb(218,43,177);stroke-width:4px;"/>
        <path d="M915.93,228.879C957.069,250.329 972.026,260.221 1049.6,252.434C1095.94,247.781 1103.37,240.827 1161.35,252.66" style="fill:none;stroke:rgb(218,43,177);stroke-width:4px;"/>
        <path d="M899.543,299.956C968.816,307.367 967.357,294.071 1036.4,281.861C1105.77,269.594 1104.78,265.35 1174.96,258.621" style="fill:none;stroke:rgb(218,43,177);stroke-width:4px;"/>
        <path d="M663.611,80.236C659.867,81.814 659.43,82.198 661.073,85.747C663.689,91.397 664.266,85.876 668.573,81.111C662.619,84.104 661.669,83.66 662.313,85.469" style="fill:none;stroke:rgb(218,43,177);stroke-width:4px;"/>
        <path d="M726.819,133.8C725.654,136.091 717.652,129.736 713.376,130.974C688.254,138.242 688.244,136.539 662.32,133.195C682.234,144.028 685.115,135.977 703.743,148.355" style="fill:none;stroke:rgb(218,43,177);stroke-width:4px;"/>
        <path d="M386.644,188.044C344.509,179.295 342.592,122.896 297.927,119.036C296.976,118.953 296.008,118.808 295.008,118.727C265.731,116.374 253.316,169.975 261.942,187.792C268.606,201.555 313.175,228.353 318.041,231.279" style="fill:none;stroke:rgb(218,43,177);stroke-width:4px;"/>
        <path d="M389.954,188.817C395.329,188.658 404.786,184.823 450.578,144.593C445.568,149.084 433.947,180.702 408.179,204.881" style="fill:none;stroke:rgb(218,43,177);stroke-width:4px;"/>
        <path d="M365.113,216.218C386.197,215.464 370.831,212.357 463.735,187.107C436.606,214.056 407.816,217.63 400.452,230.558C399.487,232.253 409.205,230.296 405.525,254.409" style="fill:none;stroke:rgb(218,43,177);stroke-width:4px;"/>
        <path d="M371.868,226.017C386.301,236.413 386.416,235.846 394.486,252.328C391.801,251.482 353.311,239.356 368.484,228.607" style="fill:none;stroke:rgb(218,43,177);stroke-width:4px;"/>
        <path d="M381.642,234.373C374.052,242.204 376.657,245.371 385.715,247.394" style="fill:none;stroke:rgb(218,43,177);stroke-width:4px;"/>
        <path d="M415.892,224.305C421.865,233.778 424.908,233.645 419.823,244.094C428.259,262.778 428.943,261.949 434.358,281.389C442.066,278.818 449.775,276.248 457.483,273.677C440.994,300.102 444.4,304.524 414.808,315.465C411.231,303.06 412.487,300.219 408.101,301.601C407.123,301.909 400.937,303.858 399.171,310.788C397.518,317.278 401.128,315.147 408.278,317.082C397.114,342.418 386.968,333.291 369.962,311.645C354.223,313.929 354.75,313.22 339.735,310.356" style="fill:none;stroke:rgb(218,43,177);stroke-width:4px;"/>
        <path d="M255.924,173.095C166.58,114.042 171.379,206.398 121.835,224.158C119.578,224.967 57.923,241.275 51.458,231.94C36.552,210.418 69.056,204.121 71.796,203.59" style="fill:none;stroke:rgb(218,43,177);stroke-width:4px;"/>
        <path d="M77.554,202.772C73.737,218.914 66.617,224.447 82.879,229.327" style="fill:none;stroke:rgb(218,43,177);stroke-width:4px;"/>
        <path d="M52.688,233.501C64.666,261.776 62.573,267.531 93.278,272.273C135.722,278.827 135.585,285.536 132.89,287.607" style="fill:none;stroke:rgb(218,43,177);stroke-width:4px;"/>
        <path d="M153.725,251.14C151.813,254.773 129.899,296.406 144.084,301.55C169.057,310.607 132.56,341.373 159.629,343.164C185.192,344.856 176.198,329.052 180.643,319.635C184.31,311.865 193.04,311.796 197.134,284.095" style="fill:none;stroke:rgb(218,43,177);stroke-width:4px;"/>
        <path d="M192.02,311.858C197.31,313.479 212.221,318.048 261.185,311.339" style="fill:none;stroke:rgb(218,43,177);stroke-width:4px;"/>
        <path d="M273.237,265.175C260.982,288.768 265.408,289.449 266.626,315.67C291.152,323.215 296.28,321.457 299.704,346.938C330.07,344.502 338.312,349.995 335.515,338.114C327.192,302.757 312.822,308.906 299.801,304.231C303.716,290.422 302.986,290.644 302.028,276.015" style="fill:none;stroke:rgb(218,43,177);stroke-width:4px;"/>
        <path d="M351.837,313.207C348.343,329.848 356.084,327.279 368.048,339.778L335.414,338.61C333.87,335.023 332.326,331.436 330.782,327.848" style="fill:none;stroke:rgb(218,43,177);stroke-width:4px;"/>
        <path d="M311.228,234.571C311.745,234.843 318.383,228.851 335.047,262.866" style="fill:none;stroke:rgb(218,43,177);stroke-width:4px;"/>
        <path d="M325.75,250.511C319.035,251.414 312.32,252.317 305.605,253.221C319.856,265.87 318.989,266.295 336.746,273.338" style="fill:none;stroke:rgb(218,43,177);stroke-width:4px;"/>
        <path d="M185.987,188.163C174.617,199.805 166.424,199.022 173.747,209.939C174.524,211.098 175.707,212.861 189.628,202.736" style="fill:none;stroke:rgb(218,43,177);stroke-width:4px;"/>
        <path d="M204.099,204.54C192.374,217.421 194.027,236.247 197.887,242.761C199.352,245.234 225.041,246.709 232.752,238.643" style="fill:none;stroke:rgb(218,43,177);stroke-width:4px;"/>
        <path d="M249.969,230.241C238.612,255.259 273.392,259.231 271.79,235.236" style="fill:none;stroke:rgb(218,43,177);stroke-width:4px;"/>
        <path d="M245.373,191.345C238.412,199.884 249.434,213.309 259.509,195.808" style="fill:none;stroke:rgb(218,43,177);stroke-width:4px;"/>
        <path d="M146.072,234.667C139.879,252.762 153.393,242.629 171.171,237.137" style="fill:none;stroke:rgb(218,43,177);stroke-width:4px;"/>
        <path d="M149.703,337.357C154.823,333.468 155.646,335.211 157.508,340.782" style="fill:none;stroke:rgb(218,43,177);stroke-width:4px;"/>
        <path d="M168.127,339.542C169.105,335.232 170.21,337.498 173.912,339.643" style="fill:none;stroke:rgb(218,43,177);stroke-width:4px;"/>
        <path d="M317.293,344.96C320.214,331.148 327.489,340.881 330.112,342.278" style="fill:none;stroke:rgb(218,43,177);stroke-width:4px;"/>
        <path d="M362.064,214.813C351.899,212.467 350.225,208.216 343.939,216.491" style="fill:none;stroke:rgb(218,43,177);stroke-width:4px;"/>
        <path d="M289,175.312C279.401,160.914 324.528,180.664 327.644,205.65" style="fill:none;stroke:rgb(218,43,177);stroke-width:4px;"/>
        <path d="M317.559,153.506C318.542,155.72 320.69,167.269 340.589,173.876" style="fill:none;stroke:rgb(218,43,177);stroke-width:4px;"/>
        <path d="M1017.42,336.843C1015.69,336.627 1015.15,336.558 996.217,341.782C1016.04,344.677 1017.08,345.08 1016.33,346.555C1013.21,352.704 1018.6,348.721 1025.11,346.694C1036.66,355.993 1042.09,341.029 1040.12,338.568C1038,335.916 1019.99,338.486 1018.25,338.733" style="fill:none;stroke:rgb(218,43,177);stroke-width:4px;"/>
        <path d="M1171.3,328.117C1150.48,328.652 1151.06,329.555 1130.69,333.889L1149.68,336.226L1140.26,346.056C1149.15,345.733 1158.03,345.409 1166.92,345.086L1164.21,351.223C1174.81,346.453 1174.55,346.533 1183.16,338.676C1176.08,333.821 1176.38,333.489 1168.12,333.859" style="fill:none;stroke:rgb(218,43,177);stroke-width:4px;"/>
        <path d="M1385.2,317.762C1368.01,318.35 1367.12,316.782 1325.33,317.6C1341.18,321.365 1340.71,321.195 1356.95,324.216C1345.89,331.173 1346.67,331.118 1336.75,339.155C1343.32,337.979 1349.9,336.803 1356.47,335.627L1344.82,343.072C1348.45,343.036 1440.22,342.117 1385.59,323.16" style="fill:none;stroke:rgb(218,43,177);stroke-width:4px;"/>
        <path d="M551.368,277.001C532.632,322.39 536.439,345.737 585.026,335.844C614.264,329.891 602.88,285.964 595.844,279.299C569.134,253.998 555.652,273.992 553.767,276.788" style="fill:none;stroke:rgb(218,43,177);stroke-width:4px;"/>
        <path d="M553.667,275.724C543.504,261.206 540.237,264.937 524.587,272.652C533.647,263.516 537.96,258.328 560.409,269.14C530.724,236.418 507.847,247.436 497.314,258.095C533.528,255.785 533.613,255.368 568.164,267.034C561.509,241.809 565.538,238.884 601.021,218.784C584.604,240.942 584.851,240.545 573.899,265.575C617.135,234.377 640.349,219.767 667.886,235.653C580.947,243.648 586.807,259.355 583.726,264.819C621.071,256.799 622.783,245.55 646.81,261.636C579.87,263.507 581.07,269.744 580.826,269.941" style="fill:none;stroke:rgb(218,43,177);stroke-width:4px;"/>
        <path d="M549.696,291.806C558.366,289.875 557.091,288.635 562.675,285.553C565.836,296.815 558.839,309.098 567.734,301.135C568.906,300.085 568.475,300.019 580.877,286.504L586.96,295.466C587.57,294.629 595.801,283.319 594.993,285.319" style="fill:none;stroke:rgb(218,43,177);stroke-width:4px;"/>
        <path d="M542.843,309.146C543.796,311.725 544.749,314.303 545.702,316.882L560.552,306.611C566.372,314.503 565.704,317.71 570.499,314.859C571.636,314.183 571.374,314.002 582.32,303.286C585.26,314.297 587.081,313.609 587.029,314.587" style="fill:none;stroke:rgb(218,43,177);stroke-width:4px;"/>
        <path d="M554.695,336.305C545.849,339.352 546.215,339.057 537.14,339.92C554.222,339.893 554.593,344.84 569.823,337.802C582.296,341.928 581.813,343.218 595.366,342.796L581.517,336.612C593.166,341.024 604.815,345.436 616.463,349.848C607.015,345.521 606.843,346.352 600.293,338.491" style="fill:none;stroke:rgb(218,43,177);stroke-width:4px;"/>
        <path d="M742.392,224.88C678.637,229.996 678.354,224.556 658.649,209.586C639.609,231.075 638.908,206.132 561.447,95.812C527.231,126.682 492.355,139.16 429.073,80.195C417.147,101.763 408.162,147.589 366.655,130.642C361.884,128.694 355.149,150.405 354.561,152.3C353.604,155.385 353.502,154.748 350.727,154.723" style="fill:none;stroke:rgb(218,43,177);stroke-width:4px;"/>
        <path d="M159.384,198.424C146.294,199.711 131.65,175.559 106.002,140.266C99.516,156.364 96.945,175.601 58.937,177.971C44.345,178.88 51.962,183.321 12.226,184.121" style="fill:none;stroke:rgb(218,43,177);stroke-width:4px;"/>
        <path d="M637.401,309.755C645.164,299.905 636.143,290.319 635.316,287.027L644.26,296.846C652.209,291.041 660.157,285.235 668.106,279.429C660.593,292.58 660.481,292.492 660.867,308.065" style="fill:none;stroke:rgb(218,43,177);stroke-width:4px;"/>
        <path d="M174.857,59.409C187.94,59.409 307.345,59.409 338.373,61.435C327.441,28.755 315.863,16.205 294.932,43.448C291.649,38.886 252.756,-15.146 224.699,41.362C217.182,33.828 180.845,-13.957 157.602,42.855C128.406,31.043 123.826,36.162 101.588,72.705C81.836,70.96 82.199,68.353 63.639,73.695C75.002,73.376 182.306,70.363 205.656,69.34C202.983,68.832 176,63.699 172.547,61.542C159.635,53.472 160.997,50.08 146.062,49.613" style="fill:none;stroke:rgb(218,43,177);stroke-width:4px;"/>
        <path d="M447.831,63.763C493.659,65.309 493.326,62.322 539.375,64.307C577.969,65.97 533.165,31.345 509.411,47.602C474.159,23.214 468.54,18.033 446.775,37.446C429.137,34.735 425.404,33.607 419.307,50.687C403.474,52.344 402.657,50.374 391.154,60.894C423.683,55.032 423.298,58.861 456.586,61.79" style="fill:none;stroke:rgb(218,43,177);stroke-width:4px;"/>
        <path d="M157.11,110.466C172.24,102.799 172.577,104.125 182.213,97.569C151.215,106.485 144.138,112.626 141.276,127C146.88,119.87 146.592,119.014 155.725,118.991L161.856,113.279C169.497,118.414 169.849,116.879 178.166,112.297C187.069,107.393 212.109,105.864 215.105,105.681C191.146,110.153 193.996,119.026 169.617,121.425C155.971,122.768 152.592,146.832 149.594,152.786C161.416,137.537 164.668,141.245 177.106,125.9C183.531,127.531 189.956,129.162 196.381,130.793C168.296,118.907 166.853,114.786 147.592,117.745" style="fill:none;stroke:rgb(218,43,177);stroke-width:4px;"/>
        <path d="M917.091,224.213C1050.34,220.307 1049.71,221.59 1183.3,226.7C1205.13,227.535 1205,226.037 1456.31,219.238" style="fill:none;stroke:rgb(218,43,177);stroke-width:4px;"/>
        <path d="M1609.68,76.318C1571.17,77.806 1570.54,124.405 1560.89,144.017C1547.69,170.854 1533.75,177.03 1503.42,196.968C1495.04,257.543 1453.96,255.258 1478.58,295.38C1479.06,296.164 1555.91,340.13 1575.25,294.979C1591.94,256.006 1586.73,251.38 1632.33,215.504C1663.06,191.331 1656.08,185.437 1683.46,157.653" style="fill:none;stroke:rgb(218,43,177);stroke-width:4px;"/>
        <path d="M1559.67,320.3C1561.33,323.333 1620.74,354.932 1648.79,297.519C1689.61,213.98 1773.43,297.653 1811.05,190.927C1827.55,144.136 1815.62,103.612 1813.49,96.352C1799.89,50.141 1743.37,42.92 1735.38,40.509" style="fill:none;stroke:rgb(218,43,177);stroke-width:4px;"/>
        <path d="M1621.84,75.579C1649.9,35.732 1676.75,37.587 1677.97,37.283" style="fill:none;stroke:rgb(218,43,177);stroke-width:4px;"/>
        <path d="M1641.16,80.483C1614.42,108.912 1608.78,126.197 1607.28,130.811C1630.23,124.289 1649.32,121.544 1658.13,115.984C1659.82,114.921 1679.66,91.528 1644.04,86.243" style="fill:none;stroke:rgb(218,43,177);stroke-width:4px;"/>
        <path d="M1628.36,101.905C1642.02,106.943 1637.35,110.779 1639.79,125.088" style="fill:none;stroke:rgb(218,43,177);stroke-width:4px;"/>
        <path d="M1499.98,259.105C1512.59,253.982 1514.69,255.159 1520.45,267.453C1522.7,272.248 1513.48,282.459 1513.48,278.348" style="fill:none;stroke:rgb(218,43,177);stroke-width:4px;"/>
        <path d="M1730.91,39.558C1747.82,33.786 1784.63,10.096 1826.09,37.644C1872.31,68.353 1874.86,93.969 1875.49,100.322" style="fill:none;stroke:rgb(218,43,177);stroke-width:4px;"/>
        <path d="M1748.92,259.448C1747.43,274.626 1749.08,287.135 1809.96,280.267C1828.34,303.54 1828.95,334.156 1857.62,335.998" style="fill:none;stroke:rgb(218,43,177);stroke-width:4px;"/>
        <path d="M1655.15,199.96C1671.28,205.317 1670.57,205.072 1671.29,205.336C1669.23,200.57 1667.17,195.805 1665.12,191.039" style="fill:none;stroke:rgb(218,43,177);stroke-width:4px;"/>
        <path d="M1667.17,183.022L1678.46,186.098L1675.51,176.96" style="fill:none;stroke:rgb(218,43,177);stroke-width:4px;"/>
        <path d="M1599.51,248.459C1607.65,252.113 1607.2,251.493 1622.12,256.365C1613.1,239.755 1613.14,239.767 1612.63,239" style="fill:none;stroke:rgb(218,43,177);stroke-width:4px;"/>
        <path d="M1616.76,235.515C1618.33,235.982 1618.07,235.5 1636.82,239.642C1635.06,229.613 1635.65,229.895 1632.75,220.567" style="fill:none;stroke:rgb(218,43,177);stroke-width:4px;"/>
        <path d="M1587.1,274.336C1590.45,275.959 1593.81,277.581 1597.16,279.204C1583.42,282.185 1583.98,282.345 1582.83,281.963" style="fill:none;stroke:rgb(218,43,177);stroke-width:4px;"/>
        <path d="M1557.53,181.758C1596.99,147.587 1582.91,206.452 1558,224.266C1556.4,225.406 1553.66,226.023 1540.7,243.721" style="fill:none;stroke:rgb(218,43,177);stroke-width:4px;"/>
        <path d="M1618.56,114.117C1631.35,121.597 1624.46,126.132 1611.7,132.979C1611.7,132.976 1609.16,128.239 1622.18,119.848C1618.71,122.457 1617.23,120.819 1614.16,128.107" style="fill:none;stroke:rgb(218,43,177);stroke-width:4px;"/>
        <path d="M1876.81,110.094C1884.2,119.35 1887.8,117.919 1897.48,123.718" style="fill:none;stroke:rgb(218,43,177);stroke-width:4px;"/>
        <path d="M1836.13,102.331C1870.93,143.538 1845.49,190.739 1841.87,197.449" style="fill:none;stroke:rgb(218,43,177);stroke-width:4px;"/>
        <path d="M1873.05,146.664C1883.09,183.749 1885.24,196.415 1873.04,226.02" style="fill:none;stroke:rgb(218,43,177);stroke-width:4px;"/>
        <path d="M1894.08,180.606C1896.38,194.755 1895.55,194.177 1894.91,209.112" style="fill:none;stroke:rgb(218,43,177);stroke-width:4px;"/>
        <path d="M1702.37,62.776C1716.71,61.806 1717.49,60.939 1727.03,71.763" style="fill:none;stroke:rgb(218,43,177);stroke-width:4px;"/>
        <path d="M1767.69,189.45C1774.82,182.966 1775.43,183.733 1777.3,179.306C1778.45,176.568 1780.5,144.652 1778.78,151.148" style="fill:none;stroke:rgb(218,43,177);stroke-width:4px;"/>
        <path d="M1495.35,116.829C1456.44,155.299 1430.09,161.607 1457.63,174.065C1461.69,175.903 1457.04,162.11 1509.34,153.293" style="fill:none;stroke:rgb(218,43,177);stroke-width:4px;"/>
        <path d="M1462.85,174.709C1454.38,197.7 1491.78,178.553 1496.31,178.231C1516.36,176.806 1531.99,177.17 1548.54,164.288" style="fill:none;stroke:rgb(218,43,177);stroke-width:4px;"/>
        <path d="M1520.65,113.993C1513.33,118.494 1517.4,121.505 1507.45,133.164C1524.47,129.764 1528.73,133.812 1529.66,123.901C1530.42,115.697 1523.73,117.274 1522.06,117.272" style="fill:none;stroke:rgb(218,43,177);stroke-width:4px;"/>
        <path d="M1500.91,119.765C1527.16,87.674 1557.82,113.058 1554.67,133.383" style="fill:none;stroke:rgb(218,43,177);stroke-width:4px;"/>
        <path d="M1536.97,110.844C1554.16,97.622 1561.96,86.241 1573.58,105.645" style="fill:none;stroke:rgb(218,43,177);stroke-width:4px;"/>
        <path d="M1463.07,177.864C1473.67,175.895 1475.6,180.222 1507,157.901" style="fill:none;stroke:rgb(218,43,177);stroke-width:4px;"/>
        <path d="M1466.13,178.485C1468.31,170.311 1470.34,170.64 1479.49,165.493" style="fill:none;stroke:rgb(218,43,177);stroke-width:4px;"/>
        <path d="M1838.9,331.035C1845.13,336.777 1844.93,336.222 1851.23,341.096" style="fill:none;stroke:rgb(218,43,177);stroke-width:4px;"/>
        <path d="M412.714,121.874C413.77,121.108 413.34,120.866 422.568,108.877C425.783,114.534 428.998,120.192 432.213,125.85C436.073,118.691 440.864,106.952 441.547,105.279L448.611,105.716C446.653,104.333 440.594,100.056 427.157,84.792C426.046,103.868 427.44,104.179 416.85,120.573C423.122,107.166 423.227,107.674 426.095,92.972" style="fill:none;stroke:rgb(218,43,177);stroke-width:4px;"/>
        <path d="M853.309,98.786C857.823,99.059 969.992,100.459 972.993,99.743C977.406,98.69 963.402,46.542 937.739,78.198C898.664,15.717 888.965,67.232 888.922,71.177C877.661,62.534 878.985,60.357 864.835,57.956C858.127,56.817 857.15,80.644 857.065,82.718C855.152,82.814 833.172,83.914 833.168,84.205C833.163,84.651 836.952,85.254 837.239,86.261C841.208,100.211 831.759,94.016 817.622,97.399C838.373,97.249 859.125,97.099 879.877,96.948" style="fill:none;stroke:rgb(218,43,177);stroke-width:4px;"/>
        <path d="M1517.68,125.295C1522.32,129.974 1520.43,131.144 1514.48,134.527L1519.27,128.946" style="fill:none;stroke:rgb(218,43,177);stroke-width:4px;"/>
        <path d="M1231.2,76.914C1183.73,112.564 1280.36,128.337 1269.8,94.024C1261.76,67.886 1203.94,71.919 1224.97,109.775C1238.03,133.293 1307.8,106.054 1257.56,82.704C1227.25,68.616 1180.2,117.659 1249.92,129.767C1276.7,134.417 1305.4,66.875 1249.63,72.873C1219.62,76.1 1217.69,135.654 1260.87,114.424" style="fill:none;stroke:rgb(218,43,177);stroke-width:4px;"/>
        <path d="M1237.55,147.007C1209.53,153.892 1206.55,150.312 1193.34,124.577L1203.56,129.142C1190.47,116.649 1189.41,118.439 1176.15,105.916C1181.12,105.775 1186.08,105.635 1191.04,105.494C1178.75,92.401 1178.49,93.552 1163.86,82.184L1163.09,73.012C1170.11,77.362 1177.14,81.711 1184.16,86.061C1180.59,73.282 1178.14,73.382 1182.8,61.493C1191.82,70.906 1199.8,77.202 1201.38,78.449C1210.39,65.869 1209.43,63.482 1224.84,62.369C1226.04,58.652 1227.19,59.212 1244.67,17.734C1246.89,12.458 1246.86,17.902 1247.87,18.461" style="fill:none;stroke:rgb(218,43,177);stroke-width:4px;"/>
        <path d="M1248.6,150.067C1287.29,162.035 1302.18,148.418 1331.59,122.772L1315.18,124.305C1318.09,122.893 1344.12,110.256 1346.67,98.981C1349.18,87.942 1322.37,91.009 1320.18,91.26C1334.29,87.15 1332.74,84.855 1337.21,79.205C1306.35,76.293 1306.31,76.265 1304.1,74.764C1298.2,70.767 1301.22,69.628 1306.19,64.713C1293.92,60.251 1283.12,60.659 1293.63,45.909C1304.37,30.832 1306.86,17.892 1309.6,16.948" style="fill:none;stroke:rgb(218,43,177);stroke-width:4px;"/>
        <path d="M1238.76,27.116C1242.63,13.257 1241.67,13.435 1242.86,-0.746" style="fill:none;stroke:rgb(218,43,177);stroke-width:4px;"/>
        <path d="M1228.29,230.133C1229.97,231.253 1229.73,230.858 1238.46,232.464C1214.73,242.539 1216.55,246.124 1218.11,247.409C1234.96,261.301 1188.17,263.574 1196.73,277.288C1203.53,288.197 1227.88,298.982 1230.9,300.317" style="fill:none;stroke:rgb(218,43,177);stroke-width:4px;"/>
        <path d="M1233.42,231.783C1243.49,237.601 1242.98,237.393 1253.62,243.117C1243.58,253.843 1243.95,253.591 1232.62,263.477C1273.66,275.878 1274.57,270.414 1315.56,284.168C1297.87,302.581 1330.26,311.423 1313.13,329.686C1297.8,346.033 1270.91,353.422 1263.05,352.688" style="fill:none;stroke:rgb(218,43,177);stroke-width:4px;"/>
        <path d="M1229.43,308.643C1231.31,323.755 1184.03,351.587 1181.58,353.458" style="fill:none;stroke:rgb(218,43,177);stroke-width:4px;"/>
        <path d="M1222.06,247.425C1225.61,261 1234.26,265.291 1234.25,264.723" style="fill:none;stroke:rgb(218,43,177);stroke-width:4px;"/>
        <path d="M1212.95,263.48C1220.7,276.475 1229.59,281.413 1237.64,286.325C1238.28,286.709 1241.53,291.759 1243.02,291.682" style="fill:none;stroke:rgb(218,43,177);stroke-width:4px;"/>
        <path d="M1234.99,269.038C1241.46,284.305 1241.08,283.847 1244.05,299.725" style="fill:none;stroke:rgb(218,43,177);stroke-width:4px;"/>
        <path d="M1229.06,301.603C1238.98,308.204 1239.76,306.19 1249.36,313.839L1245.41,301.231C1251,332.967 1248.72,337.452 1247.3,340.237" style="fill:none;stroke:rgb(218,43,177);stroke-width:4px;"/>
        <path d="M1225.05,323.726C1235.66,327.263 1235.03,327.915 1245.24,332.133" style="fill:none;stroke:rgb(218,43,177);stroke-width:4px;"/>
        <path d="M1245.38,241.064C1234.21,233.1 1218.4,233.961 1231.05,229.411" style="fill:none;stroke:rgb(218,43,177);stroke-width:4px;"/>
        <path d="M1255.14,274.677C1268.83,319.488 1262.66,307.321 1262.66,354.097" style="fill:none;stroke:rgb(218,43,177);stroke-width:4px;"/>
        <path d="M1274.78,278.313C1298.31,314.31 1289.47,326.331 1293.02,341.029" style="fill:none;stroke:rgb(218,43,177);stroke-width:4px;"/>
        <path d="M1362.55,278.88C1365.4,278.855 1368.3,262.963 1362.32,247.217L1371.49,262.43C1374.58,258.862 1377.67,255.293 1380.76,251.725C1381.93,258.144 1383.09,264.562 1384.26,270.981L1393.62,258.938C1394.05,267.287 1394.49,275.636 1394.91,283.985" style="fill:none;stroke:rgb(218,43,177);stroke-width:4px;"/>
        <path d="M1393.86,32.037C1411.49,29.524 1411.24,31.294 1428.49,29.145C1422,33.416 1422.01,37.495 1405.44,35.657" style="fill:none;stroke:rgb(218,43,177);stroke-width:4px;"/>
        <path d="M1168.53,24.84C1164.42,24.277 1160.32,23.713 1156.21,23.15C1158.43,24.734 1186.31,44.658 1189.53,30.142C1190.28,26.78 1185.58,21.849 1182.44,22.88" style="fill:none;stroke:rgb(218,43,177);stroke-width:4px;"/>
        <path d="M728.679,174.983C724.632,184.929 749.141,220.623 754.64,233.935C734.76,230.665 727.354,241.779 722.252,239.593C705.811,232.547 708.003,242.712 705.019,260.471C710.063,254.393 711.574,250.843 715.929,257.401C718.886,261.852 725.255,251.46 738.324,249.037C753.408,246.24 759.346,232.278 762.118,247.503C764.495,232.709 765.047,233.422 768.534,218.599C756.311,265.869 755.342,266.772 751.252,267.442C730.882,270.779 711.099,259.061 718.179,292.683C720.359,288.274 722.539,283.865 724.718,279.456C726.632,288.627 726.012,289.016 733.464,295.228C733.539,286.697 733.856,287.349 733.199,279.384C760.184,281.96 761.207,279.114 777.078,256.574C785.971,298.582 834.07,290.365 874.67,295.617" style="fill:none;stroke:rgb(218,43,177);stroke-width:4px;"/>
        <path d="M649.485,165.544C655.863,207.196 694.151,177.424 727.441,186.006" style="fill:none;stroke:rgb(218,43,177);stroke-width:4px;"/>
        <path d="M709.237,165.387C694.891,183.743 693.654,185.122 692.194,186.75" style="fill:none;stroke:rgb(218,43,177);stroke-width:4px;"/>
        <path d="M688.417,180.899C679.202,187.414 680.189,187.601 672.406,195.293" style="fill:none;stroke:rgb(218,43,177);stroke-width:4px;"/>
        <path d="M747.762,185.437C746.643,186.819 738.073,197.404 741.14,206.658" style="fill:none;stroke:rgb(218,43,177);stroke-width:4px;"/>
        <path d="M767.388,196.471C762.14,200.581 757.015,220.135 756.446,222.306" style="fill:none;stroke:rgb(218,43,177);stroke-width:4px;"/>
        <path d="M786.662,228.461C784.183,234.595 780.718,273.782 783.253,272.913" style="fill:none;stroke:rgb(218,43,177);stroke-width:4px;"/>
        <path d="M806.391,250.785C803.93,278.324 791.706,286.891 817.887,296.767" style="fill:none;stroke:rgb(218,43,177);stroke-width:4px;"/>
        <path d="M827.206,258.921C825.2,296.979 840.217,298.23 843.635,298.515" style="fill:none;stroke:rgb(218,43,177);stroke-width:4px;"/>
        <path d="M912.131,272.18C912.586,291 912.756,294.212 928.229,296.203" style="fill:none;stroke:rgb(218,43,177);stroke-width:4px;"/>
        <path d="M940.881,272.224C944.188,293.254 944.851,295.242 964.963,301.717" style="fill:none;stroke:rgb(218,43,177);stroke-width:4px;"/>
        <path d="M967.775,275.155C974.657,284.636 974.946,285.549 986.391,285.054" style="fill:none;stroke:rgb(218,43,177);stroke-width:4px;"/>
        <path d="M1258.56,55.748C1257.75,54.535 1259.48,54.642 1263.59,38.229" style="fill:none;stroke:rgb(218,43,177);stroke-width:4px;"/>
        <path d="M1692.37,37.777C1696.3,37.244 1733.11,32.252 1741.9,38.712" style="fill:none;stroke:rgb(218,43,177);stroke-width:4px;"/>
        <path d="M1729.89,342.479C1725.92,328.593 1725.51,329.146 1719.63,315.686C1724.13,322.186 1728.63,328.687 1733.13,335.187C1740.68,319.904 1740.41,320.473 1748.81,305.641C1748.28,321.72 1748.25,321.169 1748.89,337.161C1755.36,331.431 1761.83,325.701 1768.3,319.971C1765.57,331.032 1765.78,330.641 1762.59,341.931" style="fill:none;stroke:rgb(218,43,177);stroke-width:4px;"/>
        <path d="M1459.51,226.613C1462.62,224.719 1462.68,226.238 1466.55,225.117C1467.64,224.801 1468.07,224.675 1465.27,211.002L1474.34,220.838L1479.67,210.208L1480.09,223.658L1486.79,214.485L1488.18,223.103" style="fill:none;stroke:rgb(218,43,177);stroke-width:4px;"/>
        <path d="M1131.1,305.027C1130.59,296.162 1129.96,296.681 1127.7,288.448L1139.27,300.871L1147.11,292.214L1145.48,307.192C1153.36,299.304 1152.38,298.986 1161.22,293.12C1160.61,300.65 1159.89,300.274 1160.29,308.157" style="fill:none;stroke:rgb(218,43,177);stroke-width:4px;"/>
        <path d="M1003.69,241.715C1002.55,239.017 1001.42,236.319 1000.28,233.621L1012.3,243.682C1016.67,241.033 1021.05,238.384 1025.42,235.735L1021.28,243.801L1030.76,236.868L1031.25,245.884" style="fill:none;stroke:rgb(218,43,177);stroke-width:4px;"/>
        <path d="M522.008,212.896C520.469,197.745 522.06,197.69 515.49,183.738C520.406,190.302 522.245,189.017 526.541,202.403C536.267,190.035 536.047,190.254 550.189,183.898C545.749,190.441 541.309,196.983 536.869,203.526L553.881,189.029C536.644,211.753 536.456,211.657 535.948,213.165" style="fill:none;stroke:rgb(218,43,177);stroke-width:4px;"/>
        <path d="M103.73,341.992C123.179,335.046 122.982,336.202 142.106,329.909C139.831,331.168 125.229,339.248 113.607,345.548C125.374,341.022 137.141,336.495 148.908,331.968C143.441,336.432 137.975,340.896 132.509,345.36L143.434,342.474L136.973,348.725L151.866,342.971L149.213,347.579C154.842,346.321 160.47,345.064 166.099,343.806L161.276,347.553C170.346,345.008 179.417,342.464 188.488,339.92L177.55,347.403C199.075,341.057 199.324,342.915 219.155,331.771C212.593,338.198 206.031,344.625 199.47,351.052C207.105,346.404 214.74,341.756 222.375,337.108C216.448,342.226 210.521,347.344 204.593,352.462C206.995,351.183 219.313,344.625 233.619,334.728C226.681,340.159 219.742,345.59 212.804,351.022C237.21,338.734 236.932,338.788 255.28,332.121L226.622,351.839C249.023,341.938 248.168,340.384 272.013,335.108L255.507,348.237C288.27,335.119 287.931,335.251 288.276,335.123C278.285,342.888 268.294,350.653 258.302,358.419C260.381,357.454 260.418,357.767 284.508,346.856L280.062,352.367C315.385,344.359 315.637,351.623 351.164,346.789L344.819,351.704C354.837,346.812 361.871,348.326 378.432,344.795L369.494,350.352C384.786,347.942 384.804,347.745 385.916,348.034" style="fill:none;stroke:rgb(218,43,177);stroke-width:4px;"/>
        <path d="M733.596,340.222C738.952,338.573 738.645,339.137 743.72,337.611L735.099,342.799L755.232,337.661L750.46,342.626L765.244,339.446L758.741,345.355L776.014,341.577L772.116,346.331L785.019,344.677L776.598,350.248L782.404,347.828L776.775,355.006C801.613,343.224 801.515,344.222 826.442,333.345C817.687,339.775 803.362,349.201 801.328,350.54C822.027,336.344 822.087,337.007 845.183,327.615C834.245,335.24 815.613,347.381 813.022,349.069C827.001,343.326 847.532,333.911 850.511,332.544C839.142,340.213 827.773,347.881 816.404,355.549C828.865,351.328 828.265,351.373 857.527,340.47L845.519,348.115L856.94,343.433L850.645,351.905C860.411,347.796 859.907,348.272 870.649,344.988L866.606,350.852L872.565,347.996L867.735,354.37C871.945,352.522 876.155,350.675 880.365,348.827L877.326,353.432C889.188,346.752 890.005,349.394 901.312,341.738L894.462,351.313L908.569,347.897L903.582,353.46C906.293,353.373 908.195,350.519 907.018,353.35C906.593,354.373 930.466,352.629 932.5,352.481L920.745,356.264L930.22,347.556C922.264,348.713 920.435,351.581 910.858,339.07C919.282,346.86 918.679,348.483 922.277,347.532C922.925,347.36 918.405,344.117 927.036,340.628L915.303,352.411L943.496,337.854L936.701,352.38C947.001,347.33 957.301,342.28 967.601,337.23L966.607,346.257L968.9,344.769C966.776,345.789 942.271,357.553 940.696,353.249C940.164,351.796 945.357,352.581 944.825,351.128" style="fill:none;stroke:rgb(218,43,177);stroke-width:4px;"/>
        <path d="M1655.61,46.325C1554.28,47.265 1547.21,54.635 1539.24,44.682C1534.04,38.178 1533.64,32.938 1513.84,29.38C1532.76,27.043 1532.37,27.837 1550.34,33.77C1567.17,19.812 1569.92,17.604 1574.19,24.001C1581.46,34.871 1584.6,27.556 1585.03,26.947C1606.14,-3.012 1616.26,15.312 1622.7,22.099C1629.34,12.966 1647.63,-22.277 1672.99,27.3C1689.29,14.578 1694.59,1.386 1703.56,20.22C1704.2,21.552 1703.13,21.892 1710.37,37.352" style="fill:none;stroke:rgb(218,43,177);stroke-width:4px;"/>
        <path d="M1112.29,70.257C1105.09,83.499 1107.65,103.564 1134.65,112.234C1125.93,112.148 1079.59,111.69 1026.12,101.608C1024.18,101.244 1016.73,96.959 1016.58,95.806C1014.94,83.356 1021.29,86.958 1033.53,88.144C1031.3,86.709 1020.84,79.994 1021.84,57.075C1021.9,55.734 1033.12,53.453 1040.5,56.728C1042.32,57.538 1043.64,58.125 1058.97,73.483C1054.35,46.212 1066.93,51.415 1068.1,52.795C1074.25,60.049 1064.6,68.846 1094.7,83.391C1090.51,73.352 1088.44,71.999 1096.45,64.221C1099.64,73.504 1100.15,73.064 1113.57,93.049" style="fill:none;stroke:rgb(218,43,177);stroke-width:4px;"/>
        <path d="M1144.81,123.963C1147.02,124.483 1177,131.522 1173.24,125.252C1172.82,124.558 1138.7,119.046 1138.58,119.501C1137.68,123.071 1146.11,121.923 1146.78,121.83" style="fill:none;stroke:rgb(218,43,177);stroke-width:4px;"/>
        <path d="M1135.13,74.733C1144.92,63.125 1147.71,67.631 1160.12,59.294C1144.99,56.924 1144.79,55.194 1131.03,61.232C1120.09,40.843 1115.46,55.672 1115.83,56.881C1116.25,58.254 1121.02,60.951 1121.81,62.223C1124.49,66.525 1123,66.783 1122.2,79.642C1128.73,74.534 1128.68,74.772 1136.2,71.812" style="fill:none;stroke:rgb(218,43,177);stroke-width:4px;"/>
        <path d="M1357.06,141.592C1358.07,141.536 1412.85,130.14 1422.92,107.261C1430.9,89.132 1411.41,88.972 1390.95,86.759C1401.94,83.249 1401.92,83.715 1413.43,85.426C1417.21,69.466 1431.9,62.405 1435.45,85.538C1460.14,51.662 1467.01,60.141 1468.5,62.972C1471.63,68.904 1476.56,91.4 1468.74,104.924" style="fill:none;stroke:rgb(218,43,177);stroke-width:4px;"/>
        <path d="M1396.95,144.831C1401.12,144.934 1404.07,145.008 1448.95,142.345" style="fill:none;stroke:rgb(218,43,177);stroke-width:4px;"/>
        <path d="M1431.23,122.762C1446.07,112.39 1450.69,104.949 1459.57,120.635C1469.25,111.441 1474.31,108.689 1478.97,121.699" style="fill:none;stroke:rgb(218,43,177);stroke-width:4px;"/>
        <path d="M1437.33,144.532C1451.76,141.96 1451.52,141.278 1466.23,143.203" style="fill:none;stroke:rgb(218,43,177);stroke-width:4px;"/>
        <path d="M1429.85,127.808C1426.47,130.317 1426.98,130.225 1423.98,133.523" style="fill:none;stroke:rgb(218,43,177);stroke-width:4px;"/>
        <path d="M1471.03,107.367C1475.81,99.469 1502.94,76.303 1506.38,99.118C1511.1,98.696 1515.82,98.273 1520.54,97.851C1502.3,102.574 1495.3,103.773 1487.98,120.206" style="fill:none;stroke:rgb(218,43,177);stroke-width:4px;"/>
        <path d="M1331.99,31.478C1334.92,31.819 1365.47,35.384 1368.45,36.867C1382.83,44.016 1368.61,58.826 1367.32,60.173C1369.47,59.895 1398.93,56.102 1380.28,36.322C1389.38,20.225 1375.82,15.068 1369,24.874C1365.78,20.736 1358.65,7.861 1354.99,26.629C1348.36,23.19 1347.31,21.733 1342.36,27.56C1336.12,27.347 1336.5,27.695 1330.51,27.538C1331.38,27.73 1339.45,29.517 1341.39,29.729" style="fill:none;stroke:rgb(218,43,177);stroke-width:4px;"/>
        <path d="M1103.98,31.828C1106.34,30.808 1106.95,30.541 1135.91,29.147C1132.56,10.144 1122.58,15.407 1120.38,20.365C1097.06,6.544 1084.84,14.596 1091.6,25.464C1083.36,25.165 1073.68,21.684 1072.06,41.918C1080.89,36.737 1088.82,31.191 1103.95,31.861" style="fill:none;stroke:rgb(218,43,177);stroke-width:4px;"/>
        <path d="M1120.45,143.42C1109.74,141.233 1108.67,130.135 1102.74,139.325C1101.28,141.576 1101.12,145.716 1134.63,149.541C1127.97,144.77 1118.28,145.384 1126.25,142.515" style="fill:none;stroke:rgb(218,43,177);stroke-width:4px;"/>
        <path d="M1366.69,143.517C1351.63,154.624 1388.58,177.906 1380.31,156.412C1379.5,154.311 1373.5,150.792 1372.53,149.294C1368.3,142.749 1371.74,142.874 1375.27,135.609" style="fill:none;stroke:rgb(218,43,177);stroke-width:4px;"/>
        <path d="M1341.22,42.596C1338.68,50.147 1342.21,51.197 1348.88,47.827C1356.51,43.966 1343.34,42.04 1342.67,41.941" style="fill:none;stroke:rgb(218,43,177);stroke-width:4px;"/>
        <path d="M1291.3,114.954C1275.85,124.821 1291.74,124.819 1292,124.62C1297.9,120.172 1297.54,115.776 1290.57,116.918" style="fill:none;stroke:rgb(218,43,177);stroke-width:4px;"/>
        <path d="M1207.01,22.383C1206.8,23.203 1202.94,37.935 1210.9,32.23C1218.49,26.8 1207.41,24.427 1206.71,24.277" style="fill:none;stroke:rgb(218,43,177);stroke-width:4px;"/>
    </g>
</svg>
