<?xml version="1.0" encoding="UTF-8" standalone="no"?>
<!DOCTYPE svg PUBLIC "-//W3C//DTD SVG 1.1//EN" "http://www.w3.org/Graphics/SVG/1.1/DTD/svg11.dtd">
<svg width="100%" height="100%" viewBox="0 0 1920 360" version="1.1" xmlns="http://www.w3.org/2000/svg" xmlns:xlink="http://www.w3.org/1999/xlink" xml:space="preserve" xmlns:serif="http://www.serif.com/" style="fill-rule:evenodd;clip-rule:evenodd;stroke-linejoin:round;stroke-miterlimit:2;">
    <g transform="matrix(4.82024,0,0,4.82024,691.804,52.1733)">
        <g transform="matrix(1,0,0,1,-12.4475,0)">
            <path d="M21.449,0.34C22.349,0.24 23.049,0.64 23.649,1.24C24.449,2.04 25.349,2.54 26.449,3.04C29.349,4.34 31.45,6.54 32.85,9.24C34.05,11.44 34.55,13.74 34.85,16.24C35.05,17.54 35.649,20.14 35.649,20.14C35.649,20.14 37.421,21.386 38.35,21.94C41.625,23.894 47.872,24.288 48.024,35.871C48.175,47.456 38.381,48.731 38.35,48.74C34.95,47.44 32.15,45.44 29.85,42.64C29.65,42.44 29.449,42.14 29.149,41.94C28.749,42.74 28.35,43.64 28.05,44.44C27.95,44.64 27.85,44.84 27.75,45.14C26.85,46.94 25.549,47.54 23.649,47.14C22.95,46.94 22.25,46.84 21.55,46.64C19.85,46.24 19.05,46.64 18.55,48.34C18.45,48.539 18.55,48.84 18.25,48.94C18.05,48.94 17.85,48.74 17.75,48.54C16.95,47.54 16.85,46.34 17.35,45.34C17.95,44.34 19.15,43.84 20.35,43.94C21.45,44.04 22.549,44.34 23.649,44.44C24.349,44.54 24.75,44.24 25.05,43.64C25.65,42.34 26.25,40.94 26.75,39.54C26.85,39.24 26.849,39.04 26.649,38.74L23.649,34.64C23.649,34.64 21.349,31.14 20.449,29.34C20.349,29.04 20.15,28.84 20.05,28.54C19.15,26.94 18.45,26.64 16.75,26.94C14.75,27.24 12.85,27.74 10.85,28.04C7.35,28.64 4.15,26.54 3.35,23.34C3.15,22.54 3.249,21.74 3.449,20.94C3.549,20.64 3.75,20.34 4.05,20.34C4.35,20.24 4.65,20.44 4.75,20.74C5.15,21.34 5.449,21.94 5.949,22.64C6.249,21.94 6.45,21.34 6.75,20.84C6.85,20.54 6.95,20.14 7.35,20.14C7.749,20.14 7.949,20.44 8.149,20.74C8.449,21.14 8.65,21.54 8.85,21.94C9.05,22.24 9.15,22.14 9.25,21.94C9.45,21.44 9.65,20.94 9.85,20.34C10.15,19.64 10.65,19.541 11.149,20.14C11.549,20.64 11.85,21.14 12.25,21.64C12.65,21.041 12.849,20.441 13.049,19.842L13.05,19.84C13.45,18.94 13.85,18.941 14.35,19.64C14.949,20.34 14.95,20.34 15.75,19.84C16.45,19.34 17.249,18.84 17.949,18.34C19.749,17.14 21.75,16.64 23.75,16.34C24.55,16.24 25.45,16.14 26.149,15.64C26.749,15.24 27.25,14.64 27.35,13.84C27.35,13.44 27.249,13.14 26.949,12.94C26.649,12.74 26.349,12.94 26.149,13.04C25.75,13.34 25.35,13.54 24.85,13.84C23.05,14.94 21.25,15.14 19.35,14.44C18.35,14.04 17.35,13.64 16.35,13.44C15.45,13.24 14.95,13.44 14.55,14.24C14.35,14.54 14.25,14.84 14.05,15.14C13.75,15.54 13.35,15.54 13.05,15.04C12.75,14.54 12.55,14.041 12.35,13.541L12.35,13.54C12.25,13.24 12.049,13.24 11.949,13.54C11.749,13.94 11.45,14.24 11.25,14.64C11.05,14.94 10.849,15.34 10.449,15.24C10.05,15.14 9.95,14.74 9.85,14.44C9.65,14.04 9.55,13.64 9.35,13.24C9.25,12.84 9.05,12.84 8.85,13.14C8.55,13.54 8.35,13.94 8.05,14.24C7.55,14.84 7.05,14.74 6.85,14.04C6.65,13.34 6.349,12.64 6.149,11.94C5.85,12.14 5.75,12.44 5.55,12.64L5.549,12.641C5.349,12.941 5.149,13.24 4.85,13.54C4.45,13.84 4.05,13.84 3.85,13.34C3.65,13.04 3.65,12.64 3.55,12.34C3.45,11.74 3.249,11.14 2.949,10.54C2.45,9.54 2.75,8.44 3.149,7.44C4.149,4.54 6.95,2.64 10.05,2.64C12.25,2.64 14.35,2.54 16.55,2.64C17.85,2.64 18.85,2.24 19.649,1.34C20.149,0.84 20.749,0.44 21.449,0.34ZM21.648,2.94C20.82,2.94 20.148,3.612 20.148,4.44C20.148,5.269 20.82,5.94 21.648,5.94C22.477,5.94 23.148,5.269 23.148,4.44C23.148,3.612 22.477,2.94 21.648,2.94Z" style="fill-rule:nonzero;"/>
        </g>
        <g transform="matrix(0.290456,0,0,0.0654594,-236.36,15.608)">
            <path d="M959.064,220.595L959.064,80.355L973.122,80.355C975.042,80.355 976.691,83.423 978.068,89.558C979.445,95.694 980.134,102.998 980.134,111.471L980.134,119.359C980.134,128.465 979.55,135.623 978.381,140.834C977.212,146.044 975.459,149.258 973.122,150.475C975.459,150.475 977.212,153.604 978.381,159.861C979.55,166.118 980.134,173.361 980.134,181.591L980.134,189.479C980.134,197.903 979.44,205.195 978.052,211.355C976.663,217.515 975.02,220.595 973.122,220.595L959.064,220.595ZM966.076,142.733L969.599,142.733C970.554,142.733 971.379,141.187 972.076,138.094C972.773,135.002 973.122,131.338 973.122,127.102L973.122,111.471C973.122,107.234 972.773,103.594 972.076,100.551C971.379,97.508 970.554,95.986 969.599,95.986L966.076,95.986L966.076,142.733ZM966.076,204.964L969.599,204.964C970.554,204.964 971.379,203.43 972.076,200.363C972.773,197.295 973.122,193.667 973.122,189.479L973.122,173.848C973.122,163.428 971.947,158.217 969.599,158.217L966.076,158.217L966.076,204.964Z" style="fill-rule:nonzero;"/>
        </g>
        <g transform="matrix(0.290456,0,0,0.0654594,-236.36,15.608)">
            <path d="M992.895,220.595L985.882,220.595L985.882,111.471L992.895,111.471L992.895,142.733C993.169,132.312 993.893,124.497 995.068,119.286C996.242,114.076 997.866,111.471 999.94,111.471L1003.43,111.471L1003.43,142.733L996.417,142.733C995.452,142.733 994.623,144.254 993.932,147.298C993.24,150.341 992.895,153.981 992.895,158.217L992.895,220.595Z" style="fill-rule:nonzero;"/>
        </g>
        <g transform="matrix(0.290456,0,0,0.0654594,-236.36,15.608)">
            <path d="M1012.7,111.471L1019.75,111.471C1021.67,111.471 1023.32,114.551 1024.69,120.711C1026.07,126.87 1026.76,134.211 1026.76,142.733L1026.76,189.479C1026.76,197.903 1026.07,205.195 1024.69,211.355C1023.32,217.515 1021.67,220.595 1019.75,220.595L1012.7,220.595C1010.78,220.595 1009.13,217.54 1007.75,211.428C1006.38,205.317 1005.69,198.001 1005.69,189.479L1005.69,142.733C1005.69,134.114 1006.38,126.749 1007.76,120.638C1009.14,114.526 1010.79,111.471 1012.7,111.471ZM1012.7,142.733L1012.7,189.479C1012.7,193.667 1013.04,197.295 1013.73,200.363C1014.42,203.43 1015.25,204.964 1016.22,204.964C1017.2,204.964 1018.03,203.43 1018.72,200.363C1019.4,197.295 1019.75,193.667 1019.75,189.479L1019.75,142.733C1019.75,138.448 1019.4,134.771 1018.7,131.703C1018,128.636 1017.18,127.102 1016.22,127.102C1015.26,127.102 1014.43,128.636 1013.74,131.703C1013.05,134.771 1012.7,138.448 1012.7,142.733Z" style="fill-rule:nonzero;"/>
        </g>
        <g transform="matrix(0.290456,0,0,0.0654594,-236.36,15.608)">
            <path d="M1032.51,111.471L1039.52,111.471L1039.52,204.964L1043.04,204.964C1044.02,204.964 1044.85,203.43 1045.54,200.363C1046.22,197.295 1046.57,193.667 1046.57,189.479L1046.57,111.471L1053.58,111.471L1053.58,204.964L1057.1,204.964C1058.06,204.964 1058.88,203.43 1059.56,200.363C1060.25,197.295 1060.59,193.667 1060.59,189.479L1060.59,111.471L1067.63,111.471L1067.63,167.348C1067.63,181.859 1066.46,194.361 1064.1,204.855C1061.75,215.348 1058.93,220.595 1055.63,220.595L1046.57,220.595L1046.57,215.628C1045.21,218.939 1043.55,220.595 1041.58,220.595L1032.51,220.595L1032.51,111.471Z" style="fill-rule:nonzero;"/>
        </g>
        <g transform="matrix(0.290456,0,0,0.0654594,-236.36,15.608)">
            <path d="M1090.93,142.733L1087.44,142.733C1087.13,132.312 1086.03,127.102 1084.12,127.102C1082.88,127.102 1081.94,128.185 1081.32,130.352C1080.69,132.519 1080.38,135.745 1080.38,140.03C1080.38,144.51 1082.09,150.792 1085.5,158.875C1088.28,165.497 1089.88,170.988 1090.3,175.346C1090.72,179.704 1090.93,184.342 1090.93,189.26C1090.93,197.928 1090.24,205.317 1088.87,211.428C1087.49,217.54 1085.84,220.595 1083.92,220.595L1080.4,220.595C1075.72,220.595 1073.38,210.223 1073.38,189.479L1076.91,189.479C1077.18,199.851 1078.28,205.037 1080.2,205.037C1081.44,205.037 1082.37,203.942 1083,201.75C1083.62,199.559 1083.93,196.321 1083.93,192.036C1083.93,187.653 1082.23,181.372 1078.83,173.191C1076.05,166.617 1074.44,161.139 1074.02,156.757C1073.6,152.374 1073.38,147.748 1073.38,142.879C1073.38,134.162 1074.08,126.749 1075.46,120.638C1076.84,114.526 1078.49,111.471 1080.4,111.471L1083.92,111.471C1088.31,111.471 1090.65,121.891 1090.93,142.733Z" style="fill-rule:nonzero;"/>
        </g>
        <g transform="matrix(0.290456,0,0,0.0654594,-236.36,15.608)">
            <path d="M1117.78,173.848L1103.73,173.848L1103.73,189.479C1103.73,193.667 1104.07,197.295 1104.75,200.363C1105.44,203.43 1106.27,204.964 1107.25,204.964L1110.77,204.964C1113.1,204.964 1114.26,199.803 1114.26,189.479L1117.78,189.479C1117.23,210.223 1114.9,220.595 1110.77,220.595L1103.73,220.595C1101.8,220.595 1100.16,217.54 1098.78,211.428C1097.4,205.317 1096.71,198.001 1096.71,189.479L1096.71,142.733C1096.71,134.114 1097.4,126.749 1098.79,120.638C1100.17,114.526 1101.82,111.471 1103.73,111.471L1110.77,111.471C1112.69,111.471 1114.34,114.551 1115.72,120.711C1117.09,126.87 1117.78,134.211 1117.78,142.733L1117.78,173.848ZM1103.73,158.217L1110.77,158.217L1110.77,142.733C1110.77,138.448 1110.42,134.771 1109.73,131.703C1109.03,128.636 1108.2,127.102 1107.25,127.102C1106.28,127.102 1105.45,128.636 1104.76,131.703C1104.07,134.771 1103.73,138.448 1103.73,142.733L1103.73,158.217Z" style="fill-rule:nonzero;"/>
        </g>
        <g transform="matrix(0.290456,0,0,0.0654594,-236.36,15.608)">
            <path d="M1130.54,220.595L1123.53,220.595L1123.53,111.471L1130.54,111.471L1130.54,142.733C1130.82,132.312 1131.54,124.497 1132.72,119.286C1133.89,114.076 1135.52,111.471 1137.59,111.471L1141.08,111.471L1141.08,142.733L1134.07,142.733C1133.1,142.733 1132.27,144.254 1131.58,147.298C1130.89,150.341 1130.54,153.981 1130.54,158.217L1130.54,220.595Z" style="fill-rule:nonzero;"/>
        </g>
        <g transform="matrix(0.290456,0,0,0.0654594,-236.36,15.608)">
            <path d="M1160.88,142.733L1157.39,142.733C1157.09,132.312 1155.98,127.102 1154.07,127.102C1152.83,127.102 1151.9,128.185 1151.27,130.352C1150.65,132.519 1150.33,135.745 1150.33,140.03C1150.33,144.51 1152.04,150.792 1155.45,158.875C1158.23,165.497 1159.83,170.988 1160.25,175.346C1160.67,179.704 1160.88,184.342 1160.88,189.26C1160.88,197.928 1160.2,205.317 1158.82,211.428C1157.44,217.54 1155.79,220.595 1153.87,220.595L1150.35,220.595C1145.67,220.595 1143.34,210.223 1143.34,189.479L1146.86,189.479C1147.13,199.851 1148.23,205.037 1150.15,205.037C1151.39,205.037 1152.33,203.942 1152.95,201.75C1153.58,199.559 1153.89,196.321 1153.89,192.036C1153.89,187.653 1152.19,181.372 1148.79,173.191C1146,166.617 1144.39,161.139 1143.97,156.757C1143.55,152.374 1143.34,147.748 1143.34,142.879C1143.34,134.162 1144.03,126.749 1145.41,120.638C1146.79,114.526 1148.44,111.471 1150.35,111.471L1153.87,111.471C1158.26,111.471 1160.6,121.891 1160.88,142.733Z" style="fill-rule:nonzero;"/>
        </g>
        <g transform="matrix(0.290456,0,0,0.0654594,-236.36,15.608)">
            <path d="M1180.72,158.217L1180.72,142.733C1180.72,138.448 1180.38,134.771 1179.68,131.703C1178.98,128.636 1178.16,127.102 1177.2,127.102L1173.68,127.102C1171.6,127.102 1170.44,132.312 1170.19,142.733L1166.67,142.733C1167.2,121.891 1169.54,111.471 1173.68,111.471L1180.72,111.471C1182.64,111.471 1184.29,114.551 1185.67,120.711C1187.05,126.87 1187.74,134.211 1187.74,142.733L1187.74,220.595L1180.72,220.595L1180.72,204.964C1180.45,215.385 1179.28,220.595 1177.2,220.595L1173.68,220.595C1171.76,220.595 1170.11,217.54 1168.73,211.428C1167.36,205.317 1166.67,198.001 1166.67,189.479L1166.67,189.333C1166.67,180.812 1167.36,173.495 1168.74,167.384C1170.12,161.273 1171.77,158.217 1173.68,158.217L1180.72,158.217ZM1180.72,173.848L1177.2,173.848C1176.24,173.848 1175.41,175.37 1174.72,178.414C1174.02,181.457 1173.68,185.097 1173.68,189.333L1173.68,189.479C1173.68,193.667 1174.02,197.295 1174.71,200.363C1175.39,203.43 1176.23,204.964 1177.2,204.964C1178.18,204.964 1179.01,203.43 1179.69,200.363C1180.38,197.295 1180.72,193.667 1180.72,189.479L1180.72,173.848Z" style="fill-rule:nonzero;"/>
        </g>
        <g transform="matrix(0.290456,0,0,0.0654594,-236.36,15.608)">
            <path d="M1214.56,111.471L1214.56,220.595L1207.54,220.595L1207.54,204.964C1207.27,215.385 1206.09,220.595 1204.02,220.595L1200.5,220.595C1198.58,220.595 1196.93,217.54 1195.55,211.428C1194.17,205.317 1193.49,198.001 1193.49,189.479L1193.49,111.471L1200.5,111.471L1200.5,189.479C1200.5,193.667 1200.84,197.295 1201.53,200.363C1202.21,203.43 1203.04,204.964 1204.02,204.964C1205,204.964 1205.83,203.43 1206.51,200.363C1207.2,197.295 1207.54,193.667 1207.54,189.479L1207.54,111.471L1214.56,111.471Z" style="fill-rule:nonzero;"/>
        </g>
        <g transform="matrix(0.290456,0,0,0.0654594,-236.36,15.608)">
            <path d="M1227.32,220.595L1220.3,220.595L1220.3,111.471L1227.32,111.471L1227.32,142.733C1227.59,132.312 1228.32,124.497 1229.49,119.286C1230.66,114.076 1232.29,111.471 1234.36,111.471L1237.85,111.471L1237.85,142.733L1230.84,142.733C1229.87,142.733 1229.04,144.254 1228.35,147.298C1227.66,150.341 1227.32,153.981 1227.32,158.217L1227.32,220.595Z" style="fill-rule:nonzero;"/>
        </g>
        <g transform="matrix(0.290456,0,0,0.0654594,-236.36,15.608)">
            <path d="M1261.18,111.471L1261.18,220.595L1254.17,220.595L1254.17,204.964C1253.89,215.385 1252.72,220.595 1250.64,220.595L1247.12,220.595C1245.2,220.595 1243.55,217.54 1242.17,211.428C1240.8,205.317 1240.11,198.001 1240.11,189.479L1240.11,111.471L1247.12,111.471L1247.12,189.479C1247.12,193.667 1247.46,197.295 1248.15,200.363C1248.84,203.43 1249.67,204.964 1250.64,204.964C1251.62,204.964 1252.45,203.43 1253.14,200.363C1253.83,197.295 1254.17,193.667 1254.17,189.479L1254.17,111.471L1261.18,111.471Z" style="fill-rule:nonzero;"/>
        </g>
        <g transform="matrix(0.290456,0,0,0.0654594,-236.36,15.608)">
            <path d="M1284.48,142.733L1280.99,142.733C1280.68,132.312 1279.57,127.102 1277.66,127.102C1276.42,127.102 1275.49,128.185 1274.86,130.352C1274.24,132.519 1273.92,135.745 1273.92,140.03C1273.92,144.51 1275.63,150.792 1279.04,158.875C1281.82,165.497 1283.42,170.988 1283.84,175.346C1284.27,179.704 1284.48,184.342 1284.48,189.26C1284.48,197.928 1283.79,205.317 1282.41,211.428C1281.03,217.54 1279.38,220.595 1277.46,220.595L1273.94,220.595C1269.27,220.595 1266.93,210.223 1266.93,189.479L1270.45,189.479C1270.73,199.851 1271.82,205.037 1273.74,205.037C1274.98,205.037 1275.92,203.942 1276.54,201.75C1277.17,199.559 1277.48,196.321 1277.48,192.036C1277.48,187.653 1275.78,181.372 1272.38,173.191C1269.59,166.617 1267.98,161.139 1267.56,156.757C1267.14,152.374 1266.93,147.748 1266.93,142.879C1266.93,134.162 1267.62,126.749 1269,120.638C1270.38,114.526 1272.03,111.471 1273.94,111.471L1277.46,111.471C1281.85,111.471 1284.19,121.891 1284.48,142.733Z" style="fill-rule:nonzero;"/>
        </g>
    </g>
</svg>
