<svg width="100%" height="100%" viewBox="0 0 121 123" version="1.1" xmlns="http://www.w3.org/2000/svg" xmlns:xlink="http://www.w3.org/1999/xlink" xml:space="preserve" xmlns:serif="http://www.serif.com/" style="fill-rule:evenodd;clip-rule:evenodd;stroke-linecap:round;"><path d="M16.2 16.4c-.8 0-5.4.8-8 1.9-1.4.5-2.1 2-2.7 3.2S5 25.8 4.6 30c-.5 7.5-1.4 10.7-1.9 12.3-.7 2.6.4 5.2 1 6.5q.1.5.5.9c.7.5 5.2 1.7 11.4 3.6 4 1.3 5.1 2.6 5.9 3.7.7 1-.2 9.6-.4 10.8-.8 3.6-2 5.2-2.6 6A86 86 0 0 1 5 83.3c-1.3.4-2.2 17.1-2.3 18.3q0 2.3-.6 5.5-.1 3.4 2.3 6.6c2 3.1 22.3 7.3 25 7.3 3.1 0 46-1.9 50.5-1.9 5 0 17-1.7 19.4-2.4 2.7-.8 6.2-8.6 7.2-12.6 1-3.7-2-20-1.9-22.7 0-.9.7-.7 1-.6 2.3.4 10.4-2.7 11.9-4.5 1.7-2.1.6-13.5-.3-18.1-1.4-7.1-5.6-8-8.1-8.6-1.4-.4-2.5-.3-2.8-.8-.2-.3-.6-10.8-1-14.8-.3-4.1-1.6-15.9-1.8-16.5-.7-2-16.5-3-19.3-3.2-5.4-.4-10.5.5-11.4.6-2.1.1-5.4-11.2-16.2-12.3-3.6-.4-8.6.2-11 1.5C42.8 5.7 36 15.6 36 15.6s-1.8.5-4.7.6c-2.3 0-16.5.4-18 .6q-.4-.1-1.8.4" style="fill:none;fill-rule:nonzero;stroke:rgb(218,43,177);stroke-width:4px;"/><path d="M25 36.3c.2.1 12.8 13.2 14.8 19.1a37 37 0 0 1-4.3 27.9 56 56 0 0 1-12 11.5c-1.3.7-2.5 2.5-3.4 4.2q-.4 1 .8 1.1c1.9.3 4.6-.2 8-.6 4.3-.6 35 1.2 38 1.4 6.6.5 14-1.6 15.6-2.3q1.4-.8 1.8-1.7c1.5-2.5 1.6-8.4 1.2-11.5-.1-1.5-4.2-18.1-1.5-30.6.7-3.4 2-16.6 2-17.2-.7-1.8-3.4-1.4-5-2.1-2.2-1-23.7-2.8-34.4-3.2-3.4 0-18.1 1.1-19.3 1.3a11 11 0 0 0-2.9.8q-.3.3-.3 1" style="fill:none;fill-rule:nonzero;stroke:rgb(218,43,177);stroke-width:4px;"/><path d="m4 36 3.1-.2L26 35" style="fill:none;fill-rule:nonzero;stroke:rgb(218,43,177);stroke-width:4px;"/><path d="M68.2 17c-.1.4-.2.9-.2 3 .3 5.2.5 9.2.7 10.4L69 32" style="fill:none;fill-rule:nonzero;stroke:rgb(218,43,177);stroke-width:4px;"/><path d="M106 52h-3l-11 .4c-4.8.5-6.8 1-7.8 1.1L83 54" style="fill:none;fill-rule:nonzero;stroke:rgb(218,43,177);stroke-width:4px;"/><path d="M85 82.2a39 39 0 0 0 16-.1 16 16 0 0 1 4 0h3" style="fill:none;fill-rule:nonzero;stroke:rgb(218,43,177);stroke-width:4px;"/><path d="M38 102a56 56 0 0 0-1 13.5l.3 3.3.2 1.2" style="fill:none;fill-rule:nonzero;stroke:rgb(218,43,177);stroke-width:4px;"/></svg>