<svg xmlns="http://www.w3.org/2000/svg" width="100" height="101" fill="rgba(0,0,0,0)">
    <g stroke="#DA2BB1" stroke-width="4" stroke-linecap="round" stroke-linejoin="round" fill="rgba(0,0,0,0)">
        <path
            d="m31.9 40.5-3.8-7.4c-.7-1.4-1.1-2-1.6-2.3-1.7-1.1-4.8 1.2-8.3 2.5-1 .4-1.8.6-2.5 1.1-2.3 2 1.7 6.3 2.2 7.6.4.8 1 1.6 1.1 2.3.3 1.2-2 2.8-2.8 4.6-.1.4-.2.7-.8.7-2.7.3-3.9-.8-5.3-1.2-1.5-.4-2.7-.4-3.3.1-2.7 2.3-3 7-3.6 8.6-.5 1.2-.9 2-.8 2.7.4 3 6.6 2.5 7.6 3.1 2 1.2-.5 3.5-.3 5 .3 2.5-5.2 3.5-6.7 4.6l-.8.6c-.2.3-.2.6-.2.9 0 .7 2 4.3 5 9.2 1.1 1.7 2.1 1.2 3 .9 2.7-1 3.5-1.2 4-1.2 1.8.1 2.8 3 3.9 4 2 1.7-.4 4.6-.6 6.5-.3 1.7 6.5 4.3 9.4 5 2 .5 2-5.6 3.8-7.1 1-.9 2.7.8 4.3.8.6 0 1.2-.2 1.6 0 2.3 1.1 1.6 4 2.3 5l.5 1.2c1.1 1.7 5.5-.1 10-1.8 2.8-1 4.6-1 5-1.3 1.2-.7-1.4-4.2-2.5-6.6-.3-.4-.5-.7-.5-1-.1-.7.6-1.5 2.3-3.3.4-.4.6-.9 1-.9 2.7 0 4.4 1.4 6.2 1.3 3.8-.4 5-9.5 5-10.3-.4-2.5-4.2-3.2-5.3-4.8-1.3-2-1.5-6.1-1.4-7.4.1-2.4 5-2 6-3 1-.7-.3-4-1.2-7-.4-1.4-.7-2.2-1.2-2.6-1.8-1.3-6.8.8-9.5.5-1.3-.1-1.9-2-3-2.8-1.4-1 .8-3.4.9-5.8l-.2-2.2c0-.5-3-2.3-7.7-4.5-1.7-.8-2-.6-2.3.1-1.7 3.4-1.5 4.3-1.8 4.8-.9.2-3.7-.2-6-.1a8 8 0 0 0-1.8 1.3" />
        <path
            d="M30 50.8c-.8.2-3.8 1.5-6.5 3.1-3 2-4.5 4.7-5.2 6.7-.8 1.8-.8 4-.5 5.7.5 3.2 2.8 6 4.2 7.8a26 26 0 0 0 5.8 5c1 .7 3.8 1.4 7.2 2.5a11 11 0 0 0 8.7-.8c1.8-1.3 2.7-3 3.3-4.2.8-1.6.8-6.1.8-11.5 0-2.7-1.2-5.8-2.6-9.7-1-2.7-2.6-3.5-4.7-4.6-2-1.1-5.8-1.2-10.3-.4-4.4 2-8.7 4.9-9.6 6-.3.3-.4.6-.6 1" />
        <path
            d="M57.9 36a13 13 0 0 0-2.6 3.8c-.3.5-.6.9-.6 1.2 0 1.3 2.1 2.2 3.8 2.9 3.6 1.4 5.2-2 6.9-2.2 1.5-.2 2.6 1.3 3.3 2.2.9 1.3 0 2.8.4 3.8.7 1.8 5.9.9 8.7.4 3-.5.7-4.7.8-5.3.2-1.6 3.3-.4 3.7-.5 1.1 0 1.8 1.7 2.8 2 1.2.6 3 .3 4.8-.8 1.2-.7 1.5-1.8 1.8-2.2.8-1.2-1.3-3-2-4-1-1.2 1.6-3.8 2-5.6 0-.4 0-.8.2-1 .6-1.1 3-.2 4.3-.3.5 0 .7-.2.8-.7.8-2.5.6-4.6.5-5.7 0-.5 0-1-1.5-1.3-4.3-1.2-7.7-1.1-8-1.2-1-.3.6-2.5.5-3.8-.2-1.3 2.5-2.4 3.7-4.2.4-.6.7-1.6.5-2.4-.7-3-3.5-3.1-4-3.3-2.3-1-5.7 2.8-6.2 2.7-.7 0-1.4-.6-2.2-1.1C77.8 7.5 77.7 4 76.7 3c-2.7-2.7-7.4.4-8 .6-2.1.9-.6 4.8-.9 5.4-.4.8-2 .5-2.9.8-1.2.3-3.3-1.8-5.9-2.6-1.3-.3-2.8 2.5-4.3 4.4-.6.7-.8.9-.4 1.5 1.2 1.6 2.8 2.8 3.3 3.5.6 1-1.8 2-2.3 3-.1.2-.2.5-.6.6-1.5.8-3.2 1-4.2 1.8-1 .9-.3 3.9-.6 5.6-.1 1 0 1.8.1 2.3 1.8.6 4.1 1.1 5.1 1.5l.6 1.2" />
        <path
            d="M73.5 24.5h-1c-.2 0-.4.2-.6.5l-.2.8c0 .3.2.6.5.8 1.3.7 2.4 0 3-.3.6-.4.7-1.3.7-2 0-.2-.3-.4-.6-.6-.7-.3-1.5-.3-2-.2-.6 0-.9.8-1.2 1.6v1c.2.5.9.9 1.5 1 .5.2.9-.5 1.2-1 .2-.4.2-.8.2-1.1 0-.3-.2-.5-.5-.7-.6-.3-1.4-.4-2.1-.3a1 1 0 0 0-.8.4c-.2.2-.3.6-.2 1 0 .6.8 1 1.5 1.3a3 3 0 0 0 1.7 0c.6 0 1-.4 1.4-.9.2-.2.3-.5.2-.8-.1-.6-.7-1-1.3-1.1-.6-.2-1.3 0-2 .3-.4.1-.7.4-.9.6-.2.3-.3.7-.2 1 0 .2.2.5.5.6h.7l.7-.4" />
    </g>

</svg>