<svg width="48" height="49" viewBox="0 0 48 49" fill="none" xmlns="http://www.w3.org/2000/svg">
<path d="M22.2822 0.412109C23.1872 0.440712 23.8231 0.936353 24.332 1.61523C25.0106 2.52045 25.8306 3.14319 26.8486 3.79395C29.5352 5.49167 31.3023 7.96679 32.3057 10.8379C33.1819 13.1857 33.4101 14.8496 33.5371 17.3643C33.647 18.675 35.6455 20.1416 35.6455 20.1416L38.3447 21.9414C38.3447 21.9414 42.6663 24.204 42.8184 35.8281C42.9704 47.4522 38.3447 48.7422 38.3447 48.7422C34.9448 47.4422 32.1447 45.4415 29.8447 42.6416C29.6449 42.4417 29.4451 42.1423 29.1455 41.9424C28.7455 42.7423 28.3449 43.6425 28.0449 44.4424C27.945 44.6422 27.845 44.8419 27.7451 45.1416C26.8452 46.9415 25.5453 47.5415 23.6455 47.1416C22.9455 46.9416 22.2449 46.8416 21.5449 46.6416C19.845 46.2416 19.0449 46.6418 18.5449 48.3418C18.4449 48.5418 18.5451 48.8424 18.2451 48.9424C18.0451 48.9423 17.8451 48.742 17.7451 48.542C16.9452 47.542 16.8448 46.3418 17.3447 45.3418C17.9447 44.3419 19.1448 43.8425 20.3447 43.9424C21.4447 44.0424 22.5455 44.3424 23.6455 44.4424C24.3452 44.5422 24.745 44.2415 25.0449 43.6416C25.6449 42.3417 26.2451 40.9419 26.7451 39.542C26.8451 39.2421 26.8453 39.042 26.6455 38.7422L23.6455 34.6416C23.6387 34.6201 22.5737 31.2883 21.5479 29.5645C21.4262 29.2726 21.2115 29.0877 21.0898 28.7959C20.0755 27.2664 19.3557 27.0181 17.6826 27.4414C15.7099 27.8868 13.8506 28.5243 11.8779 28.9697C8.43136 29.8238 5.08654 27.9637 4.05469 24.8311C3.79674 24.0478 3.83851 23.2422 3.97949 22.4297C4.0573 22.1234 4.23431 21.8093 4.5332 21.7871C4.82509 21.6654 5.13908 21.8439 5.26074 22.1357C5.7035 22.7049 6.04692 23.2809 6.59668 23.9424C6.84465 23.2225 7.00012 22.6094 7.2627 22.0889C7.3405 21.7824 7.41162 21.3759 7.81055 21.3467C8.20923 21.3176 8.43103 21.6022 8.65234 21.8867C8.89859 22.1694 9.08851 22.4564 9.26465 22.7441L9.4375 23.0322C9.65889 23.3168 9.7518 23.2097 9.83691 23.0029C9.9998 22.4897 10.1628 21.9762 10.3184 21.3633C10.5664 20.6436 11.0572 20.5077 11.5996 21.0693C12.035 21.5387 12.3713 22.015 12.8066 22.4844C13.1613 21.8575 13.3172 21.2451 13.4727 20.6328V20.6309C13.8058 19.7041 14.2051 19.6753 14.7549 20.3369C15.4043 20.991 15.4048 20.9907 16.166 20.4336C16.8276 19.8838 17.5884 19.3262 18.25 18.7764C19.9575 17.448 21.916 16.8038 23.8887 16.3584C24.6792 16.2002 25.4455 16.1416 26.1455 15.6416C26.7447 15.242 25.9979 15.3896 26.21 14.6123C26.2666 14.2163 26.21 13.9045 25.9414 13.6641C25.673 13.424 25.3478 13.5797 25.1357 13.6504C24.6974 13.8907 24.2727 14.0317 23.7354 14.2578C21.7977 15.0917 19.9867 15.0344 18.2051 14.0723C17.272 13.5347 16.3384 12.9978 15.377 12.6582C14.5147 12.3329 13.9916 12.4595 13.4824 13.1943C13.2419 13.463 13.0999 13.746 12.8594 14.0146C12.5058 14.3679 12.1099 14.3117 11.8838 13.7744C11.7142 13.3714 11.6009 12.9761 11.501 12.583L11.4033 12.1904C11.3468 11.8793 11.1493 11.851 11.0078 12.1338C10.7532 12.5013 10.4138 12.7555 10.1592 13.123C9.91872 13.3917 9.66397 13.7591 9.28223 13.6035C8.90043 13.4479 8.85825 13.0377 8.80176 12.7266C8.66047 12.3023 8.61787 11.892 8.47656 11.4678C8.43416 11.058 8.23553 11.0293 7.99512 11.2979C7.6416 11.6512 7.38717 12.019 7.04785 12.2734C6.46799 12.7965 5.9876 12.6272 5.88867 11.9062C5.78986 11.185 5.59198 10.4488 5.49316 9.72754C5.16787 9.88302 5.02611 10.1663 4.7998 10.3359L4.79883 10.3369C4.5587 10.6052 4.31845 10.8738 3.97949 11.1279C3.54109 11.3682 3.14479 11.3111 3.01758 10.7881C2.86217 10.4629 2.91866 10.0669 2.8623 9.75586C2.84831 9.14774 2.73541 8.52512 2.52344 7.88867C2.17026 6.82813 2.62266 5.78173 3.16016 4.84863C4.56091 2.11956 7.60217 0.635053 10.6709 1.07422C12.8487 1.38589 14.9418 1.58445 17.1055 1.99512C18.3923 2.17925 19.439 1.92495 20.3584 1.14746C20.9242 0.723339 21.5751 0.411932 22.2822 0.412109ZM22.1104 3.01465C21.2904 2.89739 20.5304 3.46711 20.4131 4.28711C20.2959 5.10704 20.8656 5.86703 21.6855 5.98438C22.5055 6.10171 23.2654 5.53189 23.3828 4.71191C23.5002 3.89186 22.9304 3.13201 22.1104 3.01465Z" fill="black"/>
</svg>
