<svg width="48" height="49" viewBox="0 0 48 49" fill="none" xmlns="http://www.w3.org/2000/svg">
<path d="M21.4492 0.3396C22.3492 0.239606 23.0494 0.640053 23.6494 1.23999C24.4493 2.03989 25.3494 2.53986 26.4492 3.03979C29.3492 4.33979 31.4496 6.54001 32.8496 9.23999C34.0496 11.44 34.5496 13.74 34.8496 16.24C35.0496 17.54 35.6494 20.1404 35.6494 20.1404L38.3496 21.9402C38.3797 21.9561 42.6716 24.2428 42.8232 35.8259C42.9748 47.4108 38.3806 48.7312 38.3496 48.74C34.9497 47.44 32.1496 45.4402 29.8496 42.6404C29.6496 42.4404 29.4494 42.1402 29.1494 41.9402C28.7494 42.7401 28.3498 43.6402 28.0498 44.4402C27.9498 44.6402 27.85 44.8404 27.75 45.1404C26.85 46.9403 25.5494 47.5404 23.6494 47.1404C22.9496 46.9404 22.2497 46.8403 21.5498 46.6404C19.8499 46.2404 19.0498 46.64 18.5498 48.3396C18.4498 48.5395 18.5496 48.8401 18.25 48.9402C18.05 48.9402 17.85 48.7398 17.75 48.5398C16.95 47.5398 16.8496 46.3396 17.3496 45.3396C17.9497 44.3398 19.1497 43.8402 20.3496 43.9402C21.4495 44.0402 22.5495 44.3402 23.6494 44.4402C24.3494 44.5402 24.7498 44.2403 25.0498 43.6404C25.6498 42.3404 26.25 40.9398 26.75 39.5398C26.8499 39.24 26.8493 39.0398 26.6494 38.74L23.6494 34.6404C23.6494 34.6404 21.3492 31.1396 20.4492 29.3396C20.3492 29.0398 20.1498 28.8397 20.0498 28.5398C19.1499 26.94 18.4497 26.6403 16.75 26.9402C14.7501 27.2402 12.8495 27.7398 10.8496 28.0398C7.34961 28.6398 4.14961 26.5396 3.34961 23.3396C3.14973 22.5398 3.24928 21.74 3.44922 20.9402C3.54922 20.6402 3.7498 20.3396 4.0498 20.3396C4.34965 20.24 4.65005 20.4401 4.75 20.74C5.14997 21.34 5.44924 21.9404 5.94922 22.6404C6.24922 21.9404 6.45 21.3396 6.75 20.8396C6.84995 20.5396 6.94981 20.1404 7.34961 20.1404C7.74946 20.1404 7.94947 20.4401 8.14941 20.74C8.44934 21.1399 8.64966 21.5403 8.84961 21.9402C9.04954 22.24 9.15002 22.1402 9.25 21.9402C9.45 21.4402 9.64961 20.9396 9.84961 20.3396C10.1496 19.6399 10.6495 19.5405 11.1494 20.1404C11.5493 20.6403 11.85 21.1404 12.25 21.6404C12.6496 21.041 12.849 20.4409 13.0488 19.8416L13.0498 19.8396C13.4497 18.94 13.8497 18.9405 14.3496 19.6404C14.9494 20.3401 14.9501 20.3395 15.75 19.8396C16.4499 19.3397 17.2494 18.8395 17.9492 18.3396C19.7492 17.1396 21.75 16.6396 23.75 16.3396C24.5498 16.2396 25.4496 16.1401 26.1494 15.6404C26.7494 15.2404 27.2496 14.6396 27.3496 13.8396C27.3495 13.4398 27.2491 13.1401 26.9492 12.9402C26.6493 12.7404 26.3494 12.9398 26.1494 13.0398C25.7495 13.3397 25.3495 13.5397 24.8496 13.8396C23.0497 14.9396 21.2495 15.1401 19.3496 14.4402C18.3497 14.0402 17.3496 13.6402 16.3496 13.4402C15.4497 13.2402 14.9498 13.4402 14.5498 14.24C14.3498 14.54 14.2498 14.8404 14.0498 15.1404C13.7498 15.5403 13.3498 15.5398 13.0498 15.0398C12.75 14.5401 12.5495 14.0405 12.3496 13.5408V13.5398C12.2496 13.2402 12.0492 13.2401 11.9492 13.5398C11.7492 13.9398 11.45 14.2404 11.25 14.6404C11.05 14.9404 10.8492 15.34 10.4492 15.24C10.0496 15.1399 9.94956 14.7401 9.84961 14.4402C9.64961 14.0402 9.54961 13.64 9.34961 13.24C9.2496 12.8401 9.0496 12.8404 8.84961 13.1404C8.54976 13.5402 8.34962 13.9401 8.0498 14.24C7.5498 14.84 7.04961 14.7398 6.84961 14.0398C6.64962 13.3399 6.34939 12.6401 6.14941 11.9402C5.84952 12.1402 5.74977 12.4404 5.5498 12.6404L5.54883 12.6414C5.34917 12.9408 5.14903 13.2403 4.84961 13.5398C4.44961 13.8398 4.04961 13.8396 3.84961 13.3396C3.64973 13.0396 3.64978 12.6395 3.5498 12.3396C3.44979 11.7397 3.24917 11.1397 2.94922 10.5398C2.44954 9.53996 2.7495 8.44 3.14941 7.44019C4.14941 4.54019 6.9498 2.64038 10.0498 2.64038C12.2497 2.64037 14.3499 2.54039 16.5498 2.64038C17.8496 2.6403 18.8495 2.23951 19.6494 1.3396C20.1493 0.839729 20.7494 0.439661 21.4492 0.3396ZM21.6484 2.94019C20.8201 2.94026 20.1484 3.6118 20.1484 4.44019C20.1485 5.26854 20.8201 5.94011 21.6484 5.94019C22.4768 5.94019 23.1484 5.26859 23.1484 4.44019C23.1484 3.61176 22.4769 2.94019 21.6484 2.94019Z" fill="black"/>
</svg>
