<svg width="129" height="107" viewBox="0 0 129 107" fill="rgba(0,0,0,0)" xmlns="http://www.w3.org/2000/svg">
    <g stroke="#DA2BB1" stroke-width="4" stroke-linecap="round" stroke-linejoin="round" fill="rgba(0,0,0,0)">
        <path
            d="M6 31.9163C6.91083 33.6172 7.88844 35.5099 10.3179 41.4267C12.3172 46.2958 15.5575 55.0807 18.1299 61.442C20.7023 67.8032 22.4282 71.5069 23.5978 74.1735C26.5646 80.9378 27.7206 83.5746 28.2461 84.2659C28.4941 84.5923 28.827 84.766 38.396 87.0396C47.9649 89.3132 66.7913 93.6551 76.6634 95.905C86.8715 98.2314 87.7035 98.3918 88.7357 98.7617C89.9463 99.1956 91.6139 99.7204 93.2744 100.122C95.325 100.618 96.0673 97.411 97.3898 95.7274C98.0689 94.863 98.7307 93.9798 101.102 90.6687C103.161 87.7947 106.773 82.3688 109.955 77.982C113.137 73.5953 115.732 70.3793 117.251 68.5435C119.774 65.4931 122.063 62.968 123.615 61.4317C124.603 60.4534 125.419 59.3656 125.838 58.696C126.19 58.1333 123.847 56.8683 120.271 55.3053C118.438 54.5044 116.443 53.9946 112.247 53.1231C108.051 52.2517 101.682 51.1124 98.254 50.5256C94.8265 49.9387 94.5339 49.9387 92.2043 49.4575C85.5044 48.0735 80.6824 46.9963 79.7162 47.1098C79.0838 47.1841 78.2076 47.5548 75.0887 49.5455C71.9698 51.5362 66.6462 55.2026 61.2516 59.3306C55.857 63.4586 50.5528 67.9369 47.1666 70.6946C40.5044 76.1204 38.1906 77.8522 37.0504 78.5973C35.7802 79.4398 33.6553 80.9234 31.7584 82.1079C31.3564 82.3676 31.0479 82.577 30.6047 82.9183" />
        <path
            d="M80.5314 46.7012C79.008 44.4585 75.6829 39.1894 74.3121 36.6928C73.3264 34.8976 71.6491 32.0874 70.0501 28.5259C68.4511 24.9643 66.9551 20.7512 66.0503 18.2135C64.43 13.6684 63.7342 11.9689 63.2037 10.5012C62.7245 9.1751 62.0954 7.75541 61.5064 5.80338C61.3729 5.36109 61.3036 5.04991 61.2063 4.73965C61.1091 4.4294 61 4.12555 60.12 4.10885C59.24 4.09214 57.5923 4.37177 52.9262 5.68997C48.2601 7.00817 40.6254 9.35647 34.9172 11.6063C29.209 13.8562 25.6587 15.9364 23.3706 17.3538C18.6793 20.26 17.1094 21.5858 14.783 23.0763C13.9664 23.5995 10.5637 26.2002 5.65143 29.8753C3.88525 31.2435 3.59439 31.6031 3.33193 31.914C3.06946 32.2249 2.84421 32.4761 2.21875 33.4122" />
        <path
            d="M60.1266 3.21823C59.2614 3.03008 57.2215 2.72292 52.01 2.16029C48.4427 1.77517 47.2433 2.16565 45.7625 2.47694C44.3072 2.78289 40.2123 4.96858 34.4921 7.83523C30.6484 9.76148 27.6448 11.048 25.2184 12.3613C22.7245 13.7111 21.1376 14.6869 18.5446 15.9819C17.4753 16.5159 16.2377 17.1778 14.2643 18.4897C8.60352 22.2528 6.49633 24.9675 5.19425 26.2002C3.83416 27.4878 3.11265 28.7726 2.59461 29.8988C1.85382 31.5092 1.89158 35.291 2.23989 37.2173C2.55929 38.9837 4.96774 40.4065 6.88088 42.3228C7.55354 42.9966 8.57062 44.6135 10.3249 47.9798C12.671 52.4816 13.8307 55.5405 14.2209 56.4441C14.8805 57.9719 15.1395 59.4688 15.8321 61.5058C18.5852 69.6035 19.5939 72.575 20.0364 73.9904C20.9819 77.0147 22.2798 82.4351 23.0421 84.886C23.5694 86.5815 25.0939 88.3304 26.2887 89.1899C27.4143 89.9996 29.3187 90.5627 35.0299 91.9416C37.8138 92.6137 42.2478 93.1673 48.2905 94.4356C54.3331 95.7039 61.8829 97.5171 69.4199 99.1703C76.9569 100.823 84.2523 102.262 88.3282 103.097C94.2931 104.32 95.9855 104.567 96.9151 104.437C99.897 104.019 101.346 98.8215 103.917 95.4855C106.354 92.3252 107.603 90.186 111.303 84.4439C113.164 81.5553 114.55 78.7593 115.699 77.0187C116.519 75.7753 118.123 73.3979 119.265 71.4974C120.357 69.6781 123.935 65.9509 126.029 63.7732C126.662 62.8401 126.853 61.6532 126.856 60.5206C126.832 59.9929 126.759 59.5606 126.558 58.7421" />
        <path
            d="M100.626 64.0473C99.7831 65.4653 97.6969 67.9421 94.9546 71.5743C92.144 75.2971 89.9439 78.8152 88.4762 81.4162C88.1214 82.0448 87.8471 82.4105 87.7723 82.7445C87.6976 83.0784 87.8123 83.3587 88.0903 83.5949C89.7665 85.0186 93.2859 85.1412 95.1719 85.2284C96.5937 85.2941 98.0783 82.6223 100.015 80.4224C100.593 79.765 102.844 75.4723 106.102 69.2317C107.45 66.6516 107.764 65.9659 107.809 65.3989C106.651 64.7777 104.295 64.3291 101.942 64.0551C100.94 63.9533 100.328 63.9274 99.697 63.9633" />
        <path
            d="M102.636 53.0657C101.88 54.3756 99.8739 57.3378 94.7743 63.4544C90.5641 68.5043 82.2074 78.0373 77.1065 83.7606C70.491 91.1832 68.395 92.9448 67.9136 93.4911C67.6703 93.7564 67.4293 93.9975 67.1437 94.2439C66.8581 94.4904 66.5354 94.7349 65.6797 95.3675" />
        <path
            d="M40.7617 86.6405C40.8028 86.6202 40.8438 86.5998 43.8109 84.3323C46.7781 82.0647 52.67 77.5506 58.0955 72.785C63.521 68.0195 68.3014 63.1394 71.2767 60.1985C76.4956 55.0397 78.7361 53.1288 80.3008 51.4196C80.8811 50.7952 81.3695 50.2381 81.8774 49.6026C82.205 49.2162 82.6745 48.7001 83.2826 48.1067" />
        <path
            d="M56.2656 87.5772C56.4298 87.5365 56.9842 87.2679 59.1854 85.4509C60.9875 83.9633 63.8956 80.9982 68.0491 76.2941C72.2026 71.5899 77.4406 65.1524 80.9538 61.0661C86.0968 55.4399 88.3853 53.2439 89.4812 52.1921C89.9676 51.7497 90.3125 51.4929 90.7911 51.0422" />
        <path
            d="M75.4688 51.3081C77.009 52.0098 81.1016 53.5246 86.4936 55.3537C88.5865 56.0296 89.3731 56.1931 90.2623 56.412C91.1516 56.631 92.1196 56.9004 93.6209 57.2408" />
        <path
            d="M67.1719 59.3098C67.3361 59.4754 70.6798 61.7234 75.972 65.1562C79.803 67.1757 82.9829 68.3693 85.7424 69.4326C86.2126 69.6263 86.6238 69.82 86.922 69.8962" />
        <path
            d="M53.875 66.949C55.0196 68.2278 58.282 71.2925 62.0498 73.5857C64.9621 75.3581 70.0841 78.0639 72.8276 79.5881C75.5711 81.1122 75.8265 81.2954 76.2338 81.5232C76.6412 81.7511 77.1927 82.0181 78.1842 82.5611" />
        <path
            d="M44.8281 75.2908C44.9786 75.4213 45.1292 75.5518 49.4088 78.0375C53.6884 80.5232 62.0925 85.3602 70.8756 90.4691" />
        <path
            d="M14.3086 32.4681C18.7514 32.008 25.5068 31.8574 25.6725 32.71C25.6664 33.6588 24.8394 37.0761 23.5262 41.7129C22.9917 43.4428 22.7247 43.9077 22.3868 44.3867" />
        <path
            d="M45.5499 20.5815C43.7489 21.8883 43.0901 23.3868 43.0324 24.5705C43.0036 25.162 43.5107 25.776 44.2539 26.3532C45.7273 27.4975 47.9161 27.7479 49.3496 27.7057C49.7023 27.6953 50.0101 27.4652 50.225 27.2499C51.0435 26.4304 50.7857 24.1731 50.3093 22.1774C50.1386 21.462 49.3196 21.1487 48.6585 20.8867C48.0875 20.6605 47.3865 20.8067 46.6862 21.098C46.1129 21.3364 45.7743 21.9344 45.4853 22.5406C45.3466 22.8314 45.338 23.1358 45.3804 23.4376C45.4229 23.7394 45.5457 24.0415 45.7602 24.2234C46.193 24.5906 47.1936 24.5491 48.229 24.4735C48.6728 24.4411 48.8974 24.0983 48.9936 23.8064C49.1835 23.2305 48.7472 22.5455 48.2569 21.9671C48.0022 21.7224 47.7359 21.5768 47.4896 21.6032C47.2433 21.6296 47.0251 21.8324 46.8003 22.0413" />
        <path
            d="M28.5 51.0328C28.9708 51.4135 30.675 52.7716 33.9908 54.4373C37.7336 56.3176 43.1769 55.7864 45.831 55.4391C48.5256 55.0866 50.7301 53.364 54.1313 50.1699C56.3368 48.0988 57.6719 44.4548 59.0685 41.3288C59.7244 39.608 59.9011 38.7387 59.9564 37.9305C59.9752 37.4819 59.9752 36.9552 59.9125 35.9268" />
    </g>
</svg>