<?xml version="1.0" encoding="UTF-8" standalone="no"?>
<!DOCTYPE svg PUBLIC "-//W3C//DTD SVG 1.1//EN" "http://www.w3.org/Graphics/SVG/1.1/DTD/svg11.dtd">
<svg width="100%" height="100%" viewBox="0 0 100 100" version="1.1" xmlns="http://www.w3.org/2000/svg" xmlns:xlink="http://www.w3.org/1999/xlink" xml:space="preserve" xmlns:serif="http://www.serif.com/" style="fill-rule:evenodd;clip-rule:evenodd;stroke-linecap:round;stroke-linejoin:round;stroke-miterlimit:1.5;">
    <path d="M6.2,24.22C11.88,73.484 -0.453,79.402 9.557,81.45C18.838,83.348 38.834,79.657 45.64,80.969C48.387,81.498 86.438,83.786 89.987,83.999C91.152,69.573 90.837,69.686 91.658,55.309C92.455,41.365 90.592,41.435 92.374,27.526C63.464,25.787 63.493,28.159 34.504,25.9C19.457,24.728 19.648,24.326 4.485,22.934C8.669,37.268 25.362,31.925 40.17,58.631C47.639,72.101 61.001,53 66.83,49.045C66.97,48.95 88.665,30.893 89.609,29.209" style="fill:none;stroke:rgb(218,43,177);stroke-width:4px;"/>
</svg>
