<svg xmlns="http://www.w3.org/2000/svg" width="101" height="50" viewBox="-10 -10 121 70" fill="rgba(0,0,0,0)">
    <g stroke="#DA2BB1" stroke-width="4" stroke-linecap="round" stroke-linejoin="round" fill="rgba(0,0,0,0)">
        <path d="m20 3-3 5L7 19l-5 8c-1 2 4 5 12 9l9 7 2 2 3 2" />
        <path d="m63 4-4 6-7 10-8 14-2 4-1 1" />
        <path d="m72 4 3 2c6 4 11 6 13 6l8 5 1 1s1 1-1 3l-10 9-14 11-4 4a188 188 0 0 0 16-12 426 426 0 0 0 11-13" />
        <path d="m73 2 3 2 12 7 9 8 1 1" />
        <path d="m60 3-3 4a483 483 0 0 0-17 26l-2 4-1 1" />
        <path d="m21 2-7 13-7 9-2 3 12 6c5 3 7 7 7 9l2 2h1" />
    </g>
</svg>