<?xml version="1.0" encoding="UTF-8" standalone="no"?>
<!DOCTYPE svg PUBLIC "-//W3C//DTD SVG 1.1//EN" "http://www.w3.org/Graphics/SVG/1.1/DTD/svg11.dtd">
<svg width="100%" height="100%" viewBox="0 0 100 100" version="1.1" xmlns="http://www.w3.org/2000/svg" xmlns:xlink="http://www.w3.org/1999/xlink" xml:space="preserve" xmlns:serif="http://www.serif.com/" style="fill-rule:evenodd;clip-rule:evenodd;stroke-linecap:round;stroke-linejoin:round;stroke-miterlimit:1.5;">
    <g>
        <path d="M38.988,31.479C37.507,29.141 27.958,24.826 27.958,24.826C27.958,24.826 30.188,32.908 28.638,35.374C20.805,47.843 22.385,63.049 35.852,68.024C36.527,68.273 40.12,68.777 40.847,70.944C41.043,71.53 39.014,75.907 33.973,72.385C33.339,71.943 22.512,62.373 18.857,65.204C17.79,66.03 19.962,68.316 21.376,72.271C23.716,78.816 31.705,82.726 33.445,82.812C33.968,82.838 40.467,82.307 38.354,87.064C37.179,89.71 32.463,86.915 27.704,85.606C22.243,84.103 12.567,66.122 12.287,59.431C11.973,51.908 9.838,46.006 17.516,30.08C19.407,26.157 32.894,11.002 54.742,13.4C58.174,13.777 62.718,11.871 76.706,23.153C89.07,33.125 86.658,35.004 88.671,44.969C90.621,54.618 91.926,55.042 86.823,66.316C82.937,74.903 84.027,75.932 76.336,81.273C69.853,85.774 69.254,84.458 62.209,87.892C62.36,81.153 64.119,81.102 62.343,74.63C61.603,71.936 59.135,72.346 57.623,70.024C67.22,71.886 70.4,67.45 73.761,62.57C85.084,46.136 73.383,43.478 74.722,36.619C76.484,27.59 73.308,20.978 61.617,29.743C59.786,31.116 57.664,28.755 50.687,29.006C41.602,29.332 41.663,29.741 41.023,30.213" style="fill:none;stroke:rgb(218,43,177);stroke-width:4px;"/>
        <path d="M32.846,26.347C38.011,22.539 46.698,12.219 46.645,14.183" style="fill:none;stroke:rgb(218,43,177);stroke-width:4px;"/>
        <path d="M43.376,26.809C43.735,26.627 53.541,16.228 56.592,15.164" style="fill:none;stroke:rgb(218,43,177);stroke-width:4px;"/>
        <path d="M54.681,27.092C58.575,23.226 58.779,23.53 62.575,20.5C64.378,19.061 66.751,16.593 66.262,17.82" style="fill:none;stroke:rgb(218,43,177);stroke-width:4px;"/>
        <path d="M26.162,31.646C25.064,32.814 22.207,35.848 13.093,46.836" style="fill:none;stroke:rgb(218,43,177);stroke-width:4px;"/>
        <path d="M21.268,48.122C16.089,54.478 14.082,55.435 13.06,57.655" style="fill:none;stroke:rgb(218,43,177);stroke-width:4px;"/>
        <path d="M24.268,59.431C22.468,60.857 22.869,61.174 20.929,62.556" style="fill:none;stroke:rgb(218,43,177);stroke-width:4px;"/>
        <path d="M80.053,29.502C77.46,32.75 77.337,32.593 75.075,36.126" style="fill:none;stroke:rgb(218,43,177);stroke-width:4px;"/>
        <path d="M85.268,37.295C81.058,41.965 81.304,42.06 77.968,47.295" style="fill:none;stroke:rgb(218,43,177);stroke-width:4px;"/>
        <path d="M87.142,48.044C86.66,48.957 86.243,49.1 82.841,52.309C80.722,54.308 79.994,57.476 74.82,62.783" style="fill:none;stroke:rgb(218,43,177);stroke-width:4px;"/>
        <path d="M87.378,60.717C72.865,67.86 69.205,72.653 62.863,75.475C61.818,75.94 61.842,75.847 61.483,76.168C61.387,76.253 61.716,76.276 61.833,76.33" style="fill:none;stroke:rgb(218,43,177);stroke-width:4px;"/>
        <path d="M77.202,76.868C66.424,79.959 66.661,81.111 64.623,80.695" style="fill:none;stroke:rgb(218,43,177);stroke-width:4px;"/>
    </g>
</svg>
