<svg width="100%" height="100%" viewBox="0 0 151 76" version="1.1" xmlns="http://www.w3.org/2000/svg"
    xmlns:xlink="http://www.w3.org/1999/xlink" xml:space="preserve" xmlns:serif="http://www.serif.com/"
    style="fill-rule:evenodd;clip-rule:evenodd;stroke-linecap:round;">
    <path
        d="M31.8 31.9c-.1 0-29 15.6-29.8 16.6-.2.3.5.7 4.6 2 4 1.5 47.8 13.2 55.2 15 7.8 2 9.7 2.9 12.4 3.7 2.8 1 8.3 4 10.2 4.7.4.2 29.2-13.6 37-17.5 9-4.6 10.3-5.9 11.1-6.5a124 124 0 0 1 16.5-9.4c.1-.2-.5-.7-3.9-2.4l-22.6-10q-1.5-.8-4.4-1.1"
        style="fill:none;fill-rule:nonzero;stroke:rgb(218,43,177);stroke-width:4px;" />
    <path
        d="M106.7 41.9c.9-1.8 2.8-5.7 3.7-7.9l.4-1.5c.2-.6.4-1.1-.3-.6-2.2 1.8-3.8 4-4.1 3.7-2.8-1.9-1-4.8-2.5-6.9-.5-.6-1.2-1.3-1.6.1-.3 1.4-.4 5-.5 6.6 0 1.7-.2 1.4-.8.8a31 31 0 0 0-4.7-4.7c-.4 0-.4.5.1 2.6s1.7 5.6 2.4 8.9"
        style="fill:none;fill-rule:nonzero;stroke:rgb(218,43,177);stroke-width:4px;" />
    <path
        d="M38.2 37c0-2-.5-6-3.2-12.4q-1.1-2.2-1.8-3.3-.5-1.2.3-.4c2.3 2 4.3 5 5.7 6.5q.7.6 1.2-.8.9-3.2 1.6-6.3c.3-.8.5-1.4.9 0 1.3 4.7 1.7 9 2.2 9.8.3.7 15.9-16.3 16.7-17 .5-.6-1.4 15.7-1.4 17.6 0 1.8.1 2.1.4 2.3"
        style="fill:none;fill-rule:nonzero;stroke:rgb(218,43,177);stroke-width:4px;" />
    <path d="M113 25c-.5 0-2.8-.6-6.2-3-2.4-1.7-7.9-4.9-9.3-5l-1.5.2"
        style="fill:none;fill-rule:nonzero;stroke:rgb(218,43,177);stroke-width:4px;" />
    <path d="M62 21c1-.7 1.9-1.3 4.1-2.4l7.5-3.4c1.9-.8 2.1-1 2.4-1.2"
        style="fill:none;fill-rule:nonzero;stroke:rgb(218,43,177);stroke-width:4px;" />
    <path
        d="M78.6 17.2c-.3-.8-.8-5.4-.5-9 .1-1.7 1.1-3.8 1.6-5.6 1-3.8 0 11.8.4 12.4.3.6 3-2.4 7.2-7q3.1-3 5-4.4 1.5-1.6 1.4.1c-.2 4-4 8.1-3.8 8.4 1.7 2 10-7 10-6 .2.8-4.7 5-6.2 10.4-.5 2.1-.5 2.8-.5 3.5"
        style="fill:none;fill-rule:nonzero;stroke:rgb(218,43,177);stroke-width:4px;" />
</svg>