<svg xmlns="http://www.w3.org/2000/svg" xml:space="preserve" style="fill-rule:evenodd;clip-rule:evenodd;stroke-linecap:round" viewBox="0 0 2280 1388"><g transform="translate(503.6 369.65)scale(4.1667)"><clipPath id="a"><path d="M0 0h307v153H0z"/></clipPath><g clip-path="url(#a)"><path d="M149.18 120.4c-.73-.1-48.26-17.25-77.04-14.4-54.5 5.38-70.46 35.7-71.14 36.9" style="fill:none;fill-rule:nonzero;stroke:#da2bb1;stroke-width:2px;stroke-linejoin:round;stroke-linecap:round"/><path d="M148.24 124.55c-32.9-2.4-38.14-14.27-68.8-11.76-52.61 4.3-68.68 32.77-69.53 34.35-.2.42-.37.83-1.18 2.07M155.1 112.37c-.69-.03-43.04-18.65-54.8-26.5C84.03 75 81.79 67.99 65.92 63.63c-3.47-.95-10.88-3.22-15.73-3.18-1.1.02-3.46.9-4.43 1-1.6.17-4.36-1.54-4.36-1.54s-15.45 1.49-16.83 1.4a99 99 0 0 0-7.27-.15c-1.37.01-1.88.04-2.4.16" style="fill:none;fill-rule:nonzero;stroke:#da2bb1;stroke-width:2px;stroke-linejoin:round;stroke-linecap:round"/><path d="M154.8 119.73c-1.37-.18-35.42-12.55-78.64-40.9-21.97-14.42-59.12-7.47-60.5-7.79M152.19 112.6c.2-1.48.32-7.55-1.17-15.41-1.58-8.32-4.07-13.59-4.2-15.12-.52-5.73-7.38-22.58 1-38.4 15.15-28.54 39.34-13.56 39.96-12.56" style="fill:none;fill-rule:nonzero;stroke:#da2bb1;stroke-width:2px;stroke-linejoin:round;stroke-linecap:round"/><path d="M156.05 110.46c.06-.12 2.89-7.82-.82-20.44-1.08-3.71-13.8-34.41 6.09-51.17 10.08-8.49 24.67 1.29 25.18 1.35M150.34 116.25l2.53-.84c2.32-.76 34.65-14.5 51.14-24.88 11.89-7.5 27.8-5.06 42.43-27.58M156.4 119.69c.12-.04 31.87-13.38 40.19-16.58 4.97-1.91 35.17-5.82 41.17-9.35 8.4-4.94 19.5-16.18 20.47-16.88" style="fill:none;fill-rule:nonzero;stroke:#da2bb1;stroke-width:2px;stroke-linejoin:round;stroke-linecap:round"/><path d="M152.91 116.88c.12 0 1.39-.05 7.85-.88 5.27-.68 14.52-2.29 19.69-3.2 5.17-.9 5.97-1.17 9.53-1.69 3.56-.5 9.87-1.26 16.87-1.73s14.5-.64 18.83-.61c7.26.04 10.46.98 12.5 1.56 3 .87 5.92 3.06 7.68 4.32 1.64 1.19 2.6 2.77 3.91 4.52a58 58 0 0 1 6.48 10.82c1.17 2.53 2.01 4.62 2.47 6.4q.56 1.42.95 2.74.24.7.55 1.46" style="fill:none;fill-rule:nonzero;stroke:#da2bb1;stroke-width:2px;stroke-linejoin:round;stroke-linecap:round"/><path d="M154.87 122.8c.06 0 .11 0 3.9-.63 3.78-.62 32.45-4.28 39.88-4.02 16.88.6 31.82 3.33 33.57 4.34 12.15 7 17.53 22.78 18.6 24.19.64.79 3.2 3.3 4.28 4.68M153.2 109.68c.12-.66-3.06-18.31-3.65-20.8-.72-3-6.2-9.96-8.17-11.38-25.43-18.27-37.64-28.19-28.79-42.55 4.18-6.77 20.76-9.7 25.02-23.87.5-1.68.7-8.37.51-9.15" style="fill:none;fill-rule:nonzero;stroke:#da2bb1;stroke-width:2px;stroke-linejoin:round;stroke-linecap:round"/><path d="M152.35 116.8c.34-.95.95-3.21.78-11.38-.09-4.46-4.43-16.03-4.62-19.12-.13-2.18-4.84-6.62-5.84-8.24-1.84-3.02-11.13-2.68-12.35-3.73-2.6-2.25-10.89-7.42-12.94-7.8-1.97-.34-7.66-1.13-12.94-11.3-1.2-2.3-6.38-14.58 4.46-26.33 3.38-3.67 11.07-6.84 16.29-12.29 3.44-3.6 5.99-4.42 5.75-13.1M152.14 117.23c-1.06.02-40.6-9.81-56.87-15.24-12.43-4.14-36.9-18.53-39.58-19.63-15.84-6.48-32.65-1.34-33.13-1.31" style="fill:none;fill-rule:nonzero;stroke:#da2bb1;stroke-width:2px;stroke-linejoin:round;stroke-linecap:round"/><path d="M153.11 119.63c-.74 0-7.46-1.35-13.58-2.64-3.03-.63-7.82-1.95-10.87-2.99-4.9-1.65-8.06-2.96-11.95-4.05-4.94-1.39-25.5-2.46-48.54-12.26-4.3-1.83-15.93-11.83-25.43-13.09-9-1.2-17.82 1.35-18.54 1.28-1.6-.16-4.61 7.76-4.7 6-.36-6.84-6.97-10.75-7.1-9.83-.34 2.25-.64 2.81-.07 4.64.4 1.27 2.93 5.9 3.87 6.58.41.3 1.64.52 2.04.34s1.82-.04 2.01-.44c.4-.84.3-1.28.48-.72.84 2.63 4-1.5 4.56-2.15 1.47-1.69-3.98-9.22-5.9-10.52-1.81-1.22-3.95.53-5.5 1.68-.77.58-.03-.17-.21.87-.3 1.8-.11 4.8-.09 5.5.12 3.07-3.79 5.27-3.34 5.35.96.18 1.88-.13 2.6-.45 1.52-.68 2.37-2.53 2.99-3.88.29-.62-.92-1.18-1.66-1.51-1.5-.68-6.6 4.23-6.51 4.59s1.37 1.14 1.79 1.2M152.35 118.96c-.1-.89.23-14.27 9.67-25.32 4.45-5.22 13.73-1.99 24.48-8.3 7.94-4.66 1.08-9.06 8.76-14.48 11.34-8 16.42.1 26.24-5.62 6.17-3.59-1.13-17 12.68-18.81 5.91-.78 11.28 7.04 16.73 3.33 3.42-2.32 4.35-13.48 3.83-15.5-3.74-14.58 2.04-24.31 2.41-25.03M179.79 110.25c.7-.4 16.84-7.29 20.02-7.78 16.81-2.58 27.49.3 38.27.01 2.4-.06 19.65-1.97 21.79-3.33 1.71-1.1 3.56-10 4.56-11.33 5.23-6.92 10.12-7.42 11.88-7.15.34.06-1.84 4.03-2.75 5.79-1.09 2.1-.75 4.95-1.25 6.37-.54 1.52-2.34 2.15-4.11 3.06-2.12 1.08-5.52 2.12-8.33 3.26-1.35.54 7.15-.24 9.35-.58 13.18-2.02 16.63-8.35 21.75-8.93 2.16-.25 6.46-1 12.43 4.5" style="fill:none;fill-rule:nonzero;stroke:#da2bb1;stroke-width:2px;stroke-linejoin:round;stroke-linecap:round"/></g></g><path d="M1145.07 835.94c-17.12-227.44-98.24-121.2-215.66-177.99-45.48-22-39.75-42.35-55.82-83.95-2.31-5.99-9.7-25.1-48.85-63.58" style="fill:none;stroke:#da2bb1;stroke-width:10px;stroke-linejoin:round;stroke-miterlimit:1.5;stroke-linecap:round"/><path d="M1112.45 847.24c-11.34-88.1 11.85-104.07-45.49-136.23-52.72-29.56-176.56-25.98-195.85-54.58-20.48-30.38 14.56-52.34-37.74-81.4" style="fill:none;stroke:#da2bb1;stroke-width:10px;stroke-linejoin:round;stroke-miterlimit:1.5;stroke-linecap:round"/><path d="M1157.36 868.35s143.96-68.02 166.57-70.45c92.48-9.94 141.94 1.55 196.06-3 32.2-2.72 65.3-13.04 72.49-16.82s15.36-16.7 15.36-16.7l2.81-8.36.09-17.95-.52 22.67 28.05-19.13-26.94 16.63 4.57-6.88s2.58-4.52 3.4-5.26c.82-.73 2.86-21.02 2.86-21.02l-2.45 19.64 20.83-10.53-18.96 8.3s8.23-14.51 13.18-18.28c4.96-3.76 16.78-13.07 16.78-13.07" style="fill:none;stroke:#da2bb1;stroke-width:6px;stroke-linejoin:round;stroke-miterlimit:1.5;stroke-linecap:round"/></svg>