<svg xmlns="http://www.w3.org/2000/svg" xml:space="preserve" fill-rule="evenodd" stroke-linecap="round" clip-rule="evenodd" viewBox="0 0 2280 1388"><g fill="none" fill-rule="nonzero" stroke="#da2bb1" stroke-linejoin="round" stroke-width="2"><path stroke-width="8" d="m1616 512 5-14 16-42c8-22 10-32 12-44l5-11c2-5 14 0 22 0 11 1 29 8 46 12 18 4 47 14 61 16q9 0 11 3l2 3q0 8-3 19c-2 10-8 25-11 33l-16 48-50 111c-15 25-132-18-140-19q-3 0-3 3c-2 6 3 12 7 16 5 4 77 29 102 30l25 1 3 3 2 4"/><path stroke-width="8" d="M1776 577c2-4 7-24 17-50q11-27 17-43l7-22c1-6-16-27-20-29m-132-1-6 17c-5 10-19 51-22 58v4c1 7 87 24 93 26 7 3 32-71 35-80 0-3-95-23-99-23"/><path stroke-width="8" d="M1623 521c0 1 103 33 110 34h8c3 0 41-104 41-107-3-9-32-13-46-19-11-4-62-14-70-15-5-1-30 51-31 55m-14 81-4 7c-3 4-10-2-13-1s-4 4-5 7l1 3c5 5 10 3 12 4 5 5-7 9-7 12s6 3 9 4c2 0 8-7 10-9 5-6 14 1 16 1 6-1 7-7 7-9 2-6-11-6-16-8-4-4 5-9 4-12 0-3-6-2-9-1-8 2-7 28-5 25v-5q-2-3-8-4h-2c3 9 17 8 23 9l8 1c-4-3-26-9-28-9m100 20-5 1-3 3 1 4q2 4 7 4l4-1q3-4 2-9l-4-3h-4v3-1m-30 7-4 1q-2 1-2 4t2 4q3 2 5 0l5-8-2-6h-5q-3 1-4 3l-2 4 2 4 6 1 1-2-3 3m-62 13 15-8h-4l-9 4m26 8 6-2c5-6-13 3-15 4l10-3 9-4m22 13v1l1 4 3 8m8-20 1 3 2 13m10-18 2 3 1 5 1 6m19 51 10-3 5-3q2-1 4-7m-366-182c-3 0-11 0-14 2-5 2-4 11-4 16l5-6q4-2 10-2c6-1-2 11-1 13 2 5 7-12 12-16s-2-15 2-29l1-5q-3-4-7-6c-9 9-18 28-19 34l-1 10"/><path stroke-width="8" d="M1415 474q0 19 4 30-1 2-3 1c-7-3 0-22-2-29-4-8-18-14-28-19-8-4-62-47-70-55-25-29-25-79-25-86q1-3 3-4a40 40 0 0 1 21 6"/><path stroke-width="8" d="M1330 313q-3 3-5 18 0 6 5 18a292 292 0 0 0 24 51q10 16 21 24l44 27 4 1 1-4c0-4-4-6-4-8 0-5 8 11 24 22 17 12 27 11 39 15 2 0-7-12-1-8s22 12 30 13c9 2 37 0 27-10-11-10-58-64-65-82l-7-18c-4-10-44-69-53-79-18-20-43-28-46-40-7-31-36-46-40-49"/><path stroke-width="8" d="M1339 334c7 10 50 41 54 39 6-3-9-29-10-31m12 14c4 4 27 18 28 17s-7-15-11-21m-33 32c20 13 50 37 55 33 4-3-7-16-11-22m10 27c10 8 27 27 37 24 5-2-14-28-16-30m-21-30c8 7 29 24 36 26 1-1-2-8-7-13m8 77c2 2 12 32 27 62q8 8 10 12l4 3"/><path stroke-width="8" d="M1501 499c0 8 21 29 28 42 10 17-15 5-19 11m28-2c12-7 12-10 10-13-8-11-24-30-24-43m-284-256a38 38 0 0 0-8 16c-4 14-1 33 3 41l4 4c10-1 11-17 15-23l3-3 6-5"/><path stroke-width="8" d="m1254 291 16 5c6 2 6-13 6-32 1-13-11-18-17-22l-10-5-6 1-7 6m63-21q-4-1-10 2-6 4-8 9-1 5 1 9c3 9 15 17 27 21 10 4 19-2 23-5q6-7 4-15c-2-8-15-18-23-23l-13-4q-6 1-11 6l-2 4v4"/><path stroke-width="8" d="m1298 235 1 4c0 3 6 4 9 4l3-2q0-1-2-3l-4 1-1 3q2 4 8 5l6-1q2-2 0-4-2-3-7-4m-79-7c-1-1-14-32-7-57 1-7-12-67-20-90-2-8 21 16 28 24 4 5 6 19 9 29l5 30c5 4-2-88-2-91 1-11 11 17 15 26 9 18 8 66 9 68 1 8 11-65 21-73 4-4 3 68 3 70-2 8 18-22 30-34q5-4 7-3c10 2-11 19-15 31q-4 13-7 16-2 1 0 0c10 2 26-19 37-23q2 0-1 2c-6 8-18 31-18 32q3 4 17 5c3 1-4 10-5 14m-68 98 1-2a26 26 0 0 0 8 16l6 3m127 187q-2 6-2 13 1 2 3 0 5-7 9-9c8-2 11 11 14 14q3 1 4-1c-2-11 14-5 16-4 7 5-10-14-14-21-4-8-5-19-7-25-1-4-17-3-16-3 19 4 43 8 50 8l10-2M479 653l-21 6c-8 1-160 25-161 27a18 18 0 0 0-1 14q2 4 5 6c6 3 184-30 186-31 16 1 5-19 3-21"/><path stroke-width="8" d="m312 688-1 13m21-21v22m12-21 1 4q0 5 4 15m13-20 1 5 2 12m17-20v10l1 9m17-21 2 17m13-21 1 6 2 4m18-14v3l1 9m-132 38c1 6 9 26 8 39-7 60 2 79 21 93 6 4 81 35 86 34l27-9c9-2 50-51 52-58 3-14 2-30 3-38l-2-47"/><path stroke-width="8" d="M371 791q-3-2-28-2-7 1-9 5-4 6-1 16c1 5 54 53 62 55q3 0 6-4c7-6 7-21 5-34-2-11-13-21-22-29q-9-6-22-8h-3l-4 1m140-12c-23 18-19 55-18 57s1 2 2 1c6-12 13-33 15-43q1-3-1-8m-140-83-4 22q-2 5-6 4c-8 2-6 20-5 24 2 9 18 2 24 1l14-5c6-4 3-13 4-18q2-2-3-3l-26 1-4 2"/><path stroke-width="8" d="m353 761 3 24v8m126-94-7 6c-5 8-1 17 1 20h12l10-2m-67 62 4 14c2 10-3 73-4 77l-6 13m-63-87-1 3-5 11m-3 7 11-5c3-1 22 3 25 4 12 14-2 31-1 34m-20-218c1-3-9-21-9-22s8-14 10-20c1-6-16-24-17-31-1-6 6-10 5-14m42 205c4 0 30 2 46-12m-40-97-3-16q1-3 7-7c6-4 2-16 0-21l-3-7 2-4m-97 41-2 2 1 2h6l2-3-1-5q-2-2-7-2-2 0-3 2l1 4q1 2 4 1l3-2q3-8-1-18c-2-5-12-3-17-2q-4 3-4 8l1 3 4 2q2 0 1 2c-8 9-16 9-20 14l-1 3c3 5 15 6 22 6l6-6 3-4m122-71-1-4q-4-4-7-4h-4l-2 3 1 3 9 3 2-2q-1-2-6-6a18 18 0 0 1-1-15q1-3 5-4h3c4 5-3 12-4 17-4 12 22-4 29-2q4 1 3 5l-1 3-6 1h-13m775-206c-2 1-52 34-57 39-10 9-1 67 1 69l7 6 10 9"/><path stroke-width="8" d="M1156 402c4 3 18 12 29 15q2 1 3-3 4-7 9-25 8-21 12-24c4-3 13 44 14 47-1 2-26 4-37 3m25-52c8 5 43 35 48 41 3 5-25 13-28 14m-42-1 4 59m31-57v54m37-62-3 45m0 0-10 19m-504 34c-2 1-47-2-51-1-7 0-21 58-22 72q1 12 5 25c3 8 15 37 38 7q4-8 7-18c0-2 5-8 7-7 36 11 70-2 75-3 6-1 12 12 13 19 1 26 52 28 41-12-2-6-6-12-7-31q-8-30-13-40l-4-4"/><path stroke-width="8" d="M697 545c0 3 7 18 22 7 2-2 5-16-5-18s-17 6-18 8m40 23h-6q-2 1-2 3l1 3c1 1 7-1 8-2l1-3q0-2-2-2-7-3-9-1v4l4 2m53-5c0 10 20 10 21 9 6-6-2-11-5-12h-14m32-28-1 4 3 18"/><path stroke-width="8" d="m802 543 30-3q-15-3-21-1l-6 2m-60-3 1 2 2 1q3 1 3-2m15 0h-1v3M581 75c2 3 16 13 6 28q-2 9 5 14c11 5 33-18 34-19q0-4-5-6c-4-4-13-4-15-5-7-5-8-20-15-17q-6 2-9 6l-1 6"/><path stroke-width="8" d="M588 117c-1 1-10 18-4 22 18 11 61-18 57-32 0-1-11-4-14-3q-4 0-7 6"/><path stroke-width="8" d="M586 143c1 0 7 2 8 10 1 7 12 6 17 3 53-21 39-41 33-39"/><path stroke-width="8" d="m602 162-3 2q-3 2-2 9c1 9 43 73 44 80l4 12c4 4 71-20 79-38 2-6-30-28-45-72l-11-18-10-7-8 2-5 4"/><path stroke-width="8" d="M614 175zl5-2 4-2m-3 12 4-2 11-3m-10 17zl4-3m1 16 2-1 6-3m-4 18 2-1 4-3m-3 23 12-5 4-4M618 208c10 5 68-6 79-7 26-3-22-20-74-15q-5 1-13 6M565 63l-10-16c-15-16-24-9-25-8l-1 3c0 2 15 10 19 11l9 5m28-28c0-1 7-26 20-25 8 1-13 19-14 20l-3 3m1038 1043 15 7c8 2 79-2 79-11l-3-8c-13-6-55-15-88 8m-4 10-6 11q-2 1 0 4c12 12 79 16 111 5l6-3m-12-20c4 11 14 23 15 24"/><path stroke-width="8" d="M1614 1096q2 5 4 23c3 18-4 109-4 115q0 3 3 5c13 8 95 14 120-2 5-4-13-54-6-147"/><path stroke-width="8" d="M1624 1127q13-1 25 3c15 4 42 16 40 48-1 14-32 47-65 39l-5-1m-3 27-2 15c0 6 67 19 109 4l2-14m-84-195 5-2h4l6-1M372 1150l-11 13c-5 6-132 89-132 91-1 4 114 59 119 61 12 6 113 45 163 40 8-1 117-114 121-117l4-3"/><path stroke-width="8" d="M226 1257v15q1 5 3 10l1 1c8 8 206 97 254 97 13 0 60-23 70-34 9-10 78-86 83-89 10-8 3-20 0-22-46-25-254-89-257-89h-5m90-140-14-4-20-6-15-4-7 1c-5 2-14 138-11 139 5 3 217 70 221 71q5 3 8 2c2-2 9-34 12-67 2-38 0-79 0-81 0-5-60-24-66-25l-5-1h-5"/><path stroke-width="8" d="M612 1024c2 1 49 14 49 20 6 56-16 191-18 196l-1 4M479 986c-1 0-80-17-84-15-13 11-16 151-17 160l-1 14v3m-3 113-12 1q-14 8-19 18l-6 10c-1 2 12 6 26 11l31 9q11 5 17 5c5 1 8-6 16-12l18-16q3-1-7-5c-10-4-24-6-33-9l-34-10-6-3m15-93q-3-1-14 4l-51 46-2 2 1 3c21 14 200 79 212 82 25 4 69-61 70-64 3-5-15-12-33-20l-174-50-13-2h-4"/><path stroke-width="8" d="m333 1226 61-45 4-3m-34 58 49-45 2-3m-27 60 19-17q25-26 27-32l7-5m19-2-19 26q-7 10-12 15l-7 7m70-41-6 7-35 44v6m59-44-6 8-27 29-5 5-2 4m64-38-16 19-16 22-20 22-5 4m84-58c-7 10-48 61-54 65"/><path stroke-width="8" d="m554 1288-218-71m11-20 29 10 163 53 14 4 2 1m-197-84 23 7 199 63"/><path stroke-width="5.2" d="m419 1010 5 8q1 1-1 2l-3 1m14 9h1l5 1q2 0 3 2"/><path stroke-width="8" d="m1871 382-1-3c-2-4-14-5-28-7l-8-2c-6-5-21-53-18-54 61-47 115-47 123-49h4q4 1 8 8c3 4 12 15 22 55v13"/><path stroke-width="8" d="m1953 265 26 4c5 0 9 19 13 28q4 6 5 15l-18 23-3 3"/><path stroke-width="8" d="m1986 266 23-6c2 0 13 33 14 37l-23 18-3 1"/><path stroke-width="8" d="m1988 277 7-3 6-2 2-1m-14 15 4-2 7-4 7-2m-10 14 5-3 4-2m-13 17zl4-1 6-3m14-31 3 2c6 4 67-13 70-13q3 3 3 6l-57 14-12 3-3 2m-173 35-17 6q-5 1-3 4l8 16 4 9 6 1 16 1"/><path stroke-width="8" d="m1838 341 15-3 9-2 4-1m-30-2 6-1 19-5 8-2m16-18 14 24q6 12 7 13 2 1 5-2c1-7-1-20-3-27q-1-2-4-2m-27 154s-5 8-1 12c4 5 126-20 98-44-1-2-4 1-7 1"/><path stroke-width="8" d="m1878 486 1 25c0 5 121-4 109-52q0-4-4-8m-221 367 1 34c1 3 43 23 48 25l1-4"/><path stroke-width="8" d="m1764 827 59 22-7 17-1 7m41-61 1 35m-2-29-36-16c-22-10-23-15-25-15-12 1-1 34 3 43 9 6 53 27 54 26M1790 784a1716 1716 0 0 0 161-43c13-3 66-16 88-23 14-5 70-27 80-29l16-4c5-1 62 24 67 25q6 1-2 3c-18 6-65 13-78 17-11 4-102 40-130 48l-127 33-4 2-3 2m-1 35 32-8c24-6 234-70 255-77 30-10 59-25 62-28l3-17 1-6m-18 39 33 23c5 4-5 27-5 32-2 10-47 16-77 25l-141 45-54 26c-13 5-32 12-42 14l-16 1q-2 1-5-1m-4-31-3 16v5l2 4m-6-33q-2 0-32-15l-7-4h-6m-12 23a343 343 0 0 0 50 29l9 2"/><path stroke-width="8" d="m1879 875 13-3 88-24 42-12 54-14c19-5 78-26 87-30l41-17 5-1 5-1m0 43 7-1 5-1h6m-406 104 55 25c5 10-4 23-1 31 4 9 90-28 112-36l52-21 85-30 111-32c4-2 2-28 1-30l-2-4"/><path stroke-width="8" d="M1878 940c5-3 247-96 262-104q39-18 47-18l14-4 8-1m-385 109c-1 6-2 21-1 27 11 9 51 25 53 26m-127-103-5 32c-1 10 46 33 48 34 5 0 7-40 6-45zm0-1 23-6 4-2 6-2"/><path stroke-width="8" d="m1793 894 19-3 7-1 7-1m-33 46 21-7q6-2 6-5l1-6m-57-95 14-5 10-5m60-20c2-1 14 4 54-13l27-13m28-2 60-20c7-4 58-19 60-20m-272 87zm5 13zm17-12v1m5 21zm-13-15zm-36 32h1m26 10zm-45 32 1 2m-4 11h-1m98-18zm-38 21 3-1 5-3 5-2m-2 28zm15 23-1-2m-2-7-1-5m62-57 68-16m-20-27 13-4 58-21m27 26 3-2 5-6m-232 37zm11 11zm67 70c10-6 32-14 33-15h3m67-24c5-1 44-13 48-16m54-17 2-1 3-1m-230-287s66 10 93 32c3 2 14 38-14 50-9 4-175 71-176 70-6-5 41-56 44-60l39-51 3-2 3-2"/><path stroke-width="8" d="M1885 601q-2-1-5 1-5 4-6 10c-1 3 3 12 5 13l43 12c19 4 40 21 41 22l2 2m-82-19-12 18q1 3 10 3c3 1 12-10 13-13m-37 31c-1 1-11 23-6 20l19-11v-4m45-1-1 1h-2l1-2m64-46c-22 1-9 20-8 20l3 1m2-11zm-61 12zm-19 27-1 1"/><path stroke-width="8" d="m1793 745 1 9 5 1c5 0 22-14 35-15 2 0 9 9 10 10 2 1 10-5 11-9 0-2 5-6 6-5 4 2 8 9 9 13 2 3 13-19 16-25q1-9 36-10c4 0 12-25 37-17 4 1 24-13 22-38l-2-16-1-4M256 219c-12 1-18 2-26 1l-29-2c-45-5-37 22-37 22 3 5 27 12 47 7 7-2 69-3 72-6l-1-3q-2-3-17-7c-31-5-37-4-41-3l-3 2m-5 24 5 34c1 2-79 127-80 129l-17 15m105-116-76 115-6 6m78-112 9 10c8 7 34 83 36 87 3 9-6 15-8 25-3 10 3 52 39 41 36-10 35-47 13-61q-6-3-31-2-16 1-18 3-4 2-7 6l-1 4"/><path stroke-width="8" d="M401 270c-1 3-107 140-109 143l-3 5m-40-120 37 106 2 6m-35-110 138-32 5-2"/><path stroke-width="8" d="M236 250c-1 4 6 28 9 34 3 3 164-40 169-38 1 0 12 21 12 24-1 12-98 138-106 152l-5 8-3 6"/><path stroke-width="8" d="m404 240-6-16q-3-5-1-9c11-14 80-8 81-6 4 7 9 52-3 57q-1 1-2-1c-5-7-3-37-4-40-3-5-50-4-54-2-2 0-4 10-4 15l1 3 2 6M137 431c-12-6-29 10-22 21l4 5c16 20 38-16 23-24m5 2 136-10m-146 42c10 3 30 7 43 8q19 4 41 6l44 5 8 1"/><path stroke-width="8" d="M174 352c-94-24-136 54-136 59-13 133 93 129 101 128 53-3 84-40 86-47 29-103-26-119-25-122"/><path stroke-width="8" d="M186 340c-2-2-38-26-93-6S9 410 24 477c17 80 117 82 122 81 81-14 102-67 105-99 7-75-41-113-42-110"/><path stroke-width="8" d="M131 442q0 0 0 0l-1 2 2 2m-34-94 27 78 1 3m-5 7-63-56h-3m55 68c-19-6-73-12-74-11m77 24s-46 40-50 45m65-48-4 32-4 38v2m18-63 23 43 8 16 3 2m-27-95c8-3 77-39 79-41m62 50-4 2c-3 3 36 40 41 45 4 3 31-1 33-3q4-6 4-10c2-8-34-1-37-2-4 0-32-32-34-33-1 0-3 10-1 19l3 4m123-191c1 1 62 129 64 129 3 1 5-4 6-6 2-3-52-115-54-118"/><path stroke-width="8" d="M425 304c-22 11-52 47-48 99 12 122 114 109 126 108 10-1 95-28 85-134-7-73-90-105-148-81l-4 5"/><path stroke-width="8" d="M432 315c-23 22-34 26-41 74-3 14 18 103 87 108 29 2 86-16 91-79 6-83-41-120-117-106"/><path stroke-width="8" d="M493 387h-2q4 1 6 4c2 4-1 12-4 16q-12 2-18-1-2 0-3-2m0 4-68 41"/><path stroke-width="8" d="M480 403c-2-1-77 2-81 2h-11m86-4c-8-6-67-38-76-41m87 24-8-72m15 75 42-58m-30 62s57-14 59-16m-61 27 30 6 19 8 13 8m-71-14 46 62m-52-60c-1 3 3 76 2 78m-7-85-39 73-2 3m-37-231-2 2-1 11c1 9 9 14 12 17l3 2h3l3-11 1-3m33-43q2 7-1 20-1 7-3 11l1 1q3 1 5-2 4-5 4-11c0-5 1-14-1-17-1-1-4 3-6 2M171 341zl-2 1-3 2m-1-7-2 1-9 5-5 2m-7-13-4 1-11 4-9 5m-14-4-3 3-11 13-4 4m-8-10-4 4-10 14m-15 3-2 5-10 28m-15 40 2 4 5 6 2 3m4 13-1 4-3 14-2 12m13 0 1 10 2 14m10-7 5 14 3 4 3 3m7-5 3 8q1 5 4 6l2 1m23-1 2 6 3 4 6 2m33-9zl3 1 7 1m8-9 10 3h12m63 57-1-1m-59-69zh4l12-1m9-15 1-1 4-4m32-83 7 10m170-124c-3 2-11 3-16 5l-3 6h-3m-3 18-11 6-6 7-3 4m4 29s-8 19-9 26v9m12 0-6 14v8m18 7-2 23m14-7s1 14 3 18l2 2 2 1m26 1 3 7 4 4 3 2m89 66 2 2 7 8m-18-98v4m3-180-1 2-2 12-2 6m-26-34-1 2-2 8-2 5m-23-18-7 15m-3-15-4 6-9 10"/><path stroke-width="8" d="M390 245c5 0 17-1 23-3 1 0 11 18 17 33 4 8-13 10-20 8-13-3-14-33-14-36l1-3 6-3 2 1a109 109 0 0 1 13 29"/><path stroke-width="6.4" d="M168 867c13 5 23 10 60 16 6 1 10-7 14-8 8-2 20 7 20 8 2 3-7 8-11 12l-11 11c-1 1 2 8 2 8-1 3 26-23 28-22 2 0-7-3-4-6"/><path stroke-width="8" d="M239 911c-2 0-11-11-14-14-1-2-68-18-68-19s5-7 11-9"/><path stroke-width="8" d="M178 867q1-3-4-10c-5-7-16-3-20 0-12 10-11 29-9 32 10 9 19 1 23-2m5-35-5-7v-1c-11-9-20 0-23 1h-3l-4-2"/><path stroke-width="8" d="M144 847c-2 1-12 10-14 30-1 9 7 18 15 15m-19-19c-2 0-105-19-108-34-1-7 10-29 36-29 2-1 27 10 39 15l46 20"/><path stroke-width="6.8" d="M119 848c-9-3-70-32-73-27-5 8 42 21 43 22"/><path stroke-width="8" d="m58 844-10-3-9-3h-3M1529 299c-2 3-14 10-7 41 1 3 14 18 21-2 3-8-6-34-9-39q-1-2-3-3h-1l-3 1"/><path stroke-width="8" d="M1543 280c-3-1-19-8-33 9-4 5-17 24-9 48 12 32 43 28 45 26l6-6v-2l1-2m43-50-6 4-26 32q-5 11-6 17c0 1-1 32 2 34 60 63 93-41 79-64v-3"/><path stroke-width="8" d="M1635 324c-2-3-24-5-39 14-21 27-4 58-2 61m3-94c1 0 24-14 29-37 13-61-44-85-49-86l-6-1c-5 0-38-2-64 54-5 9-4 46-3 50l1 3 2 4"/><path stroke-width="8" d="M1538 274s-5-28 0-45c5-15 14-20 37-29 17-6 28 1 28 1"/><path stroke-width="8" d="M1575 182h4c3-1 65 0 72 74 4 41-14 50-8 69 1 2 3 5-2 20"/><path stroke-width="8" d="M1629 277c2 0 13 6 16 9m-99-3s13 7 17 35l1 18m-63-50c-3 3-24 10-14 57 6 30 45 31 47 30 3 0 18-6 19-7m-44-119a29 29 0 0 1 22-1m76 133 4-4m-12 7zm-69-59zm3 13zM924 335c6 5 38 30 42 31 3 1 156-37 158-36 7 2 6 36 3 36-5 1-149 36-158 28-3-12 1-21 1-25m-51-2 29 15 15 7v-2m-40-49v27m-57-169 10 9q0 2-2 23l-2 15q0 4-2 2l-10-11-10-7q0-2 1-10l2-23 1-7c7 2 11 10 17 13 8 3 18 0 25-1l6-1-1-3c-2-4-11-5-16-9q-6-5-9-6l-18 4-4 1"/><path stroke-width="8" d="m875 99-1 5v27l2 38v12m7-86 208-23q6 2 14 9c4 3 9 67 9 73"/><path stroke-width="8" d="m896 195-1-86a3991 3991 0 0 1 204-22h6M896 205c0 7 2 39 1 40-1 2-17 1-19 1l-2 1"/><path stroke-width="8" d="m896 237 3 11 6 113 1 2m5-239a5405 5405 0 0 1 10 218m7-24 42 33c2 1 134-29 135-30"/><path stroke-width="8" d="m923 290 37 26 14 9c2 2 125-24 126-25 5-3-39-35-46-37l-2 1-128 21"/><path stroke-width="8" d="M923 303c2 1 42 29 47 31 5 3 133-24 134-25m-217-56 3 98c1 3 13 17 15 17l12-3m-7-241 6-2 161-19 12-1 4 1m-17 5 2 65-9 2q-15 3-19 4l-25 5-1 3 1 2c3 4 10 1 14 0l33-4 15-3c5 0 5-5 5-7l-27 7-3 1m-139 17 17-3 25-3c2 0-3 11-1 11l-38 5c-1 0-4-8 8-7m45-34v35q-1 1 3 3c6 2 35 1 37 0 3-2-1-42-1-43-3-1-46 1-51 2l-1 37 1 2 11 6 4 1m0 0v14q-1 4 2 4c12 2 15 1 20 3q6 1 7-1l4-16v-3"/><path stroke-width="8" d="m994 234 1 9q2 2 5 1 2 4 1 9l2 1c4-2 2-11 1-13l-4-2v-7m-20-121 5 49 7 1 2-2v-42m123 26q2-2 6 1 7 2 17 16 6 12 5 17 3 11 2 23c-1 15-4 19-6 22a33 33 0 0 1-12 11l-4 1-4 1m25-72 10-2"/><path stroke-miterlimit="1.5" stroke-width="16" d="M1153 166s13 17-1 46"/><path stroke-width="8" d="M1168 143c1 0 45 96-31 93m29-94-12-4q-5 0-9 3l-8 7-3 4m-55 37 2 30v67m13-183 1 11c0 1 3 176 5 187m18-150-1 9v166m-16-18 1 3 6 9 2 3"/><path stroke-width="15.2" d="M1092 71c0-2 15-66-45-60-64 6-58 74-60 79"/><path stroke-width="8" d="M1000 182q-2 4-1 6 2 3 4 2l2-1v-2l-1-2m-77 30c11-1 43-9 45-9M36 1077q6-4 10-3c6 0 12 11 16 16l11 20 11 22q2 5 8 14l5 12 13 24 10 16q2 5 7 9l4 3c3 1 6-3 8-4 6-1-2-15-10-27l-20-26c-11-14-14-22-17-28l-15-27-14-28-4-7q-5-3-11-1-6 3-10 8-2 1-1 2l7 5 4 2"/><path stroke-width="8" d="m59 1088-7 7q0 4 3 6c2 2 6-1 7-1 4 1 5 8 5 9 1 3-5 5-5 8-1 4 4 6 6 11l7 12 2 2c3 1 6-2 9-1l1 1-1 7 7 9 1 3m43 23s72-53 79-56l118-79c2-5-24-39-25-40-18-27-32-52-36-54l-2-1c-3-1-193 124-195 125l-2 2"/><path stroke-width="8" d="m76 1081 1-8-4-9c-2-7 17-13 21-17l22-16 5-2c3-1 7 3 10 3l2-4-2-4v-2q3-5 20-15l26-17 8-5 22-11q11-6 20-14h2l4 4 4 3"/><path stroke-width="8" d="m84 1055 3 5m7-13v2l3 8m4-12v1l4 4m5-12 4 5 5 4m-2-10 2 2 3 3m19-24 3 4 2 2m4-11q0-2 0 0 1 2 2 3l2 2m2-9q3 3 7 6h2l2-1m2-10zl3 4m6-15 1 2 6 8m-38 89 1 11c2 4 8 4 10 4l4-4q2-6-4-13-2-4-5-4c-3-1-10 7-14 12l-1 4v2h3"/><path stroke-width="8" d="M109 1103c4 23 25 53 49 47 40-10 51-58 12-90-5-5-45-10-58 32q0 9 3 17l2 2 3 3"/><path stroke-width="8" d="M118 1109c2 2 25 2 26 1l2-5m-13 33c1 0 10-3 13-8 4-6 3-14 3-16m17 31c6-19-5-34-7-35l-3-2m4-3c6 1 22 3 26 18m-26-33c3-1 8-7 28 6l4 4m-40-14 2-11 2-5 1-3m-16 29c-2-2-12-16-13-20m72-46c-1 2 5 46 38 49 31 3 44-27 45-32 1-9 1-44-28-52-26-6-48 9-53 31-5 19 2 37 3 37"/><path stroke-width="8" d="M227 1041c2 2 6 13 13 13 4 0 12-6 16-13 2-6-10-23-24-14l-5 8 1 3"/><path stroke-width="8" d="M218 1075c0-3-3-25 14-29m2 3c6 16 27 20 29 19m-8-20c5 3 27-5 26-7m-22-10c12 0 13-16 12-17m-16 13c0-8-16-28-20-28m0 23c-2-5-19-12-27-4m15 17q-7-4-21 6M736 300c-2 1-30 15-27 21 1 2 64 52 98 63l3 2m0 0 13-5c11-5 21-13 22-14q1-1-3-5l-11-11m-24 37-2 2c0 2-12 29-14 39m-83-106c1 10-4 43-4 48s78 60 80 61l2 1m5 0s31-10 43-18c4-3 3-11 3-12"/><path stroke-width="8" d="m845 374-2 6-5 20-2 9v4m1288-111 57 28m-57-28 1 3 6 15 34 26 1 1 2 1"/><path stroke-width="8" d="m2178 334-28 63q-3 2-9 3l-4 1-1 3q-2 9-2 16v8c2 3 47 23 48 23 2-1 12-23 14-27l30-69c1-2-41-22-44-24l-5-2m-24-58-5-1-5 2-3 3v1l12 7 9 4 22 10 10 5 6 3c3 1 0 9-3 14l-4 9-1 2-1 2"/><path stroke-width="8" d="m2154 271 51 9 37 18 5 3q1 2-2 6c0 2 25 14 25 15l-1 1c-1 1-17 0-22-1l-16-5-14 25v2"/><path stroke-width="8" d="m2225 350 5-14c1-1 27 13 28 13s-1-7-6-12c-2-3-20-10-22-11l-4-2m0-3 2-5c1-1-19-13-20-10l-6 12m-11 28-3-1-26 58-1 2c1 2 25 12 25 12 1 1 27-59 27-62 1-3-18-8-19-9h-1M2146 437l-9 20-102 193c0 4 22 13 23 13 3 0 27-49 29-54l77-153 2-3"/><path stroke-width="8" d="m2049 661-5 14h-2q1-8 4-14l1-5m172-338zl3 1m-7 11zh3m-63 122zh2l2 1m-11 10 2 2 5 4m-17 13 1 1 6 5m-11 10h2l6 2m-20 12zl3 2 4 3m-12 10zh1l2 1m-11 10 1 2 6 4m-14 5 2 2 1 3m-15 22 2 2 1 3m-11 10 1 1 2 2 4 3m-10 6 1 2 2 3m-15 5 2 1 5 5M547 812l36-31m-37 36 37 8c2 0 29-22 29-23m-28-21 28 18"/><path stroke-width="8" d="m612 798 2 12 2 17 1 6m-30-5 1 30c1 2 27-21 28-23m-68-19 9 38 29 4m1115 14-12-6q-4-1-8 2c-3 2 5 20 9 22 2 1 14 5 16 4l6-4c0-4-14-16-16-15"/><path stroke-width="8" d="M1680 872c-1 1-21 28-23 33-1 3 8 27 33 25 2 0 18-32 19-35l2-3M191 749q-5 1-14 7-9 9-8 12 2 5 6 7l16 1q9 0 14-5c10-7 11-12 12-15v-2c-1-3-10-5-15-5h-3l-3 2"/><path stroke-width="8" d="M171 771c2 5 5 19 9 21 15 9 31-3 37-7 15-10 9-25 2-29"/><path stroke-width="8" d="M193 797c-4 5 28 40 29 39v-53M1717 192c2-2 29 0 29 2 0 7-14 22-15 23-7 4-19-4-27-7l8-10 5-6m-12 18 4 22m19-13 8 29"/><path stroke-width="8" d="M1746 191q1 8 7 34c0 6-9 18-14 23m-3 1-26-11m-200-124 4 20 4 21c-3-5-17-8-19-7q-2 3-1 8c1 2 5 8 11 8l12-1c4-1-9-50-8-53 3-8 29-3 30-4l2 42c2 4-9-12-11-13h-1c-3 3 3 13 6 17l2 1h1l1-1v-3"/><path stroke-width="8" d="m1513 157-2-1q-1-1 0 0l11 1-1-1-4-1m92-49-3 40q-1 9-2 5a29 29 0 0 0-13-14h-5c-3 2 2 7 5 10q6 6 12 5l-2-4-2-1m76-61c0 4 1 24 13 48q4 10 3 11c0 3-9-14-17-11l-2 5c1 3 12 14 18 10q-1-5-9-8l-2-1m-13 927 3-1 7-1m-388-510 5 4 5 4 10 1M725 948l42 15m-45-10 3 40 56 19c2-2-12-45-12-49M723 949c5-3 41-20 51-19 9 0 25 3 28 7 7 5-34 21-37 23"/><path stroke-width="8" d="M804 937c0 1 11 50 10 51l-30 25m1050 77c-2 1-17 7-20 10-3 2-2 19-2 21l1 4"/><path stroke-width="8" d="m1815 1104 10 3a1106 1106 0 0 0 118 25"/><path stroke-width="8" d="M1833 1093c1-1 19-14 20-13 31 7 125 24 138 25q29 1 30 4c1 8-30 26-35 28-3 1-42-4-50-5l-11-1"/><path stroke-width="8" d="M2020 1112v18l-1 19c-3 4-35 11-38 12-3 0-61-6-110-16l-56-20m52-25 10 1 9 2 10 3"/><path stroke-width="8" d="m1890 1100-9 6-1 2c1 2 4-4 6-6q2-3 0-1l-15 10"/><path stroke-width="8" d="M1873 1092c-2 0-15 4-16 7-1 2 0 14 20 19 13 3 31-1 39-11 6-9-13-14-15-14l-5 1m31 20zm4-8h2m13 1zm-5 11zm29-9-2 3m-7 6zl-2 1m20-9zm-8 13-5 1m39-14c-1 1-1 5-4 0h2m-34 35v1l1 3 1 3m55-62c1 0 34 54 5 97m35-114c37 68 3 114-2 121m43-121c3 1 44 73 3 138m-103-249 17 9 10 4 8 3m-40-14c-13 12-49 39-46 41l17 4 12 3"/><path stroke-width="8" d="M1986 1013c-2 3-39 29-46 36-8 7 53-21 70-27l17-6c5-5-8-10-11-13-7-8 22-15 28-18q3-3 1-5l-5-5m-163-591 6 74-1 5m86-118v3c-2 4-22 10-26 11-14 4-11 21-9 34l6 26c2 5 18 13 21 16l12 9"/><path stroke-width="8" d="m1951 357-1 32-11 4-3 3m-60-17 25-3c11 0 4 33 4 48a32 32 0 0 1-9 21l-8 5c-2 0 3-10 6-19 0-2-7 4-9 5-12 3 12-31 15-40 1-4-7 9-8 11-4 5 6-13 7-20 2-4-8-1-11-1-6-1 8 11 9 16q3 8 2 20c0 5-7 9-10 14 2-5 6-33 6-49l-4-2"/></g><g fill="none" fill-rule="nonzero" stroke="#da2bb1" stroke-linejoin="round" stroke-width="1.2"><path stroke-width="4.8" d="m2171 400 6 5 3 1 2 2M2190 362l4 1 5 2h2l1 1M2197 373l-3 7h-1l-3-1-1-3v-3q-1-3-4-2l-2 5v2M2188 392l-9-3h-3l-1 5c0 2 5 3 7 4l2 1 2-2 2-3"/><path stroke-width="4.8" d="m2171 400 6 5 3 1 2 2M182 758l26 10M205 751c-11 12-25 19-25 20M218 789c1 12-13 21-14 24"/><path stroke-width="4.8" d="M218 789c5 23-6 33-7 34M749 300l-12-2q-3 2-3 3c1 4 10 9 14 11q2 1 3-2-1-5-4-8l-2-1m17-10-1 1q-3 3 1 7 2 4 12 7h5l1-3-13-12h-3m1 29q-1 0-1 3c0 5 6 12 18 13 2 0-1-9-6-14l-3-2h-3m26-3c0-1-8-1-9 2-3 8 21 13 21 13s5-3-8-14m-2 25h-8c-5 4 5 15 16 11l2-1 1-1-5-6-2-1m14-4v1q2 5 9 8l4 1 1-1q-1-5-12-11l-7-4"/><path stroke-width="4.8" d="m732 306 2 17q1 4 7 5c4 2 8-3 9-4v-10m11 7c-1 4-3 16-2 19q1 2 12 8h3l1-2c1-1 8-8 8-10m5 8c0 2-4 10-3 11q0 3 6 8l13 5 2-5 2-9m20-1c1 5-2 14-3 15s-8 2-13-4c-1-2 2-17 1-18m-6-13-1 10m-20-19 1 7 3 3 15 7m-57-44c-1 1 10-1 11 3l1 10 5 3m16-6c-1 1 4 11 2 12-1 0 1-10-10-5q-1 0-4-1"/></g></svg>