<svg xmlns="http://www.w3.org/2000/svg" viewBox="0 0 2280 1388">
  <g fill="none" stroke="#da2bb1" stroke-width="2" stroke-linecap="round" stroke-linejoin="round" transform="translate(-124.34 -34.24) scale(4.1667)">
    <path d="M352.49 125.1c-.05-.5-.09-1.67.16-2.14.54-1.04 3.77-3.22 3.04-6.3-.33-1.4-5.24-2.5-7.42-1.35-1.45.78-4.3 3.34-5.7 9.06-.08.3-.1.58.13 1.66M353.52 125.1c.3.13 8.74.7 16.1 3.01.79.25-2.15 4.95-1.44 5.38 2.08 1.28 8.35-.42 10.08.04.6.16-2.41-4.52-1.92-4.36 2.75.89 4.07 1.83 4.2 3.15.31 3.25-25.07-.06-26.58-.36q-.56-.16-1.11-.23-.57-.06-1.13-.05"/>
    <path d="M362.3 133.35c1.21.56 4.03 1.95 4.63 3.13.16.3.12.67.01.94-.46 1.17-2.52 1.07-5.32 1.07-1.9 0-4.9-.85-8.85-2.16-1.67-.56-2.6-1.67-3.47-3.09-.2-.34.21-.8.48-1.03q.8-.43 2.98-.37c.78.05 1.6.19 2.97.33"/>
    <path d="M352.28 135.55c-.6-.02-4.14.08-6.41.65-.33.08-.24.67-.17 1.02q.1.54.47.89c.5.48 4.51 1.61 10.54 3.3 3.53.99 5.06 1.04 5.6.84 2.6-.99-.84-2.85-.64-3.09M350.69 140.92c-2.21.08-6.67.52-6.75 1.08-.2 1.3 3.25 2.45 6.75 3.6 2.64.4 5.17.59 6.43.1 1.53-.6.64-2.44-.92-2.82M342.11 126.17c-.47.14-6.01 3.53-4.1 14.41M411.26 142.37c.3-.34 9.16-13.61 5.02-13.45-1.3.05-5.44 5.17-5.74 6.5-2.11 9.17-3.54 14.63-4.15 17.05-.18.7 4.9-10.3 4.87-10.1-.06.5-5.6 13.9-5.61 14.55M457.53 153.2c-.1-.4-1.88-4.9-2.68-5.96-.9-1.17-2.86-2.22-3.86-1.56-2.48 1.65-.3 5.92.4 7.7 1.14 2.81 5.5 3.7 5.7.96"/>
    <path d="M450.16 152.38c-1.14-.37-3.68 1.6-3.15 3.42.37 1.3 1.5 6.83 5.02 7.2a5.6 5.6 0 0 0 3.06-6.98"/>
    <path d="M447.93 160.44c-.18-.22-.72-1.52-1.36-.98-5.16 4.36-.47 9.32.77 10.48.52.49 4.89 1.29 3.96-3.81-.01-.47-1.1-3.67-1.78-4.74"/>
    <path d="M443.2 165.44c-.8-.14-2.88-1.34-3.9-.28-2.48 2.58-.89 5-.3 5.72 1.19.77 2.7 1.2 4.12 1.47.32.07 2.54.74 4.11-1.08M405.08 158.22c0 .7.11 2.7 1.27 4.5 1.03 1.6 4.48 3.74 4.74 3.93s.5.38 1.17 1.05M407.72 147.04c-.68.54-.61.3-1.32 1.44-.55 1.2-1.78 1.94-3.92 3.66-.47.47-.7.82-1.09 1.7M408.91 173.9c.11-.54 3.13-7.9 16.77-3.66 2.64.82 12.88 4.08 16.06 2.77.31-.12.67-.2 1.29-.6M400.7 153.25c-.26.26-1.18 1.18-1.99 2.46q-.65 1.1-1.02 1.91c-.1.28-.16.56-.5 1.65M139.73 156.32a4 4 0 0 0-1.07-.2c-1.38-.14-3.33 3.92-3.32 4.58.07 2.85.5 4.7.96 5.08M141.33 164.01c.2-.42.65-1.55 1.25-2.05 1.62-1.32 10.34 1.58 11.07 1.5M152.61 164.34c-.34.57-1.08 2.07-2.05 3.71a23 23 0 0 0-2.56 7.08c-.03.63-.03 1.6-.03 2.61"/>
    <path d="M158.24 162.04c1.13 5.86-7.31 21.6-7.83 21.8-1.12-.62-1.18-4.66-1.83-5.22-.36-.26-.93-1.25-1.48-1.68M141.14 154.98c.36.16 8.09 1.2 8.34 1.18 6.78-.49 9.6-2.74 10.66-2.3"/>
    <path d="M157.53 170.65c.36.14 3.35 1.39 6.72.19 4.35-1.56 3.88-8.64 3.8-10.39-1.5-4.58-5.3-6.06-7.17-7.34M208.36 126.6c-.12 1.05-2.08 7.82.09 9.25 1.41.94 3.94-4.27 4.08-5.26.39-2.76.69 3.8 1.03 4.29.18.25.52.4.92.45 3.87.5 3.57-4.46 3.81-5.12.62-1.7.07 3.52.4 4.14 1.1 2 4.55 1.04 4.99-.05.21-.55.05-1.59.08-2.25.01-.25.38 1.14.7 1.63.33.53 2.64-.08 2.84-.35 1.1-1.47.36-4.26-.63-5.67-4.49-6.4-18.38-5.49-19.64-4.7-2.7 1.7-1.45 5.76-1.32 6.16M208.29 147.09c.31.23 6.97 2.31 12.11 1.34.85-.16.96.89.93 1.38-.05.88-1.61 2.78-9.5 1.96a7 7 0 0 1-4.08-1.8 6 6 0 0 1-.57-1.26M424.74 240.18c1.53 1.44 8.27 9.77 8.66 10.53.87 1.67-2 9.72-3.78 9.64s-2.06-6.43-2.5-8.4c-.39-1.82-6.3-3.89-8.3-2.07-3.99 3.67 3.44 11.16 3.65 12.03.1.44-1.35 2.27-3.63 2.32-3.33.07-5.33-6.78-8.09-8.83-2.2-1.64-4.03-3.94-4.49-5.91.88-1.82 5.06-5.84 6.22-6.42M431.65 246.16c1.38-.75.1-2.43.03-2.5-.4-.32-2.55-2.7-3.38-3.64"/>
    <path d="M431.65 242.25c.07-.2.74-.88.43-1.87-1.75-5.62-7.98-6.2-10.34-6.46-8.3-.94-10.9 2.62-12.5 4.16-.39.45-.77.97-1.47 2.34M147.59 243.14c-.65.29-7.96.27-8.37 11.95-.1 3.09-.27 8.94 1.77 7.46 1.54-1.66 2.3-3.71 3.1-5.44.23-.42.5-.83.79-1.35"/>
    <path d="M145.08 252.02c-.11.74-1.42 10.86 1.27 11.5 2.35.56 3-5.48 3.43-7.64.23-.55 1.76-2.26 2.28-2.64M152.68 250.45c-.28.66-.7 4.04-.79 11.14-.02 1.93.23 3.92 1.48 4.11 2.3.36 2.82-4.06 3.31-6.86.15-.6 1.2-2.38 1.61-2.8M166.69 246.15c0 .02.7 1.75 2.14 2.54 2.15 1.16 5.45 1.57 6.58 2.02.23.09.34.84.29 1.6-.19 2.82-4.54 2.93-5.7 2.77a7 7 0 0 1-1.43-.53M158.72 250.94c-.26 1.15-.1 3.57-.03 6.3.05 2.05.32 6.9 2.4 6.92.5 0 1.05.03 1.51-.21.46-.25 1.3-5.83 1.58-8.6M148.17 241.68l.43-.05c.36-.06 1.06-.17 1.65-.2s1.05.05 1.74.12M164.99 245.83q-.11.01-1.41-.67-.61-.4-1.22-.74a8 8 0 0 0-2.13-.6"/>
  </g>
</svg>