<?xml version="1.0" encoding="UTF-8" standalone="no"?>
<!DOCTYPE svg PUBLIC "-//W3C//DTD SVG 1.1//EN" "http://www.w3.org/Graphics/SVG/1.1/DTD/svg11.dtd">
<svg width="100%" height="100%" viewBox="0 0 100 100" version="1.1" xmlns="http://www.w3.org/2000/svg" xmlns:xlink="http://www.w3.org/1999/xlink" xml:space="preserve" xmlns:serif="http://www.serif.com/" style="fill-rule:evenodd;clip-rule:evenodd;stroke-linecap:round;stroke-linejoin:round;stroke-miterlimit:1.5;">
    <g transform="matrix(1.25582,0,0,1.25582,-14.7774,-15.1937)">
        <path d="M27.143,18.099C13.629,20.566 18.077,27.726 16.938,48.133C16.574,54.644 18.421,59.97 17.472,75.104C16.801,85.781 23.308,86.334 50.026,85.79C79.563,85.188 80.545,84.215 82.395,82.382C90.015,74.831 82.49,63.775 83.992,38.281C84.752,25.391 87.415,21.053 76.405,18.91C67.515,17.179 67.499,18.048 27.844,18.579" style="fill:none;stroke:rgb(218,43,177);stroke-width:3.19px;"/>
        <path d="M26.478,27.695C25.113,29.428 22.051,38.171 33.388,38.591C36.644,38.711 39.369,39.934 41.626,32.182C43.672,25.158 36.046,23.676 31.618,24.726C28.154,25.548 28.243,27.143 25.537,31.281" style="fill:none;stroke:rgb(218,43,177);stroke-width:3.19px;"/>
        <path d="M30.315,43.676C25.802,42.775 28.145,47.884 26.952,53.632C25.831,59.036 27.515,61.446 27.208,77.969C29.638,78.321 36.035,79.952 37.226,75.802C37.955,73.26 39.903,58.397 39.731,49.266C39.659,45.422 38.763,43.356 29.008,44.243" style="fill:none;stroke:rgb(218,43,177);stroke-width:3.19px;"/>
        <path d="M42.652,44.042C39.898,46.362 44.133,48.28 43.51,68.963C43.307,75.728 43.139,77.6 49.877,78.12C56.431,78.625 50.433,47.034 60.949,52.857C68.888,57.253 65.783,72.098 65.492,76C70.742,77.598 70.819,76.773 76.29,77.509C80.449,67.653 74.941,59.832 75.506,53.034C76.32,43.243 73.246,41.478 66.96,40.773C60.904,40.095 59.994,41.022 53.997,46.895C54.077,42.005 51.913,43.275 46.983,43.094C45.911,43.054 42.293,41.885 42.78,45.757" style="fill:none;stroke:rgb(218,43,177);stroke-width:3.19px;"/>
        <path d="M17.519,27.623C29.88,21.231 30.057,18.295 29.985,19.484" style="fill:none;stroke:rgb(218,43,177);stroke-width:3.19px;"/>
        <path d="M18.24,31.692C21.277,29.373 27.053,25.747 27.836,25.256" style="fill:none;stroke:rgb(218,43,177);stroke-width:3.19px;"/>
        <path d="M33.509,23.817C38.432,22.645 42.56,19.431 43.254,19.103" style="fill:none;stroke:rgb(218,43,177);stroke-width:3.19px;"/>
        <path d="M17.542,46.95C22.125,43.21 22.89,44.326 27.1,40.234C27.253,40.085 27.254,40.122 29.175,38.564" style="fill:none;stroke:rgb(218,43,177);stroke-width:3.19px;"/>
        <path d="M42.402,32.32C51.993,26.718 52.89,27.582 56.5,23.963C56.729,23.734 58.179,22.281 59.702,21.493" style="fill:none;stroke:rgb(218,43,177);stroke-width:3.19px;"/>
        <path d="M16.836,39.281C17.38,39.024 18.286,38.597 23.454,35.708" style="fill:none;stroke:rgb(218,43,177);stroke-width:3.19px;"/>
        <path d="M42.328,26.082C43.252,25.593 53.077,20.393 53.967,20.143" style="fill:none;stroke:rgb(218,43,177);stroke-width:3.19px;"/>
        <path d="M17.851,55.318C22.756,52.28 22.714,52.4 27.515,49.163" style="fill:none;stroke:rgb(218,43,177);stroke-width:3.19px;"/>
        <path d="M35.739,43.199C44.731,36.112 46.448,38.479 64.638,25.87C67.953,23.571 71.278,22.416 71.892,22.203" style="fill:none;stroke:rgb(218,43,177);stroke-width:3.19px;"/>
        <path d="M52.498,43.247C62.745,36.338 62.504,35.695 74.458,32.557C79.726,31.174 82.239,27.876 84.433,27.255" style="fill:none;stroke:rgb(218,43,177);stroke-width:3.19px;"/>
        <path d="M71.979,41.011C80.083,36.098 79.819,35.601 83.065,35.055" style="fill:none;stroke:rgb(218,43,177);stroke-width:3.19px;"/>
        <path d="M16.461,65.657C17.346,64.339 26.457,60.25 27.481,59.481" style="fill:none;stroke:rgb(218,43,177);stroke-width:3.19px;"/>
        <path d="M38.674,56.045C40.537,55.259 40.331,55.084 42.169,54.27" style="fill:none;stroke:rgb(218,43,177);stroke-width:3.19px;"/>
        <path d="M16.834,73.682C19.876,72.109 25.93,67.734 26.696,67.18" style="fill:none;stroke:rgb(218,43,177);stroke-width:3.19px;"/>
        <path d="M38.06,65.182C39.509,64.287 39.421,64.27 40.823,63.39" style="fill:none;stroke:rgb(218,43,177);stroke-width:3.19px;"/>
        <path d="M53.611,63.097C58.195,61.096 58.246,61.33 62.565,58.856" style="fill:none;stroke:rgb(218,43,177);stroke-width:3.19px;"/>
        <path d="M76.178,52.277C77.191,51.38 78.283,50.094 80.629,49.108C81.536,48.727 81.427,48.663 82.149,48.025" style="fill:none;stroke:rgb(218,43,177);stroke-width:3.19px;"/>
        <path d="M18.419,81.546C23.536,78.574 23.752,79.064 28.607,75.556" style="fill:none;stroke:rgb(218,43,177);stroke-width:3.19px;"/>
        <path d="M38.033,72.521C38.479,72.36 39.037,72.159 43.217,69.648" style="fill:none;stroke:rgb(218,43,177);stroke-width:3.19px;"/>
        <path d="M31.361,86.577C35.008,84.481 64.667,71.235 65.095,71.153" style="fill:none;stroke:rgb(218,43,177);stroke-width:3.19px;"/>
        <path d="M54.603,85.251C55.625,84.68 64.707,79.607 67.136,77.696" style="fill:none;stroke:rgb(218,43,177);stroke-width:3.19px;"/>
        <path d="M77.399,73.188C82.661,70.321 83.321,69.157 83.626,68.62" style="fill:none;stroke:rgb(218,43,177);stroke-width:3.19px;"/>
        <path d="M78.701,67.097C82.337,64.28 82.903,63.545 83.195,63.166" style="fill:none;stroke:rgb(218,43,177);stroke-width:3.19px;"/>
        <path d="M69.105,85.6C71.322,83.884 81.928,80.342 86.03,77.209" style="fill:none;stroke:rgb(218,43,177);stroke-width:3.19px;"/>
    </g>
</svg>
