<svg width="107" height="121" viewBox="0 0 107 121" fill="rgba(0,0,0,0)" xmlns="http://www.w3.org/2000/svg">
    <g stroke="#DA2BB1" stroke-width="4" stroke-linecap="round" stroke-linejoin="round" fill="rgba(0,0,0,0)">
        <path
            d="M32.7928 41.0157C32.7561 41.517 33.0375 43.726 33.3669 47.9158C33.732 52.5599 33.3616 55.6462 33.254 58.276C33.1273 61.3711 33.1203 62.8451 33.0276 66.3376C32.9625 68.7918 33.0087 73.4011 33.0318 76.8297C33.0692 82.3676 33.2374 85.5293 33.3945 87.1707C33.6951 90.3105 33.3875 94.7897 32.5209 95.8479C31.7449 96.7956 30.1305 96.8849 27.006 97.0121C25.9252 97.0561 25.2593 96.9102 24.5101 96.7065C23.3949 96.4032 18.822 94.2544 12.696 91.3876C9.25714 89.7783 6.77567 88.8126 5.18397 88.06C3.4318 87.2316 2.63261 86.8893 2.22853 86.3865C1.99907 86.101 1.92128 85.6178 2.09337 80.3237C2.26546 75.0297 2.74123 64.9046 3.12719 58.3896C3.51315 51.8746 3.79489 49.2765 3.96125 46.2299C4.31383 39.7733 4.16118 35.7206 3.95197 34.4751C3.67591 32.8317 3.22898 31.6317 3.28731 31.0424C3.34922 30.4168 7.23726 29.2782 14.3545 26.9767C18.1409 25.7522 22.1496 24.0214 26.218 22.0387C30.2864 20.056 34.2592 17.7737 36.635 16.3693C39.6996 14.5579 42.985 11.6608 47.1646 7.85536C49.1261 6.06945 50.4918 4.27113 52.1541 2.37999C52.7127 1.74451 52.9596 2.02913 53.2066 2.38279C54.8446 4.72874 57.2932 7.23935 61.3269 10.7186C63.4318 12.5342 67.3125 14.8603 69.8247 16.4184C72.3369 17.9766 73.5046 18.5183 77.8557 20.3873C82.2069 22.2562 89.7061 25.4361 94.1141 27.3228C99.6227 29.6805 101.161 30.3472 101.96 30.6048C102.334 30.7255 102.634 30.8599 102.598 35.6173C102.562 40.3748 102.179 49.7599 102.249 57.6464C102.318 65.5329 102.852 71.6364 103.164 75.1465C103.634 80.4403 104.116 82.9631 104.172 86.658C104.188 87.7033 102.641 88.9077 98.8433 91.5157C96.217 93.3192 91.9347 95.7407 89.5947 97.1506C87.2547 98.5605 86.9263 98.7942 85.0333 99.9859C79.7053 103.34 75.5637 105.972 74.4966 106.753C73.6623 107.363 70.9358 109.023 67.0871 111.57C63.6618 113.836 59.8912 115.935 57.3577 117.329C56.7978 117.638 56.3294 118.011 55.8248 118.239C54.5409 118.818 52.6137 117.772 51.2894 117.1C48.6962 115.785 45.8489 114.015 43.4163 112.657C42.5275 112.151 41.8996 111.772 41.3907 111.427C41.1303 111.245 40.8654 111.05 40.3416 110.6" />
        <path
            d="M85.0706 50.9642C84.8601 49.8458 84.2011 47.2207 82.9787 44.4963C82.0236 42.3676 79.8994 41.3111 76.5868 39.9352C74.2428 38.9617 72.6203 39.1125 66.8421 38.9584C64.5207 38.8965 63.1126 39.444 61.4144 40.2337C59.1734 41.2757 58.411 42.7893 56.7971 44.8951C55.596 46.4623 55.1183 50.0877 54.9408 53.5536C54.8518 55.2925 56.6059 56.4804 57.8467 57.3905C59.2668 58.4322 61.9198 59.1191 63.8861 59.5612C64.6871 59.7413 69.2935 59.9367 76.1112 60.3507C80.8267 60.6372 82.1446 61.6938 83.2626 62.4386C84.4426 63.2246 84.9586 65.4836 85.2485 67.2219C85.637 69.552 84.4752 72.0839 82.808 75.3804C82.0934 76.7933 80.4817 77.9975 78.5246 79.3272C73.7552 82.5675 70.3227 82.4827 68.893 82.7331C66.7972 83.1001 63.3224 81.8871 61.1817 80.9471C57.8955 79.5041 56.7578 77.5977 55.274 75.9821C52.0457 72.8736 51.1026 71.6415 50.5478 70.5358C50.3907 70.2356 50.2044 69.909 49.8242 68.9015" />
    </g>
</svg>