<svg xmlns="http://www.w3.org/2000/svg" xml:space="preserve" fill-rule="evenodd" stroke-linejoin="round" stroke-miterlimit="2" clip-rule="evenodd" viewBox="0 0 100 100">
  <path fill="#818181" d="m.5 44 8.7.3-2.8-8.1V36l6.8 5.3 2.5-8.2V33v.1l2.5 8.3 6.9-5.3-2.8 8.2 8.7-.2-7.3 5 7.3 4.8-8.8-.2 3 8.2-7-5.3-2.5 8.4-2.5-8.4L6.3 62l3-8.2-8.8.3 7.2-5z"/>
  <path fill-rule="nonzero" d="M41.5 56.9q-1.4 0-2.6-.6-1.1-.6-1.8-1.7t-.6-2.5v-4.5q0-1.2.6-2.5.6-1.1 1.8-1.6t2.6-.6 2.6.6q1 .6 1.7 1.6.7 1.3.7 2.5v4.5q0 1.3-.7 2.5-.6 1-1.7 1.7t-2.6.6m0-1.9q1.2 0 2-.8t.7-2v-4.6q0-1.2-.7-2-.8-.8-2-.8-1 0-2 .8-.7.8-.7 2v4.6q0 1 .8 2 .8.8 1.9.7m12-12q1.2 0 2.2.6t1.4 1.4q.6 1 .5 2.2 0 1-.5 2t-1.5 1.5q-1 .5-2.2.5h-3.2v5.3l-.1.2H48V43.1l.1-.1zm-.3 6.3q1 0 1.6-.5t.6-1.6-.6-1.6-1.6-.6h-3v4.3zm9.9 7.6q-1.4 0-2.7-.5-1-.4-1.7-1.3t-.7-2.1v-.5l.1-.2h2.1v.6q.2.9.9 1.5 1 .6 2.1.6 1 0 1.8-.5.7-.5.7-1.3 0-.6-.4-1-.3-.4-1-.7l-1.8-.8q-1.1-.3-2.2-1-.9-.3-1.4-1.1-.6-1-.6-2 0-1.6 1.2-2.7 1.3-1 3.4-1a6 6 0 0 1 2.5.6q1 .4 1.8 1.4.6 1 .6 2v.6h-2.2V47a2 2 0 0 0-.8-1.5q-1-.8-2-.6-1-.1-1.7.4t-.6 1.3q0 .5.3 1l1 .6 1.9.8 2.2 1q.8.3 1.4 1.1.6 1 .6 2 0 1.6-1.3 2.7-1.3 1-3.5 1M77.9 43l.2.1v1.8l-.2.1h-3.6v11.5l-.1.1-.2.1h-2V45h-3.6l-.2-.1V43H78m8.7 13.7q-.3 0-.3-.2l-.7-2v-.2h-5.2l-.1.1-.6 2.1-.3.2h-2.1v-.3l4.2-13.1.2-.2h2.4q.3 0 .3.2l4.3 13.1v.2l-.2.1zm-5.7-4.3v.2h4q.3 0 .2-.2L83 46H83zm16.5 4.3q-.2 0-.3-.2L94.6 51H92v5.6l-.2.1-.1.1h-2V43h5.5q1.2 0 2.2.4.8.5 1.4 1.4.5 1 .5 2.1t-.7 2.3q-.7 1-2 1.3v.1l2.8 5.7v.1q0 .2-.2.2zM92.1 45v4h3q.8 0 1.5-.5.6-.7.5-1.5t-.5-1.4q-.8-.6-1.5-.6zM15.7 49h8l7.3-5z"/>
  <path fill-rule="nonzero" d="m22.2 53.7 8.8.2-15.3-5z"/>
  <path fill-rule="nonzero" d="m25.1 36-2.8 8.3-6.6 4.7zM15.7 49l9.5 13-7-5.4zM15.7 33v16l2.5-7.6z"/>
  <path fill-rule="nonzero" d="m13.3 56.6 2.4 8.4V49zM13.3 41.4l2.4 7.6-9.4-13zM15.7 49 6.3 62l3-8.2zM7.7 49 .5 54l15.2-5zM15.7 49l-6.4-4.7L.5 44z"/>
</svg>
