<svg width="100%" height="100%" viewBox="0 0 95 126" version="1.1" xmlns="http://www.w3.org/2000/svg" xmlns:xlink="http://www.w3.org/1999/xlink" xml:space="preserve" xmlns:serif="http://www.serif.com/" style="fill-rule:evenodd;clip-rule:evenodd;stroke-linecap:round;"><path d="M33.4 90.7c.1 1.2 0 11-.3 16.8-.1 3.5.6 6.2-.9 8.7-3.1 5.1-14.1 7-16.6 7.2-2.8.2-11-2.9-12.2-11-.5-3.8.2-6.9-.9-12.8-.6-3.2 2.1-56 2.3-58.7.1-3 .7-6.8 3-13.2 1.8-5.2 18-25.4 46.1-23.9C74.3 5 84.3 24.2 86 27.4c4.4 8.6 6.9 34.7-5.1 50.3-13.6 17.6-47 13.7-49.8 14a68 68 0 0 0-19.4 5.6c-2.2 1-4 2.8-5.6 4.1q-.8.7-1.6.7c-2.3-.8-.5-6.8.6-13 1.2-7.8 7.4-19.7 12.4-22.7 6.6-3.8 10.9-3.1 17.8-4.3 3.8-.6 6.7-.6 9.5-1 2.6-.3 16.7 0 16.4-18 0-3.4-9-8.7-11.6-8.7-17.4 0-14 19.3-14.4 23.6q0 2-.2 5.5" style="fill:none;fill-rule:nonzero;stroke:rgb(218,43,177);stroke-width:4px;"/><path d="M6.5 111.6c.6-.5 4.2-3.2 7.3-6.2 3.6-3.4 6.3-5.6 8.4-7.7l5-4q.6-.3 1.7-1.5" style="fill:none;fill-rule:nonzero;stroke:rgb(218,43,177);stroke-width:4px;"/><path d="M7.8 117.7c3-1.6 7-3.7 14.1-8.4 1.7-1.2 2.4-1.9 3.4-2.7l3.4-3" style="fill:none;fill-rule:nonzero;stroke:rgb(218,43,177);stroke-width:4px;"/><path d="M19.8 120.4 23 119l1.5-.9 2.6-1.5" style="fill:none;fill-rule:nonzero;stroke:rgb(218,43,177);stroke-width:4px;"/></svg>