<svg width="100%" height="100%" viewBox="0 0 100 100" version="1.1" xmlns="http://www.w3.org/2000/svg" xml:space="preserve" style="fill-rule:evenodd;clip-rule:evenodd;stroke-linejoin:round;stroke-miterlimit:2;"><g transform="translate(51.7 48.3)scale(.5401)"><g transform="translate(-88.5 -59)"><clipPath id="_clip1"><rect x="0" y="0" width="177" height="118"/></clipPath><g clip-path="url(#_clip1)"><path d="M80.6 2.9c2.8-5.8 5.7-2 12.2 3.5 4.6 3.8 16.2 12 33.6 16.7a90 90 0 0 0 37.5 2.3c8.4-1.4 12.7-3.3 12.3 3-.4 5.7-1.7 14.4-4.8 26-6.7 24.9-28.6 73-70 61.9q-7.5-2.2-13-5.8h-85A3.3 3.3 0 0 1 0 107L0 18.7c0-1.8 1.5-3.3 3.3-3.3h72.3q2-6.4 5-12.5m-6.8 19.8a76 76 0 0 1-45 8.3c-6.5-1.1-9.9-2.5-9.6 2.4q.3 6.5 3.7 19.8c5.1 19.2 22 56.1 53.8 47.6l1.2-.4a59 59 0 0 1-7.7-19l-17 4.8s2-11.4 15.2-16.3q-1.5-24.2 5.4-47.2m11.7 47.6s3 15.5 22.4 21.2c19.2 5.6 29.7-6.6 29.7-6.6zm58.4-17.6c-11-3.2-17.6 7-17.6 7l29.5 8.3s-1-12.2-12-15.3m-86.1-5.2s-.7 8.7-9.2 11c-8.5 2.2-13.5-5-13.5-5zm40.7-8.4c-11-3.2-17.5 7-17.5 7l29.4 8.3s-.9-12.2-12-15.3" style="fill-rule:nonzero;"/></g></g></g></svg>