<svg viewBox="-10 -10 153 116" xmlns="http://www.w3.org/2000/svg" xmlns:xlink="http://www.w3.org/1999/xlink"
    xml:space="preserve" fill-rule="evenodd" clip-rule="evenodd" stroke-linecap="round">
    <g stroke="#DA2BB1" stroke-width="4" stroke-linecap="round" stroke-linejoin="round" fill="rgba(0,0,0,0)">
        <path
            d="m96 21-6-1L67 8l-7-5-3-1-5 10-5 15a59 59 0 0 0 19 66l2 1h6c1 0 34 1 46-28a251 251 0 0 0 10-44H97q0 0 0 0" />
        <path d="m56 39 20 6 3 1q0 0 0 0c0-1-2-10-9-12l-5-1q-8 3-10 5 0 0 0 0" />
        <path d="m93 50 20 5h1q0 0 0 0c0-1-2-9-11-10-3-1-9 2-10 2l-2 2v1" />
        <path d="M59 59h1l6 1 22 4 10 4 4 2-1 2c-1 0-9 9-27 4-9-3-12-13-13-14l-1-3q0 0 0 0l-1-1" fill="rgba(0,0,0,0)" />
        <path d="m49 19-2 1-3 2q-14 5-18 5L2 28c0 3 3 20 7 29 13 30 38 27 39 27l3-2 3-3" />
        <path d="M44 58h-3l-2 1c-1 1-7 3-8 12v1l15-4" />
        <path d="m16 46 17-5v3l-2 3c-7 9-18 1-17-1v-1" />
    </g>
</svg>