<svg xmlns="http://www.w3.org/2000/svg" width="130" height="106" fill="rgba(0,0,0,0)" viewBox="-10 -10 150 126">
    <g stroke="#DA2BB1" stroke-width="4" stroke-linecap="round" stroke-linejoin="round" fill="rgba(0,0,0,0)">
        <path
            d="M70.6 6.9c-5.4 5.9-10.8 11.8-16.3 19A313 313 0 0 0 40 46.6c-4 6.2-5 8.1-7.1 13.7-2 5-5 14.7-6.9 21.2a55 55 0 0 0-2.9 16.9q.2 2 1.2 3.5 1 1.4 10.9 2a43 43 0 0 0 34.4-14.8 553 553 0 0 0 23-23.2 72 72 0 0 0 11.7-15.7c2.4-4.4 4.6-9.3 6-12.8 2.2-5.6 3.1-9.8 3.7-14.3 1.3-9.8-.2-14.1-.6-17.2a5 5 0 0 0-1.2-2.5c-.6-.8-3.1-1.2-9.8-1.4-4.6-.1-11.9.5-17 1-11.8 2.8-15 4.3-17.1 5.2a13 13 0 0 0-3.7 2.6" />
        <path
            d="M115.7 77.4c0-.2 0-.3-1.6-4.1-1.7-3.9-5-11.4-10.3-19s-12.4-15-18.5-20.6A141 141 0 0 0 56 12.8a108 108 0 0 0-14.7-5.5c-3.8-.9-6.8-.8-11.8.2-3.3.6-6.8 2.6-8.9 4.8a29 29 0 0 0-5.5 14.6c-.6 4 .4 8.4 2 13.8a76.2 76.2 0 0 0 19.7 27.6 158 158 0 0 0 39.4 24.5c4.4 2 9 3.6 12.8 4.7a44 44 0 0 0 14.5 1.8c3.3-.2 7.1-6.7 10.6-14.2q1-5.7.5-10.5v-3.2" />
        <path
            d="M10 53.6c9.7-3.9 19.5-7.8 27.4-10.6q12-4 17-5.4c4.1-1.3 9.7-2.8 18.1-4.5 5-1 10.6-2.8 18.3-4.3 7.3-1.4 11.9-1 16.4-1 10.3-.1 17.5.9 18.3 2 3 3.9 2 9.1.9 13.4a38 38 0 0 1-6.7 12c-1.7 2.2-5.7 4.6-15.1 9-6.7 3-17.8 6.1-25 8.2-10 3-15.1 3.3-18.4 3.6-4.4.5-8.9 1-18.2 1-5 0-8.4-1-12-1.7-12.4-2.8-16-3.5-19.1-4.6-2.8-.9-5-1.5-7-3q-1.3-.8-2.4-2a3 3 0 0 1-.5-2.1c.5-4.6 9.4-8 11.5-9l2.8-1.6q1.5-.7 2.8-1" />
        <path
            d="M64.2 49.7q-4.4 1.6-5.7 4.8-.4 1.4-.1 2.1C59 59 62 60.1 64.7 61c4.9 1.7 9.3.3 11.8-1 2.4-1 1.6-4.3 1.3-6.2-.5-3-3.6-3-5.6-4.6a27 27 0 0 0-11.6 1" />
        <path
            d="M54.8 53.4c7-1.7 13-3.5 16.5-5.1 1.4-.6 1.8-1 0 .2a102 102 0 0 0-14.7 10.8c-3.1 4.8 10.9-5 12.9-5.6 2.4-1-4.1 5.6-4.4 6.6 4.4-1.9 8.9-4.8 9.7-5.2.3.1.3.7 1 1.6" />
    </g>
</svg>