<?xml version="1.0" encoding="UTF-8" standalone="no"?>
<!DOCTYPE svg PUBLIC "-//W3C//DTD SVG 1.1//EN" "http://www.w3.org/Graphics/SVG/1.1/DTD/svg11.dtd">
<svg width="100%" height="100%" viewBox="0 0 52 52" version="1.1" xmlns="http://www.w3.org/2000/svg" xmlns:xlink="http://www.w3.org/1999/xlink" xml:space="preserve" xmlns:serif="http://www.serif.com/" style="fill-rule:evenodd;clip-rule:evenodd;stroke-linejoin:round;stroke-miterlimit:2;">
    <g id="Artboard1" transform="matrix(0.923777,0,0,0.923777,-5.77709,-6.70385)">
        <rect x="6.254" y="7.257" width="56.073" height="56.073" style="fill:none;"/>
        <g transform="matrix(1.08251,0,0,1.07775,-3.57084,-2.16761)">
            <g transform="matrix(1,0,0,1,3199,-3201)">
                <path stroke-linejoin="round" d="M-3157.01,3259.26C-3159.02,3258.07 -3160.77,3256.56 -3162.3,3254.7C-3162.5,3254.5 -3162.7,3254.2 -3163,3254C-3163.4,3254.8 -3163.8,3255.7 -3164.1,3256.5C-3164.2,3256.7 -3164.3,3256.9 -3164.4,3257.2C-3165.3,3259 -3166.6,3259.6 -3168.5,3259.2C-3169.2,3259 -3169.9,3258.9 -3170.6,3258.7C-3172.3,3258.3 -3173.1,3258.7 -3173.6,3260.4C-3173.7,3260.6 -3173.6,3260.9 -3173.9,3261C-3174.1,3261 -3174.3,3260.8 -3174.4,3260.6C-3175.2,3259.6 -3175.3,3258.4 -3174.8,3257.4C-3174.2,3256.4 -3173,3255.9 -3171.8,3256C-3170.7,3256.1 -3169.6,3256.4 -3168.5,3256.5C-3167.8,3256.6 -3167.4,3256.3 -3167.1,3255.7C-3166.5,3254.4 -3165.9,3253 -3165.4,3251.6C-3165.3,3251.3 -3165.3,3251.1 -3165.5,3250.8C-3166.1,3250.1 -3166.3,3249.2 -3166.2,3248.3C-3166.1,3246.7 -3166.2,3245.2 -3166.2,3243.6C-3166.2,3242.9 -3166.4,3242.6 -3167,3242.6C-3167.8,3242.6 -3168.1,3242.8 -3168.1,3243.5L-3168.1,3246.6C-3168.1,3246.7 -3168,3246.9 -3168.2,3247C-3168.4,3247.1 -3168.5,3246.8 -3168.5,3246.7C-3169.7,3245 -3170.8,3243.2 -3171.7,3241.4C-3171.8,3241.1 -3172,3240.9 -3172.1,3240.6C-3173,3239 -3173.7,3238.7 -3175.4,3239C-3177.4,3239.3 -3179.3,3239.8 -3181.3,3240.1C-3184.8,3240.7 -3188,3238.6 -3188.8,3235.4C-3189,3234.6 -3188.9,3233.8 -3188.7,3233C-3188.6,3232.7 -3188.4,3232.4 -3188.1,3232.4C-3187.8,3232.3 -3187.5,3232.5 -3187.4,3232.8C-3187,3233.4 -3186.7,3234 -3186.2,3234.7C-3185.9,3234 -3185.7,3233.4 -3185.4,3232.9C-3185.3,3232.6 -3185.2,3232.2 -3184.8,3232.2C-3184.4,3232.2 -3184.2,3232.5 -3184,3232.8C-3183.7,3233.2 -3183.5,3233.6 -3183.3,3234C-3183.1,3234.3 -3183,3234.2 -3182.9,3234C-3182.7,3233.5 -3182.5,3233 -3182.3,3232.4C-3182,3231.7 -3181.5,3231.6 -3181,3232.2C-3180.6,3232.7 -3180.3,3233.2 -3179.9,3233.7C-3179.5,3233.1 -3179.3,3232.5 -3179.1,3231.9C-3178.7,3231 -3178.3,3231 -3177.8,3231.7C-3177.2,3232.4 -3177.2,3232.4 -3176.4,3231.9C-3175.7,3231.4 -3174.9,3230.9 -3174.2,3230.4C-3172.4,3229.2 -3170.4,3228.7 -3168.4,3228.4C-3167.6,3228.3 -3166.7,3228.2 -3166,3227.7C-3165.4,3227.3 -3164.9,3226.7 -3164.8,3225.9C-3164.8,3225.5 -3164.9,3225.2 -3165.2,3225C-3165.5,3224.8 -3165.8,3225 -3166,3225.1C-3166.4,3225.4 -3166.8,3225.6 -3167.3,3225.9C-3169.1,3227 -3170.9,3227.2 -3172.8,3226.5C-3173.8,3226.1 -3174.8,3225.7 -3175.8,3225.5C-3176.7,3225.3 -3177.2,3225.5 -3177.6,3226.3C-3177.8,3226.6 -3177.9,3226.9 -3178.1,3227.2C-3178.4,3227.6 -3178.8,3227.6 -3179.1,3227.1C-3179.4,3226.6 -3179.6,3226.1 -3179.8,3225.6C-3179.9,3225.3 -3180.1,3225.3 -3180.2,3225.6C-3180.4,3226 -3180.7,3226.3 -3180.9,3226.7C-3181.1,3227 -3181.3,3227.4 -3181.7,3227.3C-3182.1,3227.2 -3182.2,3226.8 -3182.3,3226.5C-3182.5,3226.1 -3182.6,3225.7 -3182.8,3225.3C-3182.9,3224.9 -3183.1,3224.9 -3183.3,3225.2C-3183.6,3225.6 -3183.8,3226 -3184.1,3226.3C-3184.6,3226.9 -3185.1,3226.8 -3185.3,3226.1C-3185.5,3225.4 -3185.8,3224.7 -3186,3224C-3186.3,3224.2 -3186.4,3224.5 -3186.6,3224.7C-3186.8,3225 -3187,3225.3 -3187.3,3225.6C-3187.7,3225.9 -3188.1,3225.9 -3188.3,3225.4C-3188.5,3225.1 -3188.5,3224.7 -3188.6,3224.4C-3188.7,3223.8 -3188.9,3223.2 -3189.2,3222.6C-3189.7,3221.6 -3189.4,3220.5 -3189,3219.5C-3188,3216.6 -3185.2,3214.7 -3182.1,3214.7C-3179.9,3214.7 -3177.8,3214.6 -3175.6,3214.7C-3174.3,3214.7 -3173.3,3214.3 -3172.5,3213.4C-3172,3212.9 -3171.4,3212.5 -3170.7,3212.4C-3169.8,3212.3 -3169.1,3212.7 -3168.5,3213.3C-3167.7,3214.1 -3166.8,3214.6 -3165.7,3215.1C-3162.8,3216.4 -3160.7,3218.6 -3159.3,3221.3C-3158.1,3223.5 -3157.6,3225.8 -3157.3,3228.3C-3157.1,3229.6 -3157,3230.9 -3156.5,3232.2C-3155.7,3234.6 -3154,3236 -3151.5,3236.4C-3146.57,3237.19 -3142.27,3239.14 -3138.31,3241.99C-3139.44,3246.06 -3141.55,3250.7 -3145.19,3254.34C-3148.35,3257.48 -3153.1,3258.76 -3157.01,3259.26ZM-3171,3219.4C-3170.2,3219.4 -3169.7,3218.9 -3169.7,3218.2C-3169.7,3217.5 -3170.3,3216.9 -3171,3216.9C-3171.7,3216.9 -3172.3,3217.5 -3172.3,3218.2C-3172.3,3218.9 -3171.7,3219.4 -3171,3219.4Z"/>
            </g>
            <g transform="matrix(1,0,0,1,3199,-3201)">
                <path stroke-linejoin="round" d="M-3170.5,3254.4C-3172,3254.4 -3172.9,3254 -3173.8,3253.7C-3174.2,3253.6 -3174.7,3253.4 -3175.1,3253.3C-3176.2,3253.2 -3176.8,3253.5 -3177.2,3254.5C-3177.3,3254.7 -3177.3,3254.9 -3177.4,3255.1C-3177.5,3255.3 -3177.4,3255.6 -3177.7,3255.6C-3177.9,3255.6 -3178,3255.4 -3178.2,3255.2C-3179,3254.2 -3179.1,3253 -3178.5,3252C-3177.9,3251 -3176.7,3250.5 -3175.5,3250.7C-3174.5,3250.9 -3173.4,3251.2 -3172.4,3251.4C-3171.2,3251.6 -3170.9,3251.5 -3170.4,3250.4C-3170.2,3250 -3170,3249.6 -3169.9,3249.2C-3169.8,3249 -3169.7,3248.8 -3169.5,3249.1C-3169,3250 -3168.5,3251 -3167.9,3251.9C-3167.8,3252 -3167.8,3252.1 -3167.9,3252.3C-3168.4,3253.6 -3169.6,3254.4 -3170.5,3254.4Z" style="fill-rule:nonzero;"/>
            </g>
        </g>
    </g>
</svg>
