<svg width="100%" height="100%" viewBox="0 0 100 100" version="1.1" xmlns="http://www.w3.org/2000/svg" xml:space="preserve" style="fill-rule:evenodd;clip-rule:evenodd;stroke-linejoin:round;stroke-miterlimit:2;"><g transform="matrix(.9 0 0 .9 28.8 58.4)"><path d="M0-24.5c-1.2-4.4-3.1-9.3-9.2-9.3-5.4 0-7.8 3.9-7.8 7.7 0 5.1 3.3 7.6 9 10.4 5.5 2.9 12 6.1 12 14 0 7.5-6.2 13.4-15.5 13.4a24 24 0 0 1-7-1q-2.4-1-3.5-1.6c-.4-1.4-1.4-7.5-1.9-10.9l2.2-.5c1 4.3 4.2 11.4 11.5 11.4 5.3 0 8.4-3.3 8.4-8.4S-5.6-7-10.9-9.8c-4.5-2.4-11.6-5.9-11.6-13.8 0-6.8 5.4-12.6 14.5-12.6q4.9.2 8.8 1.7L2-24.8z" style="fill-rule:nonzero;"/></g><g transform="matrix(.9 0 0 .9 50.3 55.5)"><path d="M0-3c-1.5.7-4.9 2.2-6.3 3-2.8 1.2-4.3 2.5-4.3 5.1 0 3.6 2.8 5.4 5 5.4 1.8 0 4.3-1.2 5.6-2.5zm5.1 17.7c-1 0-2.5-.6-3.3-1.4Q.6 11.9.1 10.2c-2.8 1.9-6.2 4.5-8.3 4.5-5 0-8.4-4.1-8.4-8.6q0-5 5.7-7C-6.7-2.2-1.5-4.1 0-5.3v-1.2c0-5.2-2.4-8-6-8q-2 0-3.1 1.4a12 12 0 0 0-2 4.6Q-11.8-7-13.3-7c-1.3 0-3-1.3-3-3q0-1.4 2.1-2.8c2-1.4 6.6-4 10.6-5 2 0 4.2.7 5.8 2 2.4 2 3.1 4.9 3.1 8.6v13c0 3.2 1.3 4.3 2.5 4.3q1.3-.1 2.5-.8l.7 1.8z" style="fill-rule:nonzero;"/></g><g transform="matrix(.9 0 0 .9 60 22.9)"><path d="M0 50.1v-1.8c4.4-.5 5-.9 5-5.5V9.5c0-4.8-.4-5-4.8-5.3V2.5A54 54 0 0 0 10.6 0v42.8c0 4.6.6 5 5 5.5V50z" style="fill-rule:nonzero;"/></g><g transform="matrix(.9 0 0 .9 87 32.3)"><path d="M0 39.5q-1.9 1-3 1-6.7 0-6.9-8.4V11.7h-4.8l-.3-.8 2-2h3.1V3.8l4.6-4.7 1 .1V9h8c.7.7.5 2.2-.5 2.8h-7.5v18c0 5.7 2.3 6.7 4.2 6.7 1.7 0 3.3-.7 4.3-1.1l.6 1.8z" style="fill-rule:nonzero;"/></g><g transform="matrix(.9 0 0 .9 95 36.2)"><path d="m0-.3.5-.1q.3-.3.3-.7-.1-.7-.7-.6-.3 0-.3.3v1zm2.2 2.2q-.8 0-1.4-.6L.3.3Q0 .1-.1.1h-.1v.7q-.1.7.5.6v.4h-2v-.4q.7.1.6-.6v-2q.1-.6-.5-.5v-.5h2c.6 0 1.4.2 1.4 1q-.1.9-.8 1 .4.9 1 1.4 0 .2.3.3zm-5-2a3 3 0 1 0 6 0 3 3 0 0 0-3-3.2c-1.8 0-3 1.4-3 3.2M4-.1c0 2-1.6 3.7-3.9 3.7A3.7 3.7 0 0 1-3.6 0C-3.6-2.1-2-4 .2-4S4-2.2 4-.1" style="fill-rule:nonzero;"/></g><g transform="matrix(.9 0 0 1 22.9 -6)"><path d="M52.8 86.5V78h1.9v7.1H59v1.3z" style="fill-rule:nonzero;"/><path d="M60.6 86.5V78h2.2l3 5.2 3-5.2H71v8.4H69v-5.7l-2.6 4.5H65l-2.5-4.5v5.7z" style="fill-rule:nonzero;"/><path d="M76.3 86.6q-1 0-2-.3a3 3 0 0 1-1.2-1q-.5-.5-.5-1.4h2q0 .4.2.7.1.3.6.5l.9.1h.7l.5-.4q.3-.3.2-.6t-.2-.6l-.5-.4-.9-.3-1-.3q-1-.3-1.7-.8t-.6-1.5q0-.8.4-1.3t1.2-.8T76 78t1.7.3 1.2.9.5 1.3h-2l-.2-.6-.5-.4-.7-.1h-.7l-.5.4-.1.5.1.5.5.4.7.3 2.3.7 1 .8q.3.5.3 1.2 0 .8-.4 1.2-.4.6-1.1 1-.8.3-2 .3" style="fill-rule:nonzero;"/></g></svg>