<svg width="100%" height="100%" viewBox="-10 -10 140 143" version="1.1" xmlns="http://www.w3.org/2000/svg"
    xmlns:xlink="http://www.w3.org/1999/xlink" xml:space="preserve" xmlns:serif="http://www.serif.com/"
    style="fill-rule:evenodd;clip-rule:evenodd;stroke-linecap:round;">
    <path
        d="M75.5 39c-1.2-.7-5-2.1-6.4-2.6-.8-.3-3-.7-4.7-1A58 58 0 0 1 53 30.7c-1-.6-2.4-1.2-4.6-2.7C46.9 27 12.2 3 7.5 2c-1.1-.2-2.6.4-3.4 1q-1.3.9-1.8 2.4-.8 1.8.4 5c.9 2.7 35.8 20.9 37.6 22.1 3 2 5.7 4.1 7.3 5.2 1.2 1 2 5.5 4 10.6.9 2.7 3.1 4.3 5.4 6.6l.7.6.8.6"
        style="fill:none;fill-rule:nonzero;stroke:rgb(218,43,177);stroke-width:4px;" />
    <path
        d="M88.6 39.8c-1-1-2-1.8-6.6-3.8-1.8-.7-2.2-1-3.2-.7-7.2 3-14.7 14.4-15.7 15.8l-.6.7c-1.6 2.3-5.5 8.9-4 15.6Q59 68.9 61 70a6 6 0 0 0 2.9.5"
        style="fill:none;fill-rule:nonzero;stroke:rgb(218,43,177);stroke-width:4px;" />
    <path
        d="M98 43.5c-1.9-.2-3.2-3.4-10.2-3-1.6 0-5 1.4-7 3-3.3 2.7-10.7 8.8-13.3 13.5a31 31 0 0 0-2.3 15.1q.2 1 .6 1.5.6.5 1.5.8l3.2-.3"
        style="fill:none;fill-rule:nonzero;stroke:rgb(218,43,177);stroke-width:4px;" />
    <path
        d="M108 50.1q.3-.4.2-1.9c0-1-1-1.5-1.7-2-.7-.7-8.5-2.2-12.6-1.3-9.7 2.4-13.9 8.6-18 12.7a19 19 0 0 0-5.3 13.6c.2 1.6 3.4 5.7 7.2 6.8 1.2.3 2.8-.4 3.6-.4"
        style="fill:none;fill-rule:nonzero;stroke:rgb(218,43,177);stroke-width:4px;" />
    <path
        d="m82 77.6-1.2-2.3c-.3-.8-2.6-4.1-2.3-8.3.2-2.6 3.1-7.2 3.1-7.2s5.7-7.8 16.8-10.2c2.5-.6 6.7-.3 7.9 0q.2 0 .8.5"
        style="fill:none;fill-rule:nonzero;stroke:rgb(218,43,177);stroke-width:4px;" />
    <path
        d="M103.5 49.6c1.7.5 11.8 3.8 12.6 4.4q1 1 1.6 3.4l-.1.6c-.6 1-.4 1.6-4.3 1.4-1.4-.1-10.2-4.1-11.7-5q-3.6-2-4.5-2.3l-2-.5"
        style="fill:none;fill-rule:nonzero;stroke:rgb(218,43,177);stroke-width:4px;" />
    <path d="M92.1 52.3c.4.1 17.5 6.6 19 8 1 .7.9 1.9.8 2.2q-.4.6-1 1c-1 .7-3.4.2-6-.5l-15.5-6c-.2-.1-2.8-1-3-1.3"
        style="fill:none;fill-rule:nonzero;stroke:rgb(218,43,177);stroke-width:4px;" />
    <path d="M85 56.6c.2.4 21 7.8 20.4 9.4-.4 1.2-3.4 1.3-5.2 1.2-.7 0-13.7-4.7-15.1-5l-2-.7-.8-.4"
        style="fill:none;fill-rule:nonzero;stroke:rgb(218,43,177);stroke-width:4px;" />
    <path
        d="M80.3 62.3c1.4.5 17.3 5.6 18.5 7q.5.6 0 1.4-.2.6-1.2 1-1.3.3-8.9-1.5c-2.7-.7-5.5-1.6-7.3-2.2s-2.4-1-3.5-1.7"
        style="fill:none;fill-rule:nonzero;stroke:rgb(218,43,177);stroke-width:4px;" />
    <path
        d="M67 74.4c0 2.5 1.4 9.4-3.5 18-.9 1.6-2.8 3.4-3.6 4.2-.7.6-1.8 1-2.4 1.8q-.4.7-.3 1.3 0 .6.6 1.1 1.4 1.3 4.7.8 2.3-.3 3.3-1.4c10.5-11.7 7.6-20.5 7.6-20.9-.1-.3-1-3.3-1-3.8"
        style="fill:none;fill-rule:nonzero;stroke:rgb(218,43,177);stroke-width:4px;" />
    <path
        d="M85.6 70.5 83.3 79c-.5 2-2.7 6.6-4.4 23.2a33 33 0 0 0 2.2 11.4q.8 1.4 2 2.3l2 1.7q1.7 1.1 3.1.9.5-.1.8-.5c.7-.8.5-2.7-.2-3.2-.5-.4-3.6-7.1-3.4-13.8.2-4.7 1.5-13.2 1.5-14.4q.1-1 1.3-5.3.6-3.3 1.4-6.5c.1-.4 1.1-2.7 1.1-3"
        style="fill:none;fill-rule:nonzero;stroke:rgb(218,43,177);stroke-width:4px;" />
    <path d="M92.3 71.9c.1.6 5.8 28.8 6.3 30 .7 1.6 4 2.3 5.7 2 1 0 .9-3.4.6-6-.3-2-4.9-10.5-5-11.2l-2.1-14.8"
        style="fill:none;fill-rule:nonzero;stroke:rgb(218,43,177);stroke-width:4px;" />
    <path d="M103.5 67.6c.2 1.8.4 5.3 0 7.2-.3 2.5-1.1 3.3-1.9 4.5l-1.5 2"
        style="fill:none;fill-rule:nonzero;stroke:rgb(218,43,177);stroke-width:4px;" />
    <path d="m88.7 81.4 2.5 3q.7 1 1.5 1 .4 0 .8 0"
        style="fill:none;fill-rule:nonzero;stroke:rgb(218,43,177);stroke-width:4px;" />
    <path d="M59.4 97.6q.8 0 2 1.5.2.4 0 .7-.2.4-1.1.4a2 2 0 0 1-1.1-.7q-.2-.2-.5-1.3"
        style="fill:none;fill-rule:nonzero;stroke:rgb(218,43,177);stroke-width:4px;" />
    <path
        d="m98.5 108-1.1 7c-.5 3.7 0 4.6.6 5.3q.4.3.7.2.4 0 .8-.2 1-1.1 1-2c.1-.6 0-1.3-.4-3-.7-3.1-1.2-5.5-1.2-6.1l-.2-1.2"
        style="fill:none;fill-rule:nonzero;stroke:rgb(218,43,177);stroke-width:4px;" />
    <path
        d="m56.1 72.5-.5 3.2c-.3 2.5-4 8.3-2.4 12.8.5 1.3 2.5 1.8 3.7 2.1.5.1 2.3-1.1 2.5-1.7C61 83.8 57.7 79.2 57 77l-.5-3.5-.1-1"
        style="fill:none;fill-rule:nonzero;stroke:rgb(218,43,177);stroke-width:4px;" />
</svg>