<svg width="100%" height="100%" viewBox="0 0 54 117" version="1.1" xmlns="http://www.w3.org/2000/svg" xmlns:xlink="http://www.w3.org/1999/xlink" xml:space="preserve" xmlns:serif="http://www.serif.com/" style="fill-rule:evenodd;clip-rule:evenodd;stroke-linecap:round;"><path d="M20 3.7C18.8 3.6 8.9 1.9 5.9 3c-2.7 1-3.7 12.8 5.5 19 1.6 1 10.9 4.5 14.5 5.7.4.1 2.3.3 3.5.2C34 27.2 43 24.7 45 23.4 47.4 22 51.7 14 50.8 13 42.8 2.7 22.4 2.3 19.6 2a9 9 0 0 0-3.3.2" style="fill:none;fill-rule:nonzero;stroke:rgb(218,43,177);stroke-width:4px;"/><path d="M25.8 42.2c-1 .1-10.8-3.7-19 1.2-3 1.8-.7 7.2.2 10.5l.2.5c.7 2 8.9 9.7 17.8 9.6 4 0 5.6-.3 8.7-1.5s8.3-6 9.2-11.1c.3-1.8-1-3.6-2-4.8a54 54 0 0 0-17.7-5" style="fill:none;fill-rule:nonzero;stroke:rgb(218,43,177);stroke-width:4px;"/><path d="M29.3 74c-.6.2-10.4 1.2-11.7 1.8-1.2.5 4.7 12.1 15.2 13 3 .2 13.6.4 16.4-4.1 2.1-3.3 2-8.8 1.9-10.4a3 3 0 0 0-1.3-2.1c-6.7-4.8-15-2.8-17.1-2.1q-3.2 1-7 3.2" style="fill:none;fill-rule:nonzero;stroke:rgb(218,43,177);stroke-width:4px;"/><path d="M34.2 103c-1.6-.2-6.6-2.2-7.2-.7s-1.9 7 3.6 9.8c2.7 1.4 8.6 2.3 14.6.9 1.8-.4 2.1-2.7 3-4.8q1.1-3.5-1-5.6c-2.3-2.2-7.9-1.3-10.2-1.4-1 0-2.7.9-3.8.9" style="fill:none;fill-rule:nonzero;stroke:rgb(218,43,177);stroke-width:4px;"/></svg>