<svg xmlns="http://www.w3.org/2000/svg" xml:space="preserve" fill-rule="evenodd" stroke-linecap="round" stroke-linejoin="round" stroke-miterlimit="1.5" clip-rule="evenodd" viewBox="0 0 1920 360">
  <path fill="none" stroke="#da2bb1" stroke-width="4" d="M1258 163c-4 46-4 46-2 93 10-1 71-5 129 5 2-23 7-23-2-72-3-22-1-23 0-30-89-6-89-11-133-5"/>
  <path fill="none" stroke="#da2bb1" stroke-width="4" d="M1275 174c-2 31-3 30-1 61 6 0 51-1 82 3 8-30 3-31 9-61-70-6-81-4-86-4M1304 153c-1-34-22-56-34-71"/>
  <path fill="none" stroke="#da2bb1" stroke-width="4" d="M1269 79c-15 4 6 9 9 9 6 1 0-14-6-14M1333 146c11-33 29-53 32-57"/>
  <path fill="none" stroke="#da2bb1" stroke-width="4" d="M1369 85c-9 5-11 4-9 7 3 7 24-4 9-2M1209 286c5-12 9 4 4 6-13 8-17-15-3-19 8-1 17 11 5 18"/>
  <path fill="none" stroke="#da2bb1" stroke-width="4" d="m1220 286 4-2 1-11c1 5 1 4 4 8l7-9c1 1 1 12-4 16-2 3-3 1-34 19l6-9M1424 287c-16 7-11-11-1-13 18-3 20 29-5 22-18-6-7-48 23-27 1 1 27 33-3 24"/>
  <path fill="none" stroke="#da2bb1" stroke-width="4" d="m1410 288-4-1-12-5c8 11 9 9 21 14M1448 298c9 5 9 4 16 5 0-13-4-17 3-16q2-1 0 5c0 1 5 36 9 10 5-33 5 8 2 11-4 3-5 2-56-12M1385 282l-1-1M1376 277l-2-1M1368 273l-3-1M1355 268h-2M1189 314zM1191 326l3 1M1211 329l2-2M1220 324l3-2M1228 318l2-2M1240 305l2-2M1252 296h1M1262 292zM1284 286l1-1M1311 228c-4-1-2-14-2-15l4 3c3-7 3-8 9-13l1 8c15-10 20-7 23-25 2 18-2 19-4 24l10-1c-1 8-2 14-17 21"/>
  <path fill="none" stroke="#da2bb1" stroke-width="4" d="m1315 230 11-8v7l4 1M1307 195v-6l6 11-3-1M956 64c53 6 115 7 135 7"/>
  <path fill="none" stroke="#da2bb1" stroke-width="4" d="M1093 73c-6 20-5 44-5 45 33 6 33 2 66 6l6-71-67-3-2 26"/>
  <path fill="none" stroke="#da2bb1" stroke-width="4" d="M1088 101c-93-5-101 0-141-3-2-1-3-2 5-29"/>
  <path fill="none" stroke="#da2bb1" stroke-width="4" d="M951 70c-13-9-13-8-25-18-5 26-4 26-10 51 18-3 18 1 36-3M1160 81c41 4 45 1 52 11 2 5 4 8 4 68"/>
  <path fill="none" stroke="#da2bb1" stroke-width="4" d="M1156 106c22-2 39-6 36 29-3 39-10 51 29 59 2-13 2-13 6-25l-12-5M1230 170c1-5 2-5 5-9 2 9 5 5 11 1l5 14M1222 194l1 16 6-8 3 11c4 1 4 0 12-8l3 7 4-11"/>
  <path fill="none" stroke="#da2bb1" stroke-width="4" d="M1233 169c1 16-1 16-5 31M1248 175c-3 22-2 22-8 43M745 27l-12 16 19 6M762 33c-16 0 12 5 9 14-2 5-7-3-7-3M777 35c0 8-3 12 4 12h14M780 41l15-1M774 33h10M806 33c-25 5 6 17 13 10M825 32v14M817 37l13-2M834 33l2 17M849 36c-13-2-9 11 2 10q16-2 3-11M868 44l1-11 11 13 2-9M891 31l15 10q-5 2-20 15M749 85l-15 14 16 8M762 87l-5 17M785 88c0-1-21-3-5 5q12 6-2 10c-5 1-4-1-6-5"/>
  <path fill="none" stroke="#da2bb1" stroke-width="4" d="m792 88-1 14c0 2 1 0 14 1M794 96l15-1M798 91l7-1M819 90c-14 4-9 8-8 9 7 4 7 5 15 2M830 91v14M824 94h20M848 92l1 13M859 94c-10 0-9 12 1 11 8 0 1-9 1-9M870 102q3-10 3-14l9 16 4-7"/>
  <path fill="none" stroke="#da2bb1" stroke-width="4" d="m888 91 13 10c-13 4-12 5-23 11M792 62l-20 14 17 7M873 65l18 11c-12 6-12 9-21 7M814 80zM827 81zM839 81l2 1M854 82h1M919 44c-1-4-13-34-35-24-11-10-14-13-32-6M907 109l-8 8c-12-8-11 12-32 8M726 15c-12-3-16-9-22 4M668 61c3 4 3 3 8 4M1120 69c-25 3-14 38 11 35 26-3 20-28 15-31-21-9-30-1-32 1"/>
  <path fill="none" stroke="#da2bb1" stroke-width="4" d="M1132 74s-8 3-5 10 6-8 6-9M1125 88q-4 2 0 3 2 1 1-3M1113 96c1 0 22-9 7 4"/>
  <path fill="none" stroke="#da2bb1" stroke-width="4" d="M1125 89c-5-7-5-8-14-8q3 5 7 6M1129 92c1 1 6 7 10 5 5-4-10-6-11-6M691 35c-7-1-7-4-17 0M951 46c-10-15 35-23 50-19 20 5 19 11 39 5M1064 26c-14 9-15 15-17 23 2-1 32-2 42-22-16 1-16-1-31 6M1060 36l16-9M948 28c-3-17 15-23 19-25M922 191l17-15c-1 20-6 18-24 24 4-4 4-3 7-8M923 192zM1387 188c38-52 174-28 186 38"/>
  <path fill="none" stroke="#da2bb1" stroke-width="4" d="M1386 204c51-55 144-35 168 19"/>
  <path fill="none" stroke="#da2bb1" stroke-width="4" d="M1387 225c72-79 135-14 139-7"/>
  <path fill="none" stroke="#da2bb1" stroke-width="4" d="M1390 245c10-43 111-56 118-19"/>
  <path fill="none" stroke="#da2bb1" stroke-width="4" d="M1511 237c-7 0-12-5-14 6-10-9-25-7-22 6q7 22 19 4c0 2 2 14 20 15 21 1 28-13 32-17 3 3 33 29 47-9 19 8 28-6 12-18-20-14-34 10-36 12-3-2-32-23-55-14-28 12-25 16-24 19M1428 108c5-11 3-11 3-18l27 18-37-7 36-11c-12 14-14 12-29 23M1527 118l20-32-1 28-28-22 36 3c-11 12-12 10-24 20M1448 226l-6 13c3-11 2-11 7-21 6 13 5 13 13 24-18-5-17-6-33-13l41-5c-13 12-13 12-28 22M620 104v30c11 3 55 0 55 0l-3-38s-25-4-26 8c-14-2-14-3-28 0M643 102h27M618 21l-10 28c50 8 52 11 54 6 11-24-8-23-44-34"/>
  <path fill="none" stroke="#da2bb1" stroke-width="4" d="m645 29 6-5q15-4 18 9l-3 10M528 95c10 22 11 22 10 23M523 101l17-9M552 88c-6 0-6 0-11 2 20 13 17 16 15 17q-9 2-10-1"/>
  <path fill="none" stroke="#da2bb1" stroke-width="4" d="M496 93c9 20 26 50 29 55l9-4c50-23 52-15 62-17-4-11-24-36-28-55-7 1-11-1-80 21M629 184c-1 3-11 29-22 26-1 0-13-2-7-14M606 181l34 8M663 192c-1 0-13-8-18 4q18 15 16 20c-4 11-35-3-37-5"/>
  <path fill="none" stroke="#da2bb1" stroke-width="4" d="m590 178-21 37c47 14 46 14 92 31 22-43 34-58 40-67-41-13-50-30-90-42-3 2-16 34-19 36M460 31l16 4M486 38l14 2M510 38c-3 6-5 6-3 12 2 7 4 3 10 0q-1 13 8 9c8-3 9-2 13-9M541 58c1-1 21-5 6-7-9-1-7 9-7 9 3 6 16 0 18-1M566 51q-4 10-5 13M563 63c12-9 11 1 11 1-1 4-8 1-9 0M581 55c-1 12-5 11-4 23"/>
  <path fill="none" stroke="#da2bb1" stroke-width="4" d="M579 68c4-3 8-1 11-2l8-1M582 68c8 12 4 10 7 14M600 72l-3 13M617 61l-9 29M605 76l17 4M730 257l-6-15 10 13 2-7 10-17-3 25M841 254l-6-17c1 1 13 16 16 15 2 0 1-1 9-13l3 13M1021 259v-19l2 12 9-10v10l7-6v11M960 255l-3-12 10 14 19-20 2 21M1088 249l-10 6c0 21-20 5-25 15-10 23-26 0-37 10-16 15-19 12-41 8-6-1-9 11-34 13-6 0-22-8-26-8-6-1-33 18-39 19-11 1-17-8-36 15-12 15-63 13-77 19M1112 253c-10 11-8 24-9 25-4 3-29 5-28 13 5 32-25 21-27 35-1 14-7 10-21 15M1051 297c-19 1-30 20-32 23 0 0 2 3-44 14M977 318c-19 5-17 9-36 16l-34 5M825 313c6-13 5-13 7-28 20 8 25 4 26 15l-25 8"/>
  <path fill="none" stroke="#da2bb1" stroke-width="4" d="M835 292c18-15 22-8 34-5l-6 4-4 3M869 289l3 6-20 7M1144 296c-25 7 1 9 2 9 22-4-3-8-4-8M1092 250c5-5 18 5 22-9M1094 266l-19 18M1173 223c-3 4 2 3 7 5q-3-6-6-3l6 1M1194 225l-3 1c4-2-3-4-3-2q-1 4 5 1M1173 234c9 7 15 2 20 1M518 137l-63 30c-2 7 18 47 28 71 22-12 43-18 105-57M480 185l12 17"/>
  <path fill="none" stroke="#da2bb1" stroke-width="4" d="M489 196c7-3 9 0 12-7M498 184l5 7 7 9M510 176l9 13M502 179c8-2 8-2 15-6M528 183v-2l-4-12q6 4 7-3l7 8M542 162c7 14 7 16 9 14l14-6M499 87l2-14c-38-4-38-6-75-12-1 7-4 27-16 84l61 9"/>
  <path fill="none" stroke="#da2bb1" stroke-width="4" d="M462 107c-8-2-7 7-3 5 7-3 3-5 2-5-5 0-3 0-4 4l2-1"/>
  <path fill="none" stroke="#da2bb1" stroke-width="4" d="M453 100c-9 8-15 46 2 36 6-3 20-19 18-47-1-7-18-13-22 13"/>
  <path fill="none" stroke="#da2bb1" stroke-width="4" d="M466 102c-2 0-39-7-28 5 12 14 39 11 44 11 5-1-4-12-14-15"/>
  <path fill="none" stroke="#da2bb1" stroke-width="4" d="M441 89c-1 35 34 42 35 38 0-4-8-22-11-26-8-13-24-12-24-12M588 129c10 14 8 6 16 21M867 341c-18 2-16 7-34 9M931 318c-10 2-10 3-19 6M1112 257c2-5 2-5 0-9M421 288c12 35 61-11 79 4 40 34 58 27 82 16 17-8 23-8 47-1"/>
  <path fill="none" stroke="#da2bb1" stroke-width="4" d="M417 295c26 42 46 2 71 11 8 3 32 36 71 27 6-1 54-30 75-5 10 11 64 23 60 3-5-25-30-9-64-21"/>
  <path fill="none" stroke="#da2bb1" stroke-width="4" d="M662 327c-3 1 6 3 3 1M677 325l-2 1h2M686 336c11 2 22 5 39-2M716 337l5-5M585 311c7 2 8 3 11-3M520 326q5-1 7 2M454 299q5 6 8 1M422 292l-22-6c7 3 6 4 12 9M567 311c1-9 0-9-2-18 9 4 9 1 16-5l-4 11 11-11-3 15M363 215c-40 0-16 39-5 40 29 3 49-28 4-40M301 190c-37-3-11 45 12 33 47-22 2-43-7-33M333 202l18 11"/>
  <path fill="none" stroke="#da2bb1" stroke-width="4" d="M309 224c4 19 33 31 36 14M282 206q-25 19-18 28c7 8 15 0 20-1l13-7"/>
  <path fill="none" stroke="#da2bb1" stroke-width="4" d="M343 245c-1 3-1 33 3 35s13 4 23-24M363 226l-3 1c-3 4 7 7 5 2M374 236s-18 8-1 3q3 0-1-2M352 232c-2 3 2 2 3 2 5-4-2-2-2-2M358 246q-5-2-4 0zM336 230c-10 4 4 13 5 6 2-7-8-8-7-3 0 2 6 6 5-1q-1-3-4 1M318 221c-7-2-4 9 9 7 5-1-10-16-12-7 0 0 5 10 3-1M310 199l1 1c1 0 5-3-2-3M295 202q0 1 1 1 7-1 4-4M312 209q-3 5-1 4c2-1 1-5-3-2M299 212c-1 3 2-1 2-1 3-9-5 3-5 4zM198 105c5 3 22 2 29 62 8 69 10 69 9 98M211 105c25 16 26 11 47 9M274 105c-26 22-24 74-24 173v-3M194 108c-5 2-35 10-63 13-17 27 0 126 4 130 14 12 39 25 43 26 26 11 26 8 53 5l2-5 1-14M275 106l-11 114M254 273c5 33 9-35 9-37"/>
  <path fill="none" stroke="#da2bb1" stroke-width="4" d="M126 178c56-16 61-13 96-17M125 187c47-14 47-14 95-18M125 197c40-8 47-13 104-16M254 163l18 11M256 173l10 10M252 185l14 12M132 136v10M132 139c5-4 5-1 5-1q0 3-4 3M145 136l-6 1 12 7-6-2M159 134l-5 4q4 2 1 4M238 64c103-10 113-4 162-1 0-1 7-32-19-45-9-5-18 8-19 10-21-64-44-2-48 4-9-18-21-17-24 3-7-11-8 0-14 12-2-1-18-11-20 7-23-1-23-1-46 2l49 5"/>
  <path fill="none" stroke="#da2bb1" stroke-width="4" d="M336 86c37 3 37 0 73 3-8-17-15-12-19-10-11-7-15-16-21-4-9-10-15-15-19-1-10-3-18-8-15 5h-19l25 5M735 216h-54"/>
  <path fill="none" stroke="#da2bb1" stroke-width="4" d="M664 64c3 20 0 28 20 27 27-2 35-3 32-29-1-8-31 0-62 4" transform="translate(0 -1)"/>
  <path fill="none" stroke="#da2bb1" stroke-width="4" d="M691 59c-9-8 3-9 3-9s21-2 18-3v10M228 132l9-7-15 27 12-8-3 15 10-7-10 23 15-5c-14 21-13 21-15 25l11-4c-7 12-18 22-6 17l-6 10 3-3-2 3 10-3-1 14 5-3-7 14 5-4c-5 31-1 31 1 34l-5-36 4 5c-11-59 8-82-7-92-9-5-3-7-3-10s-4-6-2-7c4-2 10 2 14 0-3 12-6 11-5 24M117 4c-1 8-14 60 75 56 41-2 53-34 52-55M108 50C67 98 64 95 60 97M124 80c0 1-8 9-16 37M86 28 39 53M163 78l9 30M223 74c7 11 6 17 39 39M273 93c35 13 35 11 62 15M1698 116c-3-2-37-27-50-16-7 6 6 22 32 37"/>
  <path fill="none" stroke="#da2bb1" stroke-width="4" d="M1689 115c5-9 2-11 12-14 9-3 5 4 6 16 4-5 12-24 18-7 4 11-4 19-9 19"/>
  <path fill="none" stroke="#da2bb1" stroke-width="4" d="M1721 119c-2 2-6 1-3 3 3 1 9-9 1-6M1706 112l-3 3q-1-3 3-4M1684 141l18 3c1 3-1 13-1 17M1663 101l-6 6c1 0 2-8 3-3M1704 99l15-16 11 19c35 3 41-9 43 2 2 12-22-1-36 14 16 1 24 5 41-8M1742 126c0 3-2 9 5 41M1700 162l-2 10c-13 18-30 16-35 23-14 16-3 35 7 15 3-7 22-2 27-13M1734 179c2 5 23 68-5 67-8-1 6-34-3-59"/>
  <path fill="none" stroke="#da2bb1" stroke-width="4" d="m1661 210-6 13 6-7 6 11-1-10 5 5v-5M1725 238l-6 13 7-8q4 12 3 12l4-10q3 5 7 11l-2-13M1773 230c-30 7-32 61 12 76l2 17c-52 18-52 26-48 28 15 5 67-13 64-25s-16-16-17-29c-3-16 2-15 11-29M1703 225c-14 12-13 45-1 52 12 8 8 11 9 25 2 21-18 1-52 27 35 2 35-3 69-9-4-29 1-33 2-37"/>
  <path fill="none" stroke="#da2bb1" stroke-width="4" d="M1700 192c-7 24 1 60 13 83 13 26 26 18 43 23M1747 170c1 1 17 46 49 43 49-6 49-4 98 2-87 19-86 31-86 38 1 22-4 22-22 34"/>
  <path fill="none" stroke="#da2bb1" stroke-width="4" d="M1701 242c16 21 16 24 53 18M1389 64l168-2c-2-36-32-42-43-25-2-2-27-50-36 8-3-3-42-47-56 2-13-12-14-2-21 15-10 0-10-1-20 3l51-3"/>
  <path fill="none" stroke="#da2bb1" stroke-width="4" d="M1572 73c98 1 109 0 119-1-1-2-2-24-12-28-14-6-14 0-21 13-2-3-22-28-38-32-15-4-9 5-14 19-16-39-22 3-22 5-2 1-2-3-4-3-5 3-3 4-6 24l-35 3h38M1230 29c-24 5-18 14-16 14 26 5 36-7 37-9l-14-2M1224 62c-4 24 5 22 6 21 15-7-4-30-7-22-5 10 11 35 17 26 5-8-9-33-19-31M1242 85c12-7 70-25 17-60M1202 44c2 12-2 15 9 21"/>
  <path fill="none" stroke="#da2bb1" stroke-width="4" d="M1203 41c28-25 30-29 67-18l-12 5c-11-2-11-5-23 0M1224 57l15-7M1232 37l-7 5 7-3M1275 26l11 1 24 5-9 3c23 2 23 1 25 4 3 3-1 1-4 4l36 23M1286 47c4 15 8 12 22 18l-9-11c25 14 23 17 51 23l-27-19M1286 39c7 6 7 5 16 9l-17-10M799 290l1-7v3l8-9v11l13-15-4 14M1168 216c-2-9 2-7 10-11 12 4 13 0 24 5l-6 1 8 5-7 1M750 120c-20 13-18 41-17 43 21 29 57 27 61 38 7 17-26 10-50-1-3 10-1 11-6 20M736 157l23-16M739 169l21-14M753 174l14-9M765 183l16-8M777 188l17-7M752 216l12-5M774 219l11-5M843 116l-2 1v71c0 44 4 45 17 51v-2M850 133l-12 13M859 142l-19 22M859 159l-18 25M859 178l-17 27M854 205l-10 15M857 221l-6 11M931 154c-6 5-24 14-15 49M913 244c9-2 10-1 17-7 8 8 8 9 19 11"/>
  <path fill="none" stroke="#da2bb1" stroke-width="4" d="m917 174 7-6 12-9M916 184c10-7 10-7 21-12M932 241l18-11M942 245l14-9M989 183c2 12 3 12 1 23M993 191l9-11M993 200l3-2M1047 143c-1 20 5 24 3 66-9 4-11 4-15-3M1053 162zM1052 162l12-13M1051 172c4-2 3-2 15-15"/>
  <path fill="none" stroke="#da2bb1" stroke-width="4" d="M1050 184c5-3 15-15 16-16M1052 196l15-15M1049 209c7-6 6-7 12-15M1051 155l9-11M1100 181c15-4 17 24 14 66l14-2"/>
  <path fill="none" stroke="#da2bb1" stroke-width="4" d="M1121 242c5-10 6-9 14-17M1121 226l15-25M1119 207l12-18M1113 195c9-10 8-10 14-22M1109 182l6-9M1102 183l3-3M931 67c-1 15 1 16-7 29-2-16-2-16 4-29q3 3 2 7M954 68l9-4M409 140l-27 12 35 14c-11 33-11 33-18 66l25-10-13 56c3-5 25-40 36-64l-24 3q2-5 6-10l17-21-16-6 29-29M148 279l-17-18 13 14 11-16 1 21 11-16v22M704 224c-4-15 1-14 9-26l-1 18 8-10-5 15-15-1M1650 308c1-15 0-15-8-29l11 16 15-15-5 20 8-11-6 21M1831 332c1-4 0-4-5-23l12 26 5-19 3 7 16-17-8 29M1271 334l3-17 7 14c10-13 9-13 21-24l-11 19 16-9v18M569 217h-28M472 219l-23 1M399 216h-40M123 223c-3-2-8 2-11 0-2 0-2-1 5-19l-11 22c-5-16-5-16-14-30l1 22 1-12-1 26c-52-9-52 1-105-4M1205 231l44-1M1421 229l12-1M1605 234l32-2-9-11c9 7 10 13 18 5v13l6-10 4 6c23-7 23-7 47-7M1844 231l44-1v-8l6 6 7-12c-1 14-2 14-1 15 3 2 9-2 12 0M1831 115c61 10 66 10 67-2 2-36-27-46-30-16-1-4-3-32-20-42-22-13-17 5-21 31-2-20-5-19-6-18-25 15-22 19-23 47l-8 2c26-2 26-3 53-1"/>
</svg>
