<svg width="100%" height="100%" viewBox="0 0 1920 360" version="1.1" xmlns="http://www.w3.org/2000/svg"
    xmlns:xlink="http://www.w3.org/1999/xlink" xml:space="preserve" xmlns:serif="http://www.serif.com/"
    style="fill-rule:evenodd;clip-rule:evenodd;stroke-linejoin:round;stroke-miterlimit:2;">
    <g transform="matrix(0.52229,0,0,0.52229,966,178.335)">
        <g transform="matrix(1,0,0,1,-450.8,-136.05)">
            <clipPath id="_clip1">
                <rect x="0" y="0" width="901.6" height="272.1" />
            </clipPath>
            <g clip-path="url(#_clip1)">
                <g id="Layer_1_1_">
                    <path
                        d="M744.2,60.3C706.9,60.3 689.9,79.3 689.9,79.3L689.9,64.3L603.4,64.3L603.4,196.8C603.4,196.8 593.6,201.1 586.9,199.3C580.2,197.5 580.2,188 580.2,188L580.2,64.3L494,64.3L494,82.1C494,82.1 479.2,66.3 461.7,62.9C435.3,57.9 401.2,61.2 373.2,95.7C345.2,130.2 353.4,182.2 353.4,182.2C353.4,182.2 330.1,196.4 311.7,196.4C293.4,196.4 294.4,180.2 294.4,180.2L294.4,130L351.4,130L351.4,64.3L293.4,64.3L293.4,15L207.7,15L207.7,155.2C207.7,155.2 203.1,126.8 137.2,106.4C104.8,96.4 82.5,93.6 86.4,79.4C89.6,67.7 108.9,68.7 108.9,68.7C148.2,68.7 187.7,95.1 187.7,95.1L187.7,15.7C187.7,15.7 182.2,13.2 172.9,10C145.3,0.9 82.2,-12.3 28.7,24.2C6.79,43.419 -3.761,72.614 0.8,101.4C2.127,112.489 6.333,123.04 13,132C32.2,154.7 75.5,164.3 95.7,168.7C115.9,173 126.5,178 126.5,188.5C126.5,199 113.4,206 83,201.2C52.6,196.4 23.7,176 23.7,176L2.7,248.7C2.7,248.7 52.5,278.2 125.4,270C198.2,261.8 209.2,207 209.2,207C209.5,201.7 205.7,265.3 274.5,271.5C335.7,277 378.8,242.8 378.8,242.8C378.8,242.8 397.5,271.3 442.1,271.3C486.8,271.3 500.8,243.5 500.8,243.5C500.8,243.5 506.8,271.3 553.1,271.3C595.6,271.3 603.4,264.3 603.4,264.3L603.4,267.3L689.7,267.3L689.7,146C689.7,146 703.1,135.4 719.5,141.2C732.6,145.9 732.3,163.1 732.3,163.1L732.3,267.3L817.3,267.3L817.3,136.7C817.3,136.7 815.6,112.2 806.1,94.9C796.6,77.6 781.5,60.3 744.2,60.3M494.3,189.3C494.3,189.3 485.8,197.3 467.8,197.3C449.8,197.3 439.3,184 439.3,166.6C439.3,149.2 449.8,134.8 467.8,134.8C485.8,134.8 494.3,142.8 494.3,142.8L494.3,189.3ZM863.3,197.7C831.6,197.7 827.5,223.1 827.5,235.5C827.5,247.5 833.3,268.7 864.1,268.7C894.9,268.7 901.7,248.3 901.7,233.8C901.6,219.2 894.9,197.7 863.3,197.7"
                        style="fill-rule:nonzero;" />
                </g>
            </g>
        </g>
    </g>
</svg>