<svg xmlns="http://www.w3.org/2000/svg" xml:space="preserve" id="Layer_1" x="0" y="0" viewBox="0 0 901.6 272.1">
    <g id="Layer_1_1_">
        <path stroke-linejoin="round"
            d="M744.2 60.3c-37.3 0-54.3 19-54.3 19v-15h-86.5v132.5s-9.8 4.3-16.5 2.5-6.7-11.3-6.7-11.3V64.3H494v17.8s-14.8-15.8-32.3-19.2c-26.4-5-60.5-1.7-88.5 32.8s-19.8 86.5-19.8 86.5-23.3 14.2-41.7 14.2c-18.3 0-17.3-16.2-17.3-16.2V130h57V64.3h-58V15h-85.7v140.2s-4.6-28.4-70.5-48.8c-32.4-10-54.7-12.8-50.8-27 3.2-11.7 22.5-10.7 22.5-10.7 39.3 0 78.8 26.4 78.8 26.4V15.7s-5.5-2.5-14.8-5.7C145.3.9 82.2-12.3 28.7 24.2A85 85 0 0 0 .8 101.4 64 64 0 0 0 13 132c19.2 22.7 62.5 32.3 82.7 36.7 20.2 4.3 30.8 9.3 30.8 19.8S113.4 206 83 201.2 23.7 176 23.7 176l-21 72.7s49.8 29.5 122.7 21.3c72.8-8.2 83.8-63 83.8-63 .3-5.3-3.5 58.3 65.3 64.5 61.2 5.5 104.3-28.7 104.3-28.7s18.7 28.5 63.3 28.5c44.7 0 58.7-27.8 58.7-27.8s6 27.8 52.3 27.8c42.5 0 50.3-7 50.3-7v3h86.3V146s13.4-10.6 29.8-4.8c13.1 4.7 12.8 21.9 12.8 21.9v104.2h85V136.7s-1.7-24.5-11.2-41.8-24.6-34.6-61.9-34.6m-249.9 129s-8.5 8-26.5 8-28.5-13.3-28.5-30.7 10.5-31.8 28.5-31.8 26.5 8 26.5 8zM863.3 197.7c-31.7 0-35.8 25.4-35.8 37.8 0 12 5.8 33.2 36.6 33.2s37.6-20.4 37.6-34.9c-.1-14.6-6.8-36.1-38.4-36.1" />
    </g>
</svg>