<svg xmlns="http://www.w3.org/2000/svg" width="122" height="113" viewBox="-10 -10 142 133" fill="rgba(0,0,0,0)">
    <g stroke="#DA2BB1" stroke-width="4" stroke-linecap="round" stroke-linejoin="round" fill="rgba(0,0,0,0)">
        <path
            d="m64 4-3 1c-2 1-2 3-2 7v9l1 7v13l5 1h5c2 1 2 3 2 5l2 6 7 6 3 13v2l-2 2-10 2-10 1-4 5v18l-1 5c1 2 5 2 9 3l13 1 14-1 13-1 7-4c2-3 1-7 1-9l-1-8-2-5-3-2c-3-4-2-8-3-14l-2-11-3-8-1-7c0-2 5-1 7-2l7-2 4-4 3-7-1-13c-1-4-5-7-7-9l-8-2H84L68 3l-5 1-1 1" />
        <path d="M76 32h-5c-2 1 0 3 0 4 2 4 14 3 17 3l1-1-1-3-6-1h-4" />
        <path d="m99 40-5 1-2 1-1 6 1 7 2 5 2 8 3 3 4 2h2" />
        <path d="m65 40 2 6v6l1 2 2 1 5 1" />
        <path d="m58 92 6 1 7-1 13-1 16-1h12" />
        <path d="M59 6h-9l-1 12 1 15 6 3h2" />
        <path d="M47 7h-5c-2 0-5 4-7 7-2 2 0 7 0 10v3c1 2 5 4 8 5l7 1" />
        <path d="M33 13h3l9 1 1-1" />
        <path d="M37 17v1h12" />
        <path d="M37 23h6" />
        <path d="M32 15H7l-5 5v1c0 3 6 5 7 6l12-1h11" />
        <path d="M14 16a35 35 0 0 0-5 6l-1 2" />
        <path d="m24 16-2 2-3 4-2 2" />
        <path d="m27 18-1 2-2 2v1" />
        <path d="M86 12h13l6 1c2 0 1 3 1 5l1 2v5" />
        <path d="m99 13 2 8v5" />
        <path d="M92 13a302 302 0 0 0 3 13v1" />
        <path d="m84 96-3 5 1 1 8-1v1l-2 3-1 1" />
    </g>
</svg>