<svg xmlns="http://www.w3.org/2000/svg" width="127" height="102" fill="rgba(0,0,0,0)" viewBox="-10 -10 147 122">
  <g stroke="#da2bb1" stroke-width="4" stroke-linecap="round" stroke-linejoin="round" fill="rgba(0,0,0,0)">
    <path
      d="M61 59q-24 0-28 2h-3q-2 5 1 9c7 8 13 2 15 3 6 2 3 14 5 18 4 6 13 2 14 2 3 0-3-7-4-12l-1-3q0-2 2-2l8-1q4-3 2-16 0-4-2-2h-3l-5 2" />
    <path
      d="m85 57-6 1q-2 0-4 5l-1 5c0 3 9 0 10 1l2 2q1 3-1 5H74c-3-1-4 7-5 9v1q1 3 7 6l13 1q6 1 12-1t8-8q1-5-1-9-3-6-7-7-4-2-8-2h-3v-2l2-1h3q3-1 2-5v-1l-3-1H81" />
    <path
      d="M19 9q-5 5-7 12v54c1 4 3 12 6 15q5 6 25 7h15l19 2h24q6 0 7-2 5-1 8-15l3-18 3-13c2-9 0-22-1-31S101 7 90 5Q78 3 65 2L43 3 18 9" />
    <path d="M15 17 42 6l4-1 7-3" />
    <path d="m2 28 20-8 17-8 17-7 12-3" />
    <path d="m12 32 11-4L85 3" />
    <path d="m17 42 12-6 39-17 12-5 5-1" />
    <path d="m12 51 15-5 55-18 16-6 2-2" />
    <path d="m24 54 16-5 31-10 31-7 5-3" />
    <path d="m62 50 27-9 11-4 19-5" />
    <path d="m98 47 19-6 7-3" />
    <path d="m19 67 5-2" />
    <path d="m16 79 15-7" />
    <path d="m25 84 3-1 14-3" />
    <path d="m31 94 12-1" />
  </g>
</svg>