<svg width="106" height="113" viewBox="0 0 106 113" fill="rgba(0,0,0,0)" xmlns="http://www.w3.org/2000/svg">
    <g stroke="#DA2BB1" stroke-width="4" stroke-linecap="round" stroke-linejoin="round" fill="rgba(0,0,0,0)">
        <path
            d="M7.53136 56.246C3.97055 71.3371 1.88185 85.6726 2.00517 95.9421C2.11095 104.751 14.9459 105.615 26.3451 107.603C32.3006 108.642 42.5228 107.941 49.6714 108.269C60.6547 108.773 72.4506 109.93 85.6687 110.258C93.5811 110.454 96.9292 111.59 98.2125 110.601C101.366 108.17 100.791 100.346 102.197 91.9058C103.925 81.5362 104.644 68.2552 102.983 61.3956C101.93 57.0463 97.461 57.5781 89.1794 55.2717C81.9696 53.2638 68.435 50.9969 58.4386 49.6449C42.3379 48.2928 34.2682 47.9648 26.7381 47.4677C20.9884 47.2987 11.3234 47.2987 2.1362 47.2987" />
        <path
            d="M50.8363 51.5454C48.771 42.8699 44.8674 30.7262 40.3066 18.4308C38.5855 13.81 38.0692 12.4753 37.5451 11.2872C37.0209 10.0991 36.5046 9.0981 35.9727 9.07788" />
        <path
            d="M52.9609 44.4675C59.6215 37.8497 66.282 31.2318 70.3537 27.1608C74.4253 23.0898 75.7062 21.7663 77.0259 20.4026" />
        <path
            d="M80.5601 16.9501C79.5491 17.2971 78.538 17.6441 78.0172 18.5169C77.4963 19.3896 77.4963 20.7776 78.0019 21.3192C78.5074 21.8607 79.5184 21.5137 80.2921 20.8144C81.0657 20.1152 81.5712 19.0742 81.0733 18.1909C80.5755 17.3077 79.0589 16.6137 77.8985 16.9501C76.738 17.2866 75.9798 18.6746 75.7155 19.9101C75.4512 21.1457 75.704 22.1867 76.2134 23.2434C76.7227 24.3002 77.481 25.3412 78.1244 25.357C78.7678 25.3727 79.2733 24.3318 79.7942 23.2592" />
        <path
            d="M39.9772 2.91801C40.2516 4.65032 40.5261 6.38262 41.0792 6.75533C41.6322 7.12804 42.4556 6.08865 42.3309 5.03352C42.2061 3.97839 41.1083 2.93901 39.8566 2.40357C38.6049 1.86813 37.2326 1.86813 36.3885 2.38782C35.5443 2.90751 35.2698 3.9469 35.2657 5.00203C35.2615 6.05716 35.536 7.09654 36.089 7.97844C36.6421 8.86034 37.4655 9.55326 38.3013 9.73699C39.1372 9.92072 39.9606 9.57426 40.5219 8.87609C41.0833 8.17792 41.3578 7.13853 39.9772 6.06766" />
        <path
            d="M21.7374 60.0389C21.7374 67.7467 21.233 77.192 20.4649 81.2378C20.0889 83.2183 21.4775 85.2836 22.7462 87.1322C26.3038 92.3165 43.2735 91.3548 58.1073 90.5163C70.4848 89.8167 78.7951 89.3445 79.6854 87.3292C81.5394 83.1326 80.079 77.2324 78.8065 73.3532C76.8854 67.4965 66.8577 68.4639 59.5975 67.282C51.2979 66.7769 45.2146 66.1001 38.8371 65.2616C36.0515 65.0899 31.2597 65.0899 25.5585 66.1001" />
    </g>
</svg>