<svg width="100%" height="100%" viewBox="-10 -10 123 123" version="1.1" xmlns="http://www.w3.org/2000/svg" xmlns:xlink="http://www.w3.org/1999/xlink" xml:space="preserve" xmlns:serif="http://www.serif.com/" style="fill-rule:evenodd;clip-rule:evenodd;stroke-linecap:round;"><path d="M71.4 18.9 86 17.2c6-.8 7.2-1.6 8.6-2.4 1.2-.6 5.8-2.3 6.3-.9S88.4 40.3 86.9 43.1c-1.4 2.8-24.7 44-26 46.5-2 3.9-9 11.8-10.4 11.4-3.4-1.3-2.8-5.4-4-7.8-5.7-10.8-26-50.3-30.5-57.5C11.6 28.7 2 16.2 2 15q0-.7 1-1.8c1.2-1.6 18.9 3 20.8 3.5 4 1 11.1 2.1 12.2 2.1l.8.2.8.2" style="fill:none;fill-rule:nonzero;stroke:rgb(218,43,177);stroke-width:4px;"/><path d="m38.5 9.9-.2 4.3L37 41.9c0 1.4 0 4.4.2 5l1.3 1.4c1.9.8 8.4-6.1 10-4S46.8 59 48 60.9c1.1 1.8 7.7-3.2 8.2-.5.7 3-4.9 22.8-4.6 24.3.2 1.4 12.1-16.2 13.2-19l8.6-22.4c1.5-3.5 8-13.3 7.3-16.4-.6-3-10.3 1.2-11.6-.4s2.5-5.4 3.9-9.6c.7-2.2 7.8-12.4 3.3-13.4-5.4-1.1-35 6.6-35.5 6.7q-.6 0-1.9.4" style="fill:none;fill-rule:nonzero;stroke:rgb(218,43,177);stroke-width:4px;"/></svg>