<svg xmlns="http://www.w3.org/2000/svg" width="106" height="110" viewBox="-10 -10 126 130" fill="rgba(0,0,0,0)">
    <g stroke="#DA2BB1" stroke-width="4" stroke-linecap="round" stroke-linejoin="round" fill="rgba(0,0,0,0)">
        <path d="m26 43 1 20v9" />
        <path d="M31 45a398 398 0 0 0 22 21v11" />
        <path d="M29 74c3 3 9 6 15 9l5 3c1-1 1-3-1-5" />
        <path d="M56 65c1 14 2 24 4 25l2-1 11-10 12-7c4-2 1-10 1-16l1-8c-1-4-7 2-14 6a80 80 0 0 1-9 7" />
        <path d="m34 38 15 13 6 6c3 2 7-7 11-10l8-7v-3c-2-3-7-5-10-8l-3-5h-3L37 35l-2 1" />
        <path d="m32 34 13-10 8-6c2-2-5-2-8-4-2 0-3-2-5-3l-2 1c-7 5-10 11-13 15l-1 1 4 2c1 0 2 0 3 2" />
        <path d="M18 39c2 18 3 35 1 35-4-1-7 2-9 3-6 1 0-20-2-28 0-4 3-7 3-10l1-5 2 6 3 2" />
        <path d="m25 76 14 11 9 6 2 10c-1 1-3-1-4-2" />
        <path d="m24 77-10 5v2c2 4 13 8 19 12l8 4 3 2" />
        <path d="M61 95a11 11 0 0 0 2 8v-1" />
        <path d="M60 95c5-3 15-11 20-13l9-7h2l8 6c3 2-8 6-13 10l-12 7-2 1-4 2" />
        <path d="m92 44 2 26c2 4 5 5 7 6l-2-34c-2-6-2-6-3-5l-3 3" />
        <path d="m83 36 7-6c1-2 0-3-1-4l-8-9L69 6c-1-2-2-3-4-3l-4 2c-3 1-1 6 0 11 1 6 7 8 10 10l4 4 1 2" />
    </g>
</svg>