<svg viewBox="0 0 135 134" xmlns="http://www.w3.org/2000/svg" xml:space="preserve">
    <g stroke="#DA2BB1" stroke-width="4" stroke-linecap="round" stroke-linejoin="round" fill="rgba(0,0,0,0)">
        <path
            d="M114.7 50c-.3 0-3.3 5.1.2 10.4 1.2 1.9 4.6 2.4 6.1 2.5 1 0 5.7-2 7-3.3 3.5-3.5 4.4-8 2.8-9.6-4-3.8-6.9-1.6-10.2-1.7-2 .1-2.8.4-3.7.8q-1 .6-3.2 1M103.1 39.9q-.6.6-1 1.6 0 .8 1.6 2 .5.5 1.1.3.8-.5 1.5-1.2t.3-1.1c-.9-2.3-3-3.2-5.4-4.1l-1.6-.3h-1M83 41.8l-4.8.2c-2.6.1-7 1.3-11.6 2.6-3.4 1-17.1 11-12.8 30.3 1.4 5.8 3.5 9.5 9.7 15.1 2.2 2 5.9 3.5 8 3.8a51 51 0 0 0 18.9-1.5c2-.5 11.9-7.3 14.2-13.5 2.8-7.4 2-20.6-4.7-28.1a30 30 0 0 0-10.8-6.4c-3.6-1.4-7-2.2-8-2.2l-1.6.1M40.5 50.7c0 .4-1.5 5.6-1.6 7.9q0 1 .7 1.7.3.3.8.3c1.6-.1 2.6-1.8 3-2.2.5-.4.3-1.3.3-2q-.1-.9-1-1.5-.9-.3-2.6.5a2 2 0 0 0-1 .8" />
        <path
            d="M83.3 50.8a41 41 0 0 0-7 3c-1 .4-2.2 2.3-2.2 2.3v.8q.4.7 1.6 1.1c1.4.5 4.2-.4 6.3-1.2q2.1-.5 4.5-1.6.8-.5.6-.9 0-.4-.5-.8c-2.1-1.8-6-1.4-7.7-1.4-2.8.2-3.8 1.4-4.5 2.2q-.2.3-.1.8c0 .5.7.9 1.2 1.1 1.5.8 3.4.7 3.9 1 1.5.7 1.5 3.6 1.7 5 .3 1.4 1 3.8 1.2 5.8q.2 1 .1 1.7c-.1 1.6-12.6.3-14 .2-1.7 0-3.3 1.4-4.4 2.7-1 1.2 1 4 2 5.5.7 1.2 11 3 19.7.6Q88 78 90 76.5q1.8-.8 3.8-2c1.4-1 2-3 2.6-5.4q.7-2.5 1.3-4 0-.5-.4-.8c-1.2-1.2-3.3-1-4.5-.7-2 .4-3.6 2-6.2 3.3l-3.3 1.4-1.4.7M72.7 81.2a45 45 0 0 0 3.7 11.7c.5.5 1.2.3 1.8.2 1.2-.4 2-1.7 2.6-2.8.7-1.3.4-2.6.4-4.4s-.5-3.8-.6-5a10 10 0 0 0-3.8 0l-2 .2" />
        <path
            d="m76.3 81 .2 2.1.6 3.9.3 1.6M34.4 70.7c-.6.2-4 .7-7 3-1.8 1.3-3.5 4.4-4.3 8.5-.5 2.7 2 6.8 2.5 7.4A12 12 0 0 0 39 91.4q2.5-1.2 3.6-4c2-5.6-2.3-12-3.3-13.1q-2.5-1.5-4.7-2.5l-1.3-.8M10.3 45.1c-.5 0-.8-1.5-1.2-1.9-.5-.4-.7-16-.5-19 .2-3.8.3-7.4 2.3-9.1 3.9-3.4 5.1-3.5 8-3.5 2.2 0 4.1.6 7.4 1.9A64 64 0 0 1 35 18c2 1.3 4.5 4.6 5.6 4.3s2.8-1 7.5-2.3c2.9-.7 5-1.3 8.3-1.8 2.5-.4 6.8-1 9.5-1.2 4-.3 7.4.2 10.8.4 1.6.2 3 .5 4.2 0C81.6 17 90 5 93.2 2.9q1.6-.9 3.5-.8c15.5-.5 12.7 8.7 12.8 12 .2 5.7-5.2 19.7-4 20.6 1 .9 2.2 1.4 3.6 3 2.3 2.7 5 6 6.4 8.7q1 2 1.4 2.3" />
        <path
            d="M121.9 65v2c.1 1.4 0 3-.4 6.8-.5 2.6-3.5 16.4-4.2 17.8-1.8 4-3.5 6.6-5 9.3-.6 1-2.8 4.8-7.1 10a94 94 0 0 1-16.7 14.4l-9.6 3.2c-1.4.5-2.5 1.1-4.7 1.8-2.8.9-6.7 1.8-10 1.5-5-.5-20.2-1.1-24.4-2.3-2.8-.7-6.2-2-11-5.5q-4.3-3-8-6.5a46 46 0 0 1-12.2-18C8.2 98 4.6 87 4.4 85c-.6-4.6-1-22.2-.4-23.6.8-1.5 7.7-16 6.3-16.2" />
        <path
            d="m21 49.2 4-2A40 40 0 0 0 35.7 37c.4-1.9-2-5-5.8-8.7q-3.5-3.6-6.6-5.6-1.1-.4-2.8 1c-1.8 1.1-2.1 3-2.5 6l1 11.6a71 71 0 0 1 2.2 8.2M95.3 11.8c-1.1.3-3.3 1-5.8 3.2-2.3 1.9-3 3.7-3.4 5s.8 2.3 2.3 3.6c3.7 3 7.8 4.3 9.4 5.1q.8.5 2 .7 1 0 1.5-.9c1-1.5 1.4-3.7 2.1-8.7a10 10 0 0 0-.6-5.2 5 5 0 0 0-2.2-2.4q-2.8-1-5.2 0l-1 .5M25.8 84.4q.2 0 .4-.5l.7-1.6M30.6 101.5l-1.2 1-2.2 2.5M45.8 97l-.5 1c-.4.8-1.4 2.4-2.1 4.6q-1.1 3.5-2 7.8M33.3 113.6l-.6 1-2.2 4.2a7 7 0 0 0-.8 2.4M47.6 108.7l-.4 1.2-1.7 7.2M44.6 121.1v.9l-.3 3.2v1.4M55.8 95.3l-.3 4.1-.3 4M60.9 104.7l-.4 1-1.6 4.8q-1 3-1.8 6.7M55.7 121.6l-.8 2M71.7 107.4q-.5.8-1.8 3.9l-.7 1.7-.5 1.2M65.8 121.8l-.1.4-.3 1M83.5 102.2l-.4 1.4-1.8 7M79.4 113.5l-.2 1-.3 1.2-.4 2.2M82.8 119.4l-.2 1.3v2.6M88.6 111.2l-.1 1v1.3l-.1 1.7M96.3 103.9l.4 1.5M77.7 33v-.3l-.9-2.1-2.1-4.3M61.1 27.8l-6.6-5.3M52.1 29.8l-1-.6-5-2.9M63.3 37.8l-1.2-.7-6-3.6M55.9 44.3l-2.5-1.5-2.2-1.2-1-.6M71 37.2l-1.6-3.1q-.9-1.7-1.3-3l-.4-1.2" />
    </g>
</svg>